<?xml version="1.0" standalone="no"?>
<!DOCTYPE svg PUBLIC "-//W3C//DTD SVG 1.1//EN" "http://www.w3.org/Graphics/SVG/1.1/DTD/svg11.dtd" >
<svg>
<metadata>
Created by FontForge 20090622 at Sun Mar 17 22:46:47 2013
 By root
Copyright (c) 2012 by Ramiz Guseynov. All rights reserved.
</metadata>
<defs>
<font id="CentimaMono-Bold" horiz-adv-x="600" >
  <font-face 
    font-family="Centima Mono"
    font-weight="700"
    font-stretch="normal"
    units-per-em="1000"
    panose-1="2 0 5 6 0 0 0 2 0 4"
    ascent="750"
    descent="-250"
    x-height="500"
    cap-height="700"
    bbox="-56 -298 656 931"
    underline-thickness="50"
    underline-position="-50"
    unicode-range="U+0020-U+FB02"
  />
<missing-glyph 
 />
    <glyph glyph-name="fi" unicode="fi" 
d="M326 0v102h64v297h-184v-399h-117v399h-64v101h64v64q0 65 43 105.5t113 40.5q20 0 44 -2t38 -4l14 -3v-102q-57 11 -89 11q-46 0 -46 -43v-67h302v-398h66v-102h-248zM390 572v128h118v-128h-118z" />
    <glyph glyph-name="fl" unicode="fl" 
d="M326 0v102h64v501q-72 7 -138 7q-46 0 -46 -43v-67h114v-101h-114v-399h-117v399h-64v101h64v64q0 65 43 105.5t113 40.5q52 0 117.5 -2.5t105.5 -5.5l40 -2v-598h66v-102h-248z" />
    <glyph glyph-name=".notdef" 
 />
    <glyph glyph-name=".null" horiz-adv-x="0" 
 />
    <glyph glyph-name="nonmarkingreturn" 
 />
    <glyph glyph-name="space" unicode=" " 
 />
    <glyph glyph-name="exclam" unicode="!" 
d="M237 361v339h125v-339l-10 -157h-105zM236 0v128h127v-128h-127z" />
    <glyph glyph-name="quotedbl" unicode="&#x22;" 
d="M160 474v236h112l-39 -236h-73zM327 474v236h112l-40 -236h-72z" />
    <glyph glyph-name="numbersign" unicode="#" 
d="M524 288v-114h-92l-25 -174h-102l26 174h-107l-25 -174h-101l25 174h-78v114h95l15 107h-79v114h96l27 191h101l-27 -191h106l27 191h102l-28 -191h75v-114h-91l-16 -107h76zM241 288h106l15 107h-106z" />
    <glyph glyph-name="dollar" unicode="$" 
d="M243 -49v48q-64 17 -105 68t-41 117v36h112v-38q0 -36 26 -60t63 -24q38 0 63 22t25 55q0 30 -20.5 57.5t-52 47t-67.5 45t-67.5 50.5t-52 65t-20.5 87q0 131 137 176v46h109v-45q134 -41 138 -188h-113q0 44 -21.5 66t-59.5 22q-32 0 -54 -18.5t-22 -46.5t21 -53.5
t52 -45t68 -45.5t68 -53t52 -69t21 -92q0 -70 -42 -118.5t-108 -64.5v-47h-109z" />
    <glyph glyph-name="percent" unicode="%" 
d="M417 166v-55q0 -51 -36 -85.5t-93 -34.5t-92.5 34.5t-35.5 85.5v55q0 51 35.5 85.5t92.5 34.5t93 -34.5t36 -85.5zM327 109v58q0 15 -11.5 26.5t-28.5 11.5q-15 0 -27 -11.5t-12 -26.5v-58q0 -14 12 -25.5t28 -11.5t27.5 11t11.5 26zM416 590v-55q0 -51 -35.5 -85.5
t-91.5 -34.5q-58 0 -94 34.5t-36 85.5v55q0 51 36 85.5t94 34.5q56 0 91.5 -34.5t35.5 -85.5zM328 533v59q0 15 -12 26t-28 11t-28 -11t-12 -26v-59q0 -15 12 -25.5t29 -10.5q16 0 27.5 10.5t11.5 25.5zM493 389v-77h-408v77h408z" />
    <glyph glyph-name="ampersand" unicode="&#x26;" 
d="M572 148l-64 -76l-42 37q-23 -54 -69.5 -86t-107.5 -32q-90 0 -147.5 55t-57.5 140v77q0 85 62 142q-42 53 -42 130q0 73 54 124t140 51q37 0 74 -10t56 -20l18 -11v-100q-95 42 -148 42q-39 0 -65.5 -24t-26.5 -61q0 -32 29 -61l151 -145v43h101v-135zM289 90
q38 0 64.5 27.5t31.5 66.5l-161 151q-33 -31 -33 -72v-80q0 -40 27.5 -66.5t70.5 -26.5z" />
    <glyph glyph-name="quotesingle" unicode="'" 
d="M244 474v236h112l-39 -236h-73z" />
    <glyph glyph-name="parenleft" unicode="(" 
d="M411 -74v-116q-96 0 -159.5 56.5t-63.5 137.5v514q0 80 63.5 136t159.5 56v-115q-45 0 -76 -22t-31 -53v-521q0 -32 30.5 -52.5t76.5 -20.5z" />
    <glyph glyph-name="parenright" unicode=")" 
d="M188 594v116q96 0 159.5 -56.5t63.5 -137.5v-514q0 -80 -63.5 -136t-159.5 -56v115q45 0 76 22t31 53v521q0 32 -30.5 52.5t-76.5 20.5z" />
    <glyph glyph-name="asterisk" unicode="*" 
d="M252 700h94v-75l78 24l29 -86l-79 -30l49 -64l-77 -53l-46 61l-40 -61l-79 50l41 65l-76 24l30 90l76 -24v79z" />
    <glyph glyph-name="plus" unicode="+" 
d="M237 500h125v-165h167v-120h-167v-168h-125v168h-167v120h167v165z" />
    <glyph glyph-name="comma" unicode="," 
d="M239 0v128h127v-99q0 -155 -133 -155v65q27 0 39 20t12 41h-45z" />
    <glyph glyph-name="hyphen" unicode="-" 
d="M439 334v-110h-278v110h278z" />
    <glyph glyph-name="period" unicode="." 
d="M236 0v128h127v-128h-127z" />
    <glyph glyph-name="slash" unicode="/" 
d="M70 0l361 700h99l-359 -700h-101z" />
    <glyph glyph-name="zero" unicode="0" 
d="M505 512v-319q0 -86 -60.5 -144t-144.5 -58q-85 0 -145 58t-60 144v319q0 84 60 141t145 57q84 0 144.5 -57.5t60.5 -140.5zM386 193v320q0 38 -26 63t-60 25t-61 -25t-27 -64v-319q0 -42 26.5 -67.5t61.5 -25.5t60.5 25t25.5 68z" />
    <glyph glyph-name="one" unicode="1" 
d="M106 0v107h144v469l-144 -69v118l154 75h109v-593h144v-107h-407z" />
    <glyph glyph-name="two" unicode="2" 
d="M113 534v123q9 6 26 15t65.5 23.5t94.5 14.5q85 0 141.5 -56t56.5 -146q0 -102 -106 -225l-148 -173h262v-110h-401v112l213 263q34 42 48.5 71t14.5 62q0 43 -24.5 68t-60.5 25q-34 0 -79.5 -16.5t-73.5 -33.5z" />
    <glyph glyph-name="three" unicode="3" 
d="M241 314v111h46q33 0 56 21.5t23 52.5v25q0 34 -20.5 55t-57.5 21q-33 0 -76 -13t-70 -27l-26 -13v122q87 41 171 41q92 0 145.5 -52.5t53.5 -131.5v-26q0 -29 -14 -60.5t-28 -48.5l-13 -17q25 -21 44.5 -57.5t19.5 -82.5v-46q0 -89 -58 -143t-161 -54q-44 0 -87.5 13.5
t-64.5 27.5l-22 13v119q107 -64 174 -64q50 0 74.5 23t24.5 62v48q0 34 -25.5 57.5t-62.5 23.5h-46z" />
    <glyph glyph-name="four" unicode="4" 
d="M80 139v114l214 447h130l-217 -453h135v102h120v-102h53v-108h-53v-139h-120v139h-262z" />
    <glyph glyph-name="five" unicode="5" 
d="M501 292v-104q0 -89 -57 -143t-161 -54q-45 0 -88.5 13.5t-64.5 26.5l-21 13v120q11 -7 29.5 -17.5t64.5 -28.5t80 -18q50 0 74 23t24 62v108q0 35 -22.5 58.5t-63.5 23.5q-23 0 -47 -7.5t-36 -15.5l-13 -8l-83 37l24 319h336v-107h-225l-8 -122q24 13 70 13
q79 0 133.5 -54.5t54.5 -137.5z" />
    <glyph glyph-name="six" unicode="6" 
d="M304 375q-33 0 -56.5 -24t-23.5 -57v-114q0 -35 23 -57.5t57 -22.5t55.5 23t21.5 58v113q0 33 -21.5 57t-55.5 24zM311 710q40 0 79 -7t58 -14l20 -7v-117q-81 36 -155 36q-35 0 -62 -25t-27 -60v-64q29 32 95 32q78 0 131 -55.5t53 -136.5v-107q0 -82 -55.5 -138
t-143.5 -56q-83 0 -140.5 56.5t-57.5 136.5v331q0 82 56.5 138.5t148.5 56.5z" />
    <glyph glyph-name="seven" unicode="7" 
d="M338 0h-123q0 82 22 177.5t48.5 165.5l53 142t32.5 105h-267v110h391v-89q0 -37 -24.5 -111t-54 -148t-54 -173t-24.5 -179z" />
    <glyph glyph-name="eight" unicode="8" 
d="M491 526v-37q0 -22 -5.5 -43t-12.5 -35t-14.5 -25t-12.5 -16l-6 -5q7 -5 17 -15t26.5 -45t16.5 -76v-45q0 -81 -58 -137t-143 -56q-84 0 -142 56.5t-58 137.5v41q0 42 15 77t30 49l15 13q-6 5 -14.5 14.5t-22.5 42.5t-14 69v35q0 77 54.5 130.5t136.5 53.5t137 -53.5
t55 -130.5zM380 180v48q0 34 -23.5 57.5t-57.5 23.5q-33 0 -57 -23.5t-24 -57.5v-47q0 -35 23 -58t58 -23q33 0 57 23t24 57zM373 488v37q0 32 -21.5 54t-52.5 22t-52.5 -22t-21.5 -54v-36q0 -30 20.5 -51.5t53.5 -21.5q32 0 53 20.5t21 51.5z" />
    <glyph glyph-name="nine" unicode="9" 
d="M295 326q33 0 56.5 24t23.5 57v114q0 35 -23 57.5t-57 22.5t-55.5 -23t-21.5 -58v-113q0 -33 21.5 -57t55.5 -24zM288 -9q-40 0 -78 6.5t-56 13.5l-18 7v117q76 -35 150 -35q35 0 62 25t27 60v64q-29 -32 -95 -32q-78 0 -131 55.5t-53 136.5v107q0 82 55.5 138t143.5 56
q83 0 140.5 -56.5t57.5 -136.5v-331q0 -82 -56.5 -138.5t-148.5 -56.5z" />
    <glyph glyph-name="colon" unicode=":" 
d="M236 0v128h127v-128h-127zM236 372v128h127v-128h-127z" />
    <glyph glyph-name="semicolon" unicode=";" 
d="M239 372v128h127v-128h-127zM239 0v128h127v-99q0 -155 -133 -155v65q27 0 39 20t12 41h-45z" />
    <glyph glyph-name="less" unicode="&#x3c;" 
d="M81 239v97l437 190v-129l-265 -110l265 -109v-129z" />
    <glyph glyph-name="equal" unicode="=" 
d="M529 235v-117h-458v117h458zM529 435v-118h-458v118h458z" />
    <glyph glyph-name="greater" unicode="&#x3e;" 
d="M518 336v-97l-437 -190v130l265 108l-265 109v130z" />
    <glyph glyph-name="question" unicode="?" 
d="M297 710q83 0 139.5 -50t56.5 -136q0 -45 -16.5 -78t-40.5 -54l-47.5 -43t-40 -58.5t-16.5 -86.5h-106q0 58 14.5 103t35 71t41.5 47.5t35.5 45t14.5 51.5q0 33 -24 56.5t-63 23.5q-33 0 -76.5 -16t-70.5 -32l-27 -15v114l27 15.5t67.5 25.5t96.5 16zM215 0v128h127v-128
h-127z" />
    <glyph glyph-name="at" unicode="@" 
d="M304 309v-140q0 -32 21.5 -55.5t53.5 -23.5t55 24t23 55v140q0 31 -22.5 53.5t-55.5 22.5q-30 0 -52.5 -23t-22.5 -53zM364 485q26 0 49.5 -9.5t33.5 -18.5l10 -9q0 69 -46 114t-112 45q-62 0 -109.5 -44t-47.5 -102v-398q0 -58 43.5 -101.5t98.5 -43.5h31v-103h-29
q-98 0 -170 74t-72 174v398q0 101 75.5 175t179.5 74q107 0 181.5 -70.5t74.5 -172.5v-467h-89l-6 33q-41 -42 -96 -42q-71 0 -113 49t-42 123v151q0 71 45 121t110 50z" />
    <glyph glyph-name="A" unicode="A" 
d="M429 0l-39 179h-180l-39 -179h-119l170 700h156l170 -700h-119zM298 584l-63 -294h131l-64 294h-4z" />
    <glyph glyph-name="B" unicode="B" 
d="M316 700q78 0 129 -48.5t51 -117.5v-52q0 -32 -12 -60t-24 -40l-13 -13q6 -5 15.5 -14t25 -41.5t15.5 -68.5v-68q0 -76 -57 -126.5t-133 -50.5h-196v700h199zM318 589h-84v-169h84q27 0 44.5 17t17.5 42v53q0 24 -17.5 40.5t-44.5 16.5zM234 314v-205h79q31 0 51 20
t20 48v68q0 24 -18 46.5t-53 22.5h-79z" />
    <glyph glyph-name="C" unicode="C" 
d="M513 151v-115q-9 -5 -25.5 -12.5t-65 -20t-95.5 -12.5q-96 0 -158.5 55t-62.5 141v328q0 86 61.5 140.5t160.5 54.5q42 0 85.5 -9.5t65.5 -18.5l22 -10v-113q-102 43 -174 43q-47 0 -74.5 -24t-27.5 -63v-328q0 -38 28 -63t74 -25q33 0 79.5 13t76.5 26z" />
    <glyph glyph-name="D" unicode="D" 
d="M513 508v-316q0 -80 -60 -136t-145 -56h-201v700h201q85 0 145 -56t60 -136zM392 191v316q0 35 -25 58.5t-62 23.5h-80v-480h80q37 0 62 23.5t25 58.5z" />
    <glyph glyph-name="E" unicode="E" 
d="M119 700h373v-109h-256v-169h233v-108h-233v-205h264v-109h-381v700z" />
    <glyph glyph-name="F" unicode="F" 
d="M123 700h373v-109h-256v-169h233v-108h-233v-314h-117v700z" />
    <glyph glyph-name="G" unicode="G" 
d="M513 376v-337q-100 -48 -207 -48q-95 0 -157.5 55t-62.5 141v327q0 86 61.5 140.5t159.5 54.5q46 0 92 -9.5t69 -19.5l24 -9v-112q-114 42 -186 42q-46 0 -74 -25t-28 -62v-327q0 -38 28 -63t74 -25q18 0 41 4.5t37 8.5l15 4v154h-98v106h212z" />
    <glyph glyph-name="H" unicode="H" 
d="M389 700h119v-700h-119v314h-179v-314h-118v700h118v-278h179v278z" />
    <glyph glyph-name="I" unicode="I" 
d="M93 592v108h414v-108h-147v-483h147v-109h-414v109h147v483h-147z" />
    <glyph glyph-name="J" unicode="J" 
d="M98 23v110q68 -34 165 -34q50 0 79 25t29 63v404h-258v109h377v-513q0 -86 -62.5 -141t-158.5 -55q-47 0 -89.5 8t-61.5 16z" />
    <glyph glyph-name="K" unicode="K" 
d="M208 700v-327l211 327h142l-220 -330l228 -370h-140l-221 366v-366h-118v700h118z" />
    <glyph glyph-name="L" unicode="L" 
d="M130 700h119v-591h296v-109h-415v700z" />
    <glyph glyph-name="M" unicode="M" 
d="M408 700h132v-700h-107v384l5 127h-4l-82 -208h-104l-82 208h-4l5 -127v-384h-107v700h132l106 -292h4z" />
    <glyph glyph-name="N" unicode="N" 
d="M399 700h109v-700h-129l-182 499h-4l8 -130v-369h-109v700h128l184 -501h4l-9 134v367z" />
    <glyph glyph-name="O" unicode="O" 
d="M204 514v-328q0 -38 27 -63t68 -25q40 0 67 25t27 62v329q0 38 -27 63t-67 25q-41 0 -68 -25t-27 -63zM86 186v328q0 85 61.5 140.5t151.5 55.5q89 0 151.5 -55.5t62.5 -140.5v-328q0 -85 -62.5 -140.5t-151.5 -55.5q-90 0 -151.5 55.5t-61.5 140.5z" />
    <glyph glyph-name="P" unicode="P" 
d="M124 0v700h206q74 0 125 -48t51 -118v-137q0 -69 -51.5 -117.5t-124.5 -48.5h-89v-231h-117zM386 394v140q0 23 -17 39t-43 16h-85v-248h85q26 0 43 15.5t17 37.5z" />
    <glyph glyph-name="Q" unicode="Q" 
d="M296 -91v82q-88 0 -149 56.5t-61 138.5v328q0 85 61.5 140.5t151.5 55.5q89 0 151.5 -55.5t62.5 -140.5v-328q0 -71 -45 -123.5t-115 -66.5l218 -68v-109zM204 514v-328q0 -38 27 -63t68 -25q40 0 67 25t27 62v329q0 38 -27 63t-67 25q-41 0 -68 -25t-27 -63z" />
    <glyph glyph-name="R" unicode="R" 
d="M391 0l-102 242h-63v-242h-118v700h207q73 0 124 -48t51 -118v-126q0 -98 -85 -143l117 -265h-131zM371 405v129q0 23 -17 39t-42 16h-86v-238h86q25 0 42 16t17 38z" />
    <glyph glyph-name="S" unicode="S" 
d="M278 99q52 0 81.5 25t29.5 64q0 37 -31 65.5t-75 49.5t-88 45.5t-75 67.5t-31 102q0 83 61 137.5t156 54.5q45 0 89 -10t65 -20l22 -10v-112q-95 44 -173 44q-47 0 -74.5 -22.5t-27.5 -56.5q0 -28 22.5 -51t56 -38t73 -37t73 -45.5t56 -66t22.5 -97.5q0 -85 -63 -141
t-163 -56q-48 0 -96 12.5t-72 24.5l-25 12v119q11 -7 30.5 -17t69 -26.5t87.5 -16.5z" />
    <glyph glyph-name="T" unicode="T" 
d="M82 590v110h435v-110h-158v-590h-121v590h-156z" />
    <glyph glyph-name="U" unicode="U" 
d="M394 700h120v-513q0 -85 -62.5 -140.5t-151.5 -55.5q-90 0 -152 55.5t-62 140.5v513h119v-513q0 -38 27 -63t68 -25q40 0 67 25t27 62v514z" />
    <glyph glyph-name="V" unicode="V" 
d="M176 700l106 -484l16 -100h4l16 100l106 484h119l-165 -700h-156l-165 700h119z" />
    <glyph glyph-name="W" unicode="W" 
d="M233 499h134l59 -389h9l21 590h122l-44 -700h-174l-57 394h-6l-58 -394h-173l-44 700h122l21 -588h9z" />
    <glyph glyph-name="X" unicode="X" 
d="M196 700l104 -218l105 218h130l-170 -337l184 -363h-131l-118 243l-117 -243h-132l184 363l-171 337h132z" />
    <glyph glyph-name="Y" unicode="Y" 
d="M179 700l121 -273l120 273h130l-190 -400v-300h-121v301l-190 399h130z" />
    <glyph glyph-name="Z" unicode="Z" 
d="M509 595l-277 -486h276v-109h-417v105l281 486h-267v109h404v-105z" />
    <glyph glyph-name="bracketleft" unicode="[" 
d="M411 -71v-109h-223v880h223v-108h-107v-663h107z" />
    <glyph glyph-name="backslash" unicode="\" 
d="M169 700l361 -700h-101l-359 700h99z" />
    <glyph glyph-name="bracketright" unicode="]" 
d="M188 591v109h223v-880h-223v108h107v663h-107z" />
    <glyph glyph-name="asciicircum" unicode="^" 
d="M254 700h93l148 -367h-118l-77 208h-4l-73 -208h-118z" />
    <glyph glyph-name="underscore" unicode="_" 
d="M0 -58h600v-92h-600v92z" />
    <glyph glyph-name="grave" unicode="`" 
d="M427 555h-96l-158 155h149z" />
    <glyph glyph-name="a" unicode="a" 
d="M376 0l-4 43q-5 -6 -14 -14.5t-42 -23t-71 -14.5q-62 0 -104 42.5t-42 112.5q0 75 46.5 118.5t121.5 50.5l99 9v14q0 30 -19 50t-54 20q-31 0 -69 -6t-60 -12l-22 -7v102q82 25 152 25q92 0 139.5 -47.5t47.5 -121.5v-341h-105zM278 88q33 0 60.5 23t27.5 54v60l-83 -7
q-71 -6 -71 -66q0 -28 16.5 -46t49.5 -18z" />
    <glyph glyph-name="b" unicode="b" 
d="M121 0v700h117v-229q3 4 10 10.5t32.5 17.5t54.5 11q70 0 117 -50.5t47 -121.5v-176q0 -72 -47 -121t-117 -49q-32 0 -58 12t-36 24l-10 13l-4 -41h-106zM382 158v184q0 26 -21 45.5t-51 19.5q-29 0 -50.5 -19.5t-21.5 -45.5v-184q0 -26 22 -45.5t51 -19.5t50 19.5
t21 45.5z" />
    <glyph glyph-name="c" unicode="c" 
d="M137 159v182q0 74 49 121.5t143 47.5q28 0 61.5 -4t53.5 -8l20 -5v-104q-78 19 -128 19q-44 0 -63 -20.5t-19 -52.5v-170q0 -31 20.5 -52t61.5 -21q23 0 57 7.5t57 14.5l23 8v-106q-76 -26 -146 -26q-93 0 -141.5 48t-48.5 121z" />
    <glyph glyph-name="d" unicode="d" 
d="M479 700v-700h-106l-4 41l-11 -13.5t-34 -22t-59 -13.5q-70 0 -117 49t-47 121v176q0 71 47 121.5t117 50.5q29 0 53.5 -10t33.5 -20l10 -9v229h117zM218 342v-184q0 -26 21 -45.5t50 -19.5t51 19.5t22 45.5v184q0 26 -21.5 45.5t-50.5 19.5q-30 0 -51 -19.5t-21 -45.5z
" />
    <glyph glyph-name="e" unicode="e" 
d="M237 339v-33h144v33q0 30 -20 49.5t-53 19.5q-32 0 -51.5 -19.5t-19.5 -49.5zM120 159v182q0 73 50.5 121t136.5 48q84 0 135 -48t51 -121v-133h-256v-43q0 -31 20 -52t62 -21q24 0 60.5 8t60.5 16l25 7v-108q-90 -25 -156 -25q-93 0 -141 47.5t-48 121.5z" />
    <glyph glyph-name="f" unicode="f" 
d="M106 399v101h106v64q0 65 43 105.5t113 40.5q24 0 55.5 -2t50.5 -4l20 -2v-102q-74 10 -115 10q-50 0 -50 -43v-67h153v-101h-153v-399h-117v399h-106z" />
    <glyph glyph-name="g" unicode="g" 
d="M223 342v-174q0 -26 21 -45.5t51 -19.5q29 0 50.5 19.5t21.5 45.5v174q0 26 -22 45.5t-51 19.5t-50 -19.5t-21 -45.5zM367 -18v60q-4 -5 -11 -12t-32 -18.5t-54 -11.5q-70 0 -117 50.5t-47 121.5v166q0 72 47 121t117 49q32 0 58 -12t36 -24l10 -13l4 41h106v-523
q0 -74 -47.5 -120.5t-139.5 -46.5q-35 0 -73 6t-58 12l-21 7v102q81 -26 147 -26q75 0 75 71z" />
    <glyph glyph-name="h" unicode="h" 
d="M382 0v340q0 27 -19 47t-47 20q-35 0 -56.5 -21.5t-21.5 -52.5v-333h-117v700h117v-229l11 10.5t33.5 17.5t56.5 11q68 0 114 -49.5t46 -122.5v-338h-117z" />
    <glyph glyph-name="i" unicode="i" 
d="M120 398v102h260v-398h145v-102h-415v102h152v296h-142zM262 572v128h118v-128h-118z" />
    <glyph glyph-name="j" unicode="j" 
d="M155 397v103h262v-545q0 -62 -40.5 -103.5t-104.5 -41.5q-22 0 -48 4t-41 8l-15 3v104q49 -15 92 -15q17 0 28 11t11 28v444h-144zM299 572v128h118v-128h-118z" />
    <glyph glyph-name="k" unicode="k" 
d="M399 0l-161 255v-255h-117v700h117v-432l148 232h143l-159 -240l173 -260h-144z" />
    <glyph glyph-name="l" unicode="l" 
d="M130 598v102h250v-598h145v-102h-415v102h152v496h-132z" />
    <glyph glyph-name="m" unicode="m" 
d="M447 0v351q0 54 -39 54q-20 0 -35 -19t-15 -52v-334h-108v351q0 26 -10.5 40t-28.5 14q-21 0 -36.5 -19.5t-15.5 -51.5v-334h-112v500h98l7 -47q3 6 10 15t31.5 24t52.5 15q26 0 46.5 -11.5t28.5 -23.5l8 -11q3 5 10 12.5t31.5 20.5t53.5 13q65 0 99 -43.5t34 -119.5
v-344h-110z" />
    <glyph glyph-name="n" unicode="n" 
d="M381 0v340q0 27 -19 47t-47 20q-35 0 -56.5 -21.5t-21.5 -52.5v-333h-117v500h106l4 -44q4 6 11.5 15t35.5 23.5t61 14.5q68 0 114 -49t46 -122v-338h-117z" />
    <glyph glyph-name="o" unicode="o" 
d="M487 339v-178q0 -73 -51.5 -122t-134.5 -49q-84 0 -136 49t-52 122v178q0 73 52 122t136 49q83 0 134.5 -49t51.5 -122zM369 158v184q0 26 -19.5 45.5t-49.5 19.5q-28 0 -49 -19.5t-21 -45.5v-184q0 -26 21 -45.5t50 -19.5t48.5 19.5t19.5 45.5z" />
    <glyph glyph-name="p" unicode="p" 
d="M121 -180v680h106l4 -41l11 13.5t34 22t59 13.5q70 0 117 -49t47 -121v-176q0 -71 -47 -121.5t-117 -50.5q-29 0 -53.5 10t-33.5 20l-10 9v-209h-117zM382 158v184q0 26 -21 45.5t-50 19.5t-51 -19.5t-22 -45.5v-184q0 -26 21.5 -45.5t50.5 -19.5q30 0 51 19.5t21 45.5z
" />
    <glyph glyph-name="q" unicode="q" 
d="M218 342v-184q0 -26 21 -45.5t51 -19.5q29 0 50.5 19.5t21.5 45.5v184q0 26 -22 45.5t-51 19.5t-50 -19.5t-21 -45.5zM479 500v-680h-117v209q-3 -4 -10 -10.5t-32.5 -17.5t-54.5 -11q-70 0 -117 50.5t-47 121.5v176q0 72 47 121t117 49q32 0 58 -12t36 -24l10 -13l4 41
h106z" />
    <glyph glyph-name="r" unicode="r" 
d="M95 397v103h228l4 -58q1 3 4 7.5t13.5 16t24.5 20.5t38.5 16t53.5 7q18 0 40 -2t35 -4l14 -2v-100q-40 7 -89 7q-60 0 -94.5 -43t-34.5 -121v-142h163v-102h-415v102h135v295h-120z" />
    <glyph glyph-name="s" unicode="s" 
d="M284 92q29 0 50 12.5t21 38.5q0 23 -23.5 39t-57 28.5t-67 28t-57 47.5t-23.5 77q0 66 52.5 106.5t132.5 40.5q32 0 66.5 -5t53.5 -11l18 -5v-105q-81 24 -137 24q-33 0 -50.5 -11.5t-17.5 -27.5q0 -20 23.5 -34t56.5 -26t66.5 -28.5t57 -50t23.5 -80.5q0 -69 -51 -114.5
t-141 -45.5q-35 0 -72 7t-56 15l-20 7v110q74 -37 152 -37z" />
    <glyph glyph-name="t" unicode="t" 
d="M83 399v101h91v109h117v-109h197v-101h-197v-256q0 -24 13.5 -37.5t50.5 -13.5q24 0 53.5 3.5t47.5 6.5l17 4v-100q-61 -15 -137 -15q-162 0 -162 147v261h-91z" />
    <glyph glyph-name="u" unicode="u" 
d="M228 500v-340q0 -27 19 -47t47 -20q35 0 56.5 21.5t21.5 52.5v333h117v-500h-106l-6 48q-4 -6 -13 -15.5t-39 -25.5t-65 -16q-64 0 -106.5 48t-42.5 123v338h117z" />
    <glyph glyph-name="v" unicode="v" 
d="M193 500l91 -309l13 -67h6l13 67l90 309h117l-154 -500h-139l-154 500h117z" />
    <glyph glyph-name="w" unicode="w" 
d="M237 365h126l49 -284h7l2 73l22 346h113l-52 -500h-153l-44 246l-4 45h-6l-4 -45l-43 -246h-154l-52 500h113l22 -346l2 -73h8z" />
    <glyph glyph-name="x" unicode="x" 
d="M229 500l71 -141l70 141h134l-137 -244l141 -256h-131l-77 151l-77 -151h-132l141 256l-136 244h133z" />
    <glyph glyph-name="y" unicode="y" 
d="M193 500l106 -321l107 321h125l-248 -680h-119l76 209l-172 471h125z" />
    <glyph glyph-name="z" unicode="z" 
d="M486 399l-239 -298h243v-101h-381v99l237 299h-225v102h365v-101z" />
    <glyph glyph-name="braceleft" unicode="{" 
d="M436 -74v-116q-93 0 -158 56t-65 136v166q0 17 -14 28t-35 11v106q21 0 35 12t14 28v166q0 79 65 135t158 56v-116q-44 0 -76 -22t-32 -54v-175q0 -48 -37 -83q37 -35 37 -83v-177q0 -31 32 -52.5t76 -21.5z" />
    <glyph glyph-name="bar" unicode="|" 
d="M241 -180v880h117v-880h-117z" />
    <glyph glyph-name="braceright" unicode="}" 
d="M164 594v116q93 0 158 -56t65 -136v-166q0 -17 14 -28t35 -11v-106q-21 0 -35 -12t-14 -28v-166q0 -79 -65 -135t-158 -56v116q44 0 76 22t32 54v175q0 48 37 83q-37 35 -37 83v177q0 31 -32 52.5t-76 21.5z" />
    <glyph glyph-name="asciitilde" unicode="~" 
d="M71 189v117q6 5 18 12.5t47.5 20.5t71.5 13q42 0 103 -26.5t86 -26.5q21 0 54 15.5t55 30.5l23 15v-116q-6 -5 -17.5 -12.5t-46 -20t-68.5 -12.5q-43 0 -108 26.5t-81 26.5q-28 0 -62 -16t-54 -32z" />
    <glyph glyph-name="exclamdown" unicode="&#xa1;" 
d="M362 138v-339h-125v339l10 157h105zM363 499v-128h-127v128h127z" />
    <glyph glyph-name="cent" unicode="&#xa2;" 
d="M243 -47v44q-59 15 -95 60.5t-36 104.5v178q0 58 36 102.5t95 60.5v44h120v-46q56 -20 88.5 -67t32.5 -112h-116q0 36 -20 59.5t-48 23.5q-29 0 -50 -19.5t-21 -45.5v-182q0 -26 21 -45t50 -19t49.5 25t20.5 62h118q0 -69 -34 -117.5t-91 -65.5v-45h-120z" />
    <glyph glyph-name="sterling" unicode="&#xa3;" 
d="M508 108v-108h-405v108h51v158h-63v108h63v167q0 72 51 120.5t125 48.5q73 0 124 -48.5t51 -120.5v-25h-117v34q0 21 -17 36.5t-40 15.5q-24 0 -41.5 -15.5t-17.5 -36.5v-176h121v-108h-121v-158h236z" />
    <glyph glyph-name="currency" unicode="&#xa4;" 
d="M467 26l-63 60q-49 -29 -102 -29q-56 0 -107 28l-60 -60l-84 83l61 60q-26 46 -26 99q0 65 26 110l-61 62l85 84l60 -61q50 26 100 26q56 0 108 -25l62 58l83 -82l-59 -62q26 -49 26 -104q0 -50 -26 -104l59 -61zM203 273q0 -39 29 -68t70 -29q39 0 67 28.5t28 68.5
q0 39 -27.5 68t-65.5 29q-42 0 -71.5 -28t-29.5 -69z" />
    <glyph glyph-name="yen" unicode="&#xa5;" 
d="M97 297v100h100l-130 303h130l103 -273l102 273h130l-131 -303h103v-100h-144v-60h144v-100h-144v-137h-121v137h-142v100h142v60h-142z" />
    <glyph glyph-name="brokenbar" unicode="&#xa6;" 
d="M238 328v372h123v-372h-123zM238 -180v369h123v-369h-123z" />
    <glyph glyph-name="section" unicode="&#xa7;" 
d="M383 305q0 14 -10 27.5t-29.5 25t-37.5 20.5t-44 20.5t-39 18.5q-7 -10 -7 -24q0 -18 18 -35t38.5 -27.5t54.5 -26t47 -22.5q9 9 9 23zM298 103q27 0 40.5 10.5t13.5 23.5q0 18 -26.5 34.5t-64 33t-75.5 38t-64.5 59t-26.5 85.5q0 30 12 57.5t24 39.5l12 13
q-18 32 -18 65q0 63 46.5 105.5t129.5 42.5q47 0 90 -10.5t62 -21.5l19 -10v-117q-99 46 -172 46q-27 0 -39 -11t-12 -25q0 -18 26.5 -34.5t64 -33t75 -38t64 -58.5t26.5 -85q0 -31 -12 -59t-24 -40l-12 -12q19 -27 19 -65q0 -62 -46.5 -104t-128.5 -42q-48 0 -94 11.5
t-67 22.5l-22 12v124q99 -57 180 -57z" />
    <glyph glyph-name="dieresis" unicode="&#xa8;" 
d="M136 572v128h118v-128h-118zM346 572v128h118v-128h-118z" />
    <glyph glyph-name="copyright" unicode="&#xa9;" 
d="M181 284v134q0 54 32.5 88t96.5 34q21 0 43.5 -3t34.5 -6l12 -3v-80q-56 13 -84 13q-30 0 -44 -14.5t-14 -36.5v-116q0 -22 14.5 -37.5t43.5 -15.5q15 0 37.5 5.5t37.5 11.5l15 5v-79q-49 -20 -97 -20q-63 0 -95.5 33.5t-32.5 86.5zM300 710q123 0 200 -79.5t77 -196.5
v-168q0 -117 -77 -196.5t-200 -79.5q-122 0 -199 79.5t-77 196.5v168q0 117 77 196.5t199 79.5zM300 65q88 0 141 57t53 141v175q0 84 -53 140.5t-141 56.5t-141.5 -57t-53.5 -140v-175q0 -83 53.5 -140.5t141.5 -57.5z" />
    <glyph glyph-name="ordfeminine" unicode="&#xaa;" 
d="M360 390l-3 22q-24 -27 -70 -27q-44 0 -77 29t-33 73q0 42 32.5 71.5t82.5 32.5l64 4v7q0 20 -14 35t-39 15q-18 0 -42.5 -4t-39.5 -8l-15 -3v60q50 13 97 13q61 0 90 -29.5t29 -75.5v-215h-62zM295 443q25 0 43 14t18 35v45q-23 -2 -63 -5q-24 -1 -38 -14t-14 -31
t15 -31t39 -13zM422 340v-58h-240v58h240z" />
    <glyph glyph-name="guillemotleft" unicode="&#xab;" 
d="M310 120h-144l-129 167l129 168h142l-128 -168zM563 120h-145l-129 167l129 168h142l-129 -168z" />
    <glyph glyph-name="logicalnot" unicode="&#xac;" 
d="M529 435v-299h-117v185h-341v114h458z" />
    <glyph glyph-name="uni00AD" unicode="&#xad;" 
 />
    <glyph glyph-name="registered" unicode="&#xae;" 
d="M340 341l-28 69h-32v-69h-58v241h96q30 0 50 -19t20 -47v-40q0 -32 -23 -49l39 -86h-64zM330 476v32q0 16 -21 16h-30v-63h30q21 0 21 15zM300 709q88 0 149.5 -56.5t61.5 -136.5v-118q0 -80 -61.5 -136.5t-149.5 -56.5q-87 0 -148.5 56.5t-61.5 136.5v118
q0 80 61.5 136.5t148.5 56.5zM300 267q60 0 102.5 39t42.5 93v117q0 54 -42.5 92t-102.5 38t-102.5 -38.5t-42.5 -91.5v-117q0 -54 42.5 -93t102.5 -39z" />
    <glyph glyph-name="macron" unicode="&#xaf;" 
d="M160 584v96h279v-96h-279z" />
    <glyph glyph-name="degree" unicode="&#xb0;" 
d="M134 547q0 68 49 117t117 49t117 -49t49 -117t-49 -117t-117 -49t-117 49t-49 117zM237 547q0 -26 18.5 -44.5t43.5 -18.5q26 0 45 18.5t19 44.5t-19 44.5t-45 18.5q-25 0 -43.5 -18.5t-18.5 -44.5z" />
    <glyph glyph-name="plusminus" unicode="&#xb1;" 
d="M239 523h121v-115h169v-118h-169v-116h-121v116h-170v118h170v115zM530 118v-118h-461v118h461z" />
    <glyph glyph-name="twosuperior" unicode="&#xb2;" 
d="M176 576v102q59 32 120 32q56 0 93 -36t37 -95q0 -60 -67 -139l-56 -66h127v-97h-260v87l124 148q33 40 33 67q0 16 -11 26t-30 10q-17 0 -44.5 -9.5t-46.5 -19.5z" />
    <glyph glyph-name="threesuperior" unicode="&#xb3;" 
d="M255 456v88h44q12 0 19.5 7t7.5 17v21q0 28 -41 28q-19 0 -45.5 -5.5t-43.5 -10.5l-18 -5v94q62 20 119 20q59 0 94 -33t35 -85v-18q0 -20 -7.5 -37t-14.5 -25l-8 -7q4 -2 10 -7t15.5 -24.5t9.5 -44.5v-34q0 -58 -37.5 -93t-103.5 -35q-32 0 -62.5 6.5t-45.5 12.5l-14 6
v100q59 -32 114 -32q24 0 36.5 11t12.5 25v30q0 12 -9.5 21t-22.5 9h-44z" />
    <glyph glyph-name="acute" unicode="&#xb4;" 
d="M269 555h-96l105 155h149z" />
    <glyph glyph-name="mu" unicode="&#xb5;" 
d="M111 -180v680h117v-333q0 -31 19 -52.5t50 -21.5q34 0 54.5 21t20.5 53v333h117v-500h-106l-4 44q-4 -6 -10.5 -14.5t-28.5 -23t-45 -14.5q-22 0 -39.5 7t-23.5 13l-6 7v-199h-115z" />
    <glyph glyph-name="paragraph" unicode="&#xb6;" 
d="M250 -180v488q-70 13 -119 67t-49 125q0 84 60 142t144 58h232v-880h-76v767h-68v-767h-124z" />
    <glyph glyph-name="periodcentered" unicode="&#xb7;" 
d="M236 223v128h127v-128h-127z" />
    <glyph glyph-name="cedilla" unicode="&#xb8;" 
d="M218 -180v56q39 -10 58 -10q13 0 20 7.5t7 17.5q0 8 -6 15.5t-16 8.5l-53 8l23 77h73l-10 -31q30 -4 48.5 -25t18.5 -52q0 -36 -27 -59t-66 -23q-15 0 -32.5 2.5t-27.5 5.5z" />
    <glyph glyph-name="onesuperior" unicode="&#xb9;" 
d="M214 559v101l88 40h84v-423h-102v312z" />
    <glyph glyph-name="ordmasculine" unicode="&#xba;" 
d="M422 605v-116q0 -45 -34 -75t-87 -30q-54 0 -89 30t-35 75v116q0 45 35 75t89 30q53 0 87 -30t34 -75zM357 489v116q0 18 -17 32t-40 14q-22 0 -38.5 -14t-16.5 -32v-116q0 -18 16.5 -33t39.5 -15q22 0 39 15t17 33zM422 340v-58h-237v58h237z" />
    <glyph glyph-name="guillemotright" unicode="&#xbb;" 
d="M434 120h-144l130 167l-128 168h142l129 -168zM182 120h-145l132 167l-129 168h142l129 -168z" />
    <glyph glyph-name="onequarter" unicode="&#xbc;" 
d="M308 69v75l113 238h95l-111 -232h45v52h86v-52h28v-81h-28v-69h-86v69h-142zM96 0l281 700h75l-280 -700h-76zM30 573v91l79 36h72v-377h-88v277z" />
    <glyph glyph-name="onehalf" unicode="&#xbd;" 
d="M88 0l281 700h75l-280 -700h-76zM22 573v91l79 36h72v-377h-88v277zM342 269v92q53 29 108 29q50 0 83.5 -32.5t33.5 -85.5q0 -24 -11.5 -50.5t-21 -39.5t-28.5 -35l-50 -60h114v-87h-234v78l112 133q30 37 30 61q0 15 -10 23.5t-27 8.5q-16 0 -40.5 -9t-41.5 -17z" />
    <glyph glyph-name="threequarters" unicode="&#xbe;" 
d="M331 69v75l113 238h95l-111 -232h45v52h86v-52h28v-81h-28v-69h-86v69h-142zM128 0l281 700h75l-280 -700h-76zM88 482v79h36q10 0 16 6.5t6 14.5v19q0 25 -34 25q-15 0 -36 -4.5t-34 -9.5l-13 -4v84q49 18 96 18q48 0 76.5 -29.5t28.5 -76.5v-16q0 -18 -6 -33.5
t-12 -22.5l-7 -6q28 -18 28 -69v-30q0 -53 -30 -84.5t-84 -31.5q-26 0 -50.5 5.5t-36.5 10.5l-11 5v87q44 -24 89 -24q20 0 29.5 9.5t9.5 23.5v27q0 11 -7.5 19t-17.5 8h-36z" />
    <glyph glyph-name="questiondown" unicode="&#xbf;" 
d="M302 -210q-83 0 -139.5 50t-56.5 136q0 38 12 68t30 47.5l38.5 37.5l38.5 39t30 52t12 76h106q0 -58 -14.5 -103t-35.5 -71t-41.5 -47.5t-35 -45t-14.5 -51.5q0 -33 24 -56.5t63 -23.5q33 0 76.5 16t70.5 32l27 15v-114l-27 -15.5t-67.5 -25.5t-96.5 -16zM384 500v-128
h-127v128h127z" />
    <glyph glyph-name="Agrave" unicode="&#xc0;" 
d="M429 0l-39 179h-180l-39 -179h-119l170 700h156l170 -700h-119zM298 584l-63 -294h131l-64 294h-4zM357 755h-96l-158 155h149z" />
    <glyph glyph-name="Aacute" unicode="&#xc1;" 
d="M429 0l-39 179h-180l-39 -179h-119l170 700h156l170 -700h-119zM298 584l-63 -294h131l-64 294h-4zM335 755h-96l105 155h149z" />
    <glyph glyph-name="Acircumflex" unicode="&#xc2;" 
d="M429 0l-39 179h-180l-39 -179h-119l170 700h156l170 -700h-119zM298 584l-63 -294h131l-64 294h-4zM474 755h-99l-76 79l-77 -79h-97l120 155h107z" />
    <glyph glyph-name="Atilde" unicode="&#xc3;" 
d="M429 0l-39 179h-180l-39 -179h-119l170 700h156l170 -700h-119zM298 584l-63 -294h131l-64 294h-4zM214 771h-74q0 48 28 86t68 38q26 0 67.5 -20.5t54.5 -20.5q11 0 19 12.5t8 24.5h74q0 -48 -27.5 -86t-66.5 -38q-26 0 -67 20t-55 20q-11 0 -20 -11.5t-9 -24.5z" />
    <glyph glyph-name="Adieresis" unicode="&#xc4;" 
d="M429 0l-39 179h-180l-39 -179h-119l170 700h156l170 -700h-119zM298 584l-63 -294h131l-64 294h-4zM136 772v128h118v-128h-118zM346 772v128h118v-128h-118z" />
    <glyph glyph-name="Aring" unicode="&#xc5;" 
d="M429 0l-39 179h-180l-39 -179h-119l170 700h156l170 -700h-119zM298 584l-63 -294h131l-64 294h-4zM187 838q0 41 31.5 67t79.5 26q47 0 80.5 -26.5t33.5 -66.5t-33.5 -66.5t-80.5 -26.5q-48 0 -79.5 26.5t-31.5 66.5zM264 839q0 -13 10 -22.5t24 -9.5q15 0 25 9.5
t10 22.5q0 12 -10 21.5t-25 9.5q-14 0 -24 -9.5t-10 -21.5z" />
    <glyph glyph-name="AE" unicode="&#xc6;" 
d="M172 700h390v-109h-162v-169h139v-108h-139v-205h170v-109h-286v199h-106l-40 -199h-122zM258 591l-57 -282h83v282h-26z" />
    <glyph glyph-name="Ccedilla" unicode="&#xc7;" 
d="M262 -180v56q39 -10 58 -10q13 0 20 7.5t7 17.5q0 8 -6 15.5t-16 8.5l-53 8l21 70q-83 10 -135 63t-52 131v328q0 86 61.5 140.5t160.5 54.5q42 0 85.5 -9.5t65.5 -18.5l22 -10v-113q-102 43 -174 43q-47 0 -74.5 -24t-27.5 -63v-328q0 -38 28 -63t74 -25q33 0 79.5 13
t76.5 26l30 13v-115q-63 -34 -148 -43l-7 -24q30 -4 48.5 -25t18.5 -52q0 -36 -27 -59t-66 -23q-15 0 -32.5 2.5t-27.5 5.5z" />
    <glyph glyph-name="Egrave" unicode="&#xc8;" 
d="M119 700h373v-109h-256v-169h233v-108h-233v-205h264v-109h-381v700zM393 755h-96l-158 155h149z" />
    <glyph glyph-name="Eacute" unicode="&#xc9;" 
d="M119 700h373v-109h-256v-169h233v-108h-233v-205h264v-109h-381v700zM327 755h-96l105 155h149z" />
    <glyph glyph-name="Ecircumflex" unicode="&#xca;" 
d="M119 700h373v-109h-256v-169h233v-108h-233v-205h264v-109h-381v700zM489 755h-99l-76 79l-77 -79h-97l120 155h107z" />
    <glyph glyph-name="Edieresis" unicode="&#xcb;" 
d="M119 700h373v-109h-256v-169h233v-108h-233v-205h264v-109h-381v700zM154 772v128h118v-128h-118zM364 772v128h118v-128h-118z" />
    <glyph glyph-name="Igrave" unicode="&#xcc;" 
d="M93 592v108h414v-108h-147v-483h147v-109h-414v109h147v483h-147zM356 755h-96l-158 155h149z" />
    <glyph glyph-name="Iacute" unicode="&#xcd;" 
d="M93 592v108h414v-108h-147v-483h147v-109h-414v109h147v483h-147zM339 755h-96l105 155h149z" />
    <glyph glyph-name="Icircumflex" unicode="&#xce;" 
d="M92 592v108h414v-108h-147v-483h147v-109h-414v109h147v483h-147zM474 755h-99l-76 79l-77 -79h-97l120 155h107z" />
    <glyph glyph-name="Idieresis" unicode="&#xcf;" 
d="M93 592v108h414v-108h-147v-483h147v-109h-414v109h147v483h-147zM136 772v128h118v-128h-118zM346 772v128h118v-128h-118z" />
    <glyph glyph-name="Eth" unicode="&#xd0;" 
d="M61 314v108h58v278h201q85 0 145 -56t60 -136v-316q0 -80 -60 -136t-145 -56h-201v314h-58zM404 191v316q0 35 -25 58.5t-62 23.5h-80v-167h87v-108h-87v-205h80q37 0 62 23.5t25 58.5z" />
    <glyph glyph-name="Ntilde" unicode="&#xd1;" 
d="M399 700h109v-700h-129l-182 499h-4l8 -130v-369h-109v700h128l184 -501h4l-9 134v367zM214 771h-74q0 48 28 86t68 38q26 0 67.5 -20.5t54.5 -20.5q11 0 19 12.5t8 24.5h74q0 -48 -27.5 -86t-66.5 -38q-26 0 -67 20t-55 20q-11 0 -20 -11.5t-9 -24.5z" />
    <glyph glyph-name="Ograve" unicode="&#xd2;" 
d="M204 514v-328q0 -38 27 -63t68 -25q40 0 67 25t27 62v329q0 38 -27 63t-67 25q-41 0 -68 -25t-27 -63zM86 186v328q0 85 61.5 140.5t151.5 55.5q89 0 151.5 -55.5t62.5 -140.5v-328q0 -85 -62.5 -140.5t-151.5 -55.5q-90 0 -151.5 55.5t-61.5 140.5zM353 755h-96
l-158 155h149z" />
    <glyph glyph-name="Oacute" unicode="&#xd3;" 
d="M204 514v-328q0 -38 27 -63t68 -25q40 0 67 25t27 62v329q0 38 -27 63t-67 25q-41 0 -68 -25t-27 -63zM86 186v328q0 85 61.5 140.5t151.5 55.5q89 0 151.5 -55.5t62.5 -140.5v-328q0 -85 -62.5 -140.5t-151.5 -55.5q-90 0 -151.5 55.5t-61.5 140.5zM340 755h-96l105 155
h149z" />
    <glyph glyph-name="Ocircumflex" unicode="&#xd4;" 
d="M204 514v-328q0 -38 27 -63t68 -25q40 0 67 25t27 62v329q0 38 -27 63t-67 25q-41 0 -68 -25t-27 -63zM86 186v328q0 85 61.5 140.5t151.5 55.5q89 0 151.5 -55.5t62.5 -140.5v-328q0 -85 -62.5 -140.5t-151.5 -55.5q-90 0 -151.5 55.5t-61.5 140.5zM474 755h-99l-76 79
l-77 -79h-97l120 155h107z" />
    <glyph glyph-name="Otilde" unicode="&#xd5;" 
d="M204 514v-328q0 -38 27 -63t68 -25q40 0 67 25t27 62v329q0 38 -27 63t-67 25q-41 0 -68 -25t-27 -63zM86 186v328q0 85 61.5 140.5t151.5 55.5q89 0 151.5 -55.5t62.5 -140.5v-328q0 -85 -62.5 -140.5t-151.5 -55.5q-90 0 -151.5 55.5t-61.5 140.5zM214 771h-74
q0 48 28 86t68 38q26 0 67.5 -20.5t54.5 -20.5q11 0 19 12.5t8 24.5h74q0 -48 -27.5 -86t-66.5 -38q-26 0 -67 20t-55 20q-11 0 -20 -11.5t-9 -24.5z" />
    <glyph glyph-name="Odieresis" unicode="&#xd6;" 
d="M204 514v-328q0 -38 27 -63t68 -25q40 0 67 25t27 62v329q0 38 -27 63t-67 25q-41 0 -68 -25t-27 -63zM86 186v328q0 85 61.5 140.5t151.5 55.5q89 0 151.5 -55.5t62.5 -140.5v-328q0 -85 -62.5 -140.5t-151.5 -55.5q-90 0 -151.5 55.5t-61.5 140.5zM135 772v128h118
v-128h-118zM345 772v128h118v-128h-118z" />
    <glyph glyph-name="multiply" unicode="&#xd7;" 
d="M91 414l83 83l126 -125l125 125l84 -84l-125 -126l124 -125l-83 -84l-125 126l-125 -124l-84 82l125 126z" />
    <glyph glyph-name="Oslash" unicode="&#xd8;" 
d="M99 20l24 51q-37 51 -37 115v328q0 85 61.5 140.5t151.5 55.5q64 0 117 -31l15 31l68 -33l-24 -50q38 -49 38 -113v-328q0 -85 -62.5 -140.5t-151.5 -55.5q-66 0 -116 29l-15 -31zM204 514v-276l163 338q-28 26 -68 26q-41 0 -68 -25t-27 -63zM299 98q40 0 67 25t27 62
v271l-161 -334q27 -24 67 -24z" />
    <glyph glyph-name="Ugrave" unicode="&#xd9;" 
d="M394 700h120v-513q0 -85 -62.5 -140.5t-151.5 -55.5q-90 0 -152 55.5t-62 140.5v513h119v-513q0 -38 27 -63t68 -25q40 0 67 25t27 62v514zM361 755h-96l-158 155h149z" />
    <glyph glyph-name="Uacute" unicode="&#xda;" 
d="M394 700h120v-513q0 -85 -62.5 -140.5t-151.5 -55.5q-90 0 -152 55.5t-62 140.5v513h119v-513q0 -38 27 -63t68 -25q40 0 67 25t27 62v514zM343 755h-96l105 155h149z" />
    <glyph glyph-name="Ucircumflex" unicode="&#xdb;" 
d="M394 700h120v-513q0 -85 -62.5 -140.5t-151.5 -55.5q-90 0 -152 55.5t-62 140.5v513h119v-513q0 -38 27 -63t68 -25q40 0 67 25t27 62v514zM474 755h-99l-76 79l-77 -79h-97l120 155h107z" />
    <glyph glyph-name="Udieresis" unicode="&#xdc;" 
d="M394 700h120v-513q0 -85 -62.5 -140.5t-151.5 -55.5q-90 0 -152 55.5t-62 140.5v513h119v-513q0 -38 27 -63t68 -25q40 0 67 25t27 62v514zM136 772v128h118v-128h-118zM346 772v128h118v-128h-118z" />
    <glyph glyph-name="Yacute" unicode="&#xdd;" 
d="M179 700l121 -273l120 273h130l-190 -400v-300h-121v301l-190 399h130zM344 755h-96l105 155h149z" />
    <glyph glyph-name="Thorn" unicode="&#xde;" 
d="M124 0v700h128v-94h84q72 0 122.5 -49.5t50.5 -119.5v-136q0 -70 -50.5 -119.5t-122.5 -49.5h-84v-132h-128zM379 295v145q0 20 -14 34t-34 14h-79v-239h79q20 0 34 13.5t14 32.5z" />
    <glyph glyph-name="germandbls" unicode="&#xdf;" 
d="M370 93q29 0 44 15.5t15 38.5q0 25 -24.5 52.5t-54 49.5t-54 60t-24.5 82q0 45 33.5 81t82.5 49q0 37 -26 62.5t-62 25.5q-48 0 -72.5 -28t-24.5 -73v-508h-117v510q0 85 56 142.5t152 57.5q77 0 139 -51t62 -132v-72q-4 0 -11 -1t-25 -5t-31.5 -10t-24.5 -19t-11 -30
t16.5 -36.5t39.5 -39t46 -42.5t39.5 -57.5t16.5 -73.5q0 -65 -47 -108t-128 -43q-32 0 -62.5 7t-44.5 15l-14 7v106q57 -32 116 -32z" />
    <glyph glyph-name="agrave" unicode="&#xe0;" 
d="M376 0l-4 43q-5 -6 -14 -14.5t-42 -23t-71 -14.5q-62 0 -104 42.5t-42 112.5q0 75 46.5 118.5t121.5 50.5l99 9v14q0 30 -19 50t-54 20q-31 0 -69 -6t-60 -12l-22 -7v102q82 25 152 25q92 0 139.5 -47.5t47.5 -121.5v-341h-105zM278 88q33 0 60.5 23t27.5 54v60l-83 -7
q-71 -6 -71 -66q0 -28 16.5 -46t49.5 -18zM354 555h-96l-158 155h149z" />
    <glyph glyph-name="aacute" unicode="&#xe1;" 
d="M375 0l-4 43q-5 -6 -14 -14.5t-42 -23t-71 -14.5q-62 0 -104 42.5t-42 112.5q0 75 46.5 118.5t121.5 50.5l99 9v14q0 30 -19 50t-54 20q-31 0 -69 -6t-60 -12l-22 -7v102q82 25 152 25q92 0 139.5 -47.5t47.5 -121.5v-341h-105zM277 88q33 0 60.5 23t27.5 54v60l-83 -7
q-71 -6 -71 -66q0 -28 16.5 -46t49.5 -18zM330 555h-96l105 155h149z" />
    <glyph glyph-name="acircumflex" unicode="&#xe2;" 
d="M376 0l-4 43q-5 -6 -14 -14.5t-42 -23t-71 -14.5q-62 0 -104 42.5t-42 112.5q0 75 46.5 118.5t121.5 50.5l99 9v14q0 30 -19 50t-54 20q-31 0 -69 -6t-60 -12l-22 -7v102q82 25 152 25q92 0 139.5 -47.5t47.5 -121.5v-341h-105zM278 88q33 0 60.5 23t27.5 54v60l-83 -7
q-71 -6 -71 -66q0 -28 16.5 -46t49.5 -18zM472 555h-99l-76 79l-77 -79h-97l120 155h107z" />
    <glyph glyph-name="atilde" unicode="&#xe3;" 
d="M376 0l-4 43q-5 -6 -14 -14.5t-42 -23t-71 -14.5q-62 0 -104 42.5t-42 112.5q0 75 46.5 118.5t121.5 50.5l99 9v14q0 30 -19 50t-54 20q-31 0 -69 -6t-60 -12l-22 -7v102q82 25 152 25q92 0 139.5 -47.5t47.5 -121.5v-341h-105zM278 88q33 0 60.5 23t27.5 54v60l-83 -7
q-71 -6 -71 -66q0 -28 16.5 -46t49.5 -18zM205 571h-74q0 48 28 86t68 38q26 0 67.5 -20.5t54.5 -20.5q11 0 19 12.5t8 24.5h74q0 -48 -27.5 -86t-66.5 -38q-26 0 -67 20t-55 20q-12 0 -20.5 -11.5t-8.5 -24.5z" />
    <glyph glyph-name="adieresis" unicode="&#xe4;" 
d="M376 0l-4 43q-5 -6 -14 -14.5t-42 -23t-71 -14.5q-62 0 -104 42.5t-42 112.5q0 75 46.5 118.5t121.5 50.5l99 9v14q0 30 -19 50t-54 20q-31 0 -69 -6t-60 -12l-22 -7v102q82 25 152 25q92 0 139.5 -47.5t47.5 -121.5v-341h-105zM278 88q33 0 60.5 23t27.5 54v60l-83 -7
q-71 -6 -71 -66q0 -28 16.5 -46t49.5 -18zM129 572v128h118v-128h-118zM339 572v128h118v-128h-118z" />
    <glyph glyph-name="aring" unicode="&#xe5;" 
d="M376 0l-4 43q-5 -6 -14 -14.5t-42 -23t-71 -14.5q-62 0 -104 42.5t-42 112.5q0 75 46.5 118.5t121.5 50.5l99 9v14q0 30 -19 50t-54 20q-31 0 -69 -6t-60 -12l-22 -7v102q82 25 152 25q92 0 139.5 -47.5t47.5 -121.5v-341h-105zM278 88q33 0 60.5 23t27.5 54v60l-83 -7
q-71 -6 -71 -66q0 -28 16.5 -46t49.5 -18zM179 638q0 41 31.5 67t79.5 26q47 0 80.5 -26.5t33.5 -66.5t-33.5 -66.5t-80.5 -26.5q-48 0 -79.5 26.5t-31.5 66.5zM256 639q0 -13 10 -22.5t24 -9.5q15 0 25 9.5t10 22.5q0 12 -10 21.5t-25 9.5q-14 0 -24 -9.5t-10 -21.5z" />
    <glyph glyph-name="ae" unicode="&#xe6;" 
d="M414 -10q-32 0 -59.5 10.5t-39.5 21.5l-12 10q-47 -42 -109 -42q-64 0 -109 42.5t-45 121.5q0 70 42.5 107.5t112.5 42.5l56 4v35q0 66 -66 66q-21 0 -47.5 -5.5t-43.5 -11.5l-16 -5v101q65 22 125 22q31 0 56.5 -10.5t36.5 -21.5l10 -10q4 5 11.5 12t34 18.5t55.5 11.5
q73 0 112.5 -49t39.5 -123v-129h-202v-63q0 -24 16.5 -39.5t51.5 -15.5q23 0 51 5.5t45 10.5l17 5v-104q-63 -18 -124 -18zM202 91q22 0 35.5 16.5t13.5 43.5v61l-52 -3q-54 -3 -54 -54q0 -30 15.5 -47t41.5 -17zM357 341v-33h101v31q0 30 -13 50t-39 20q-25 0 -37 -19.5
t-12 -48.5z" />
    <glyph glyph-name="ccedilla" unicode="&#xe7;" 
d="M137 159v182q0 74 49 121.5t143 47.5q28 0 61.5 -4t53.5 -8l20 -5v-104q-78 19 -128 19q-44 0 -63 -20.5t-19 -52.5v-170q0 -31 20.5 -52t61.5 -21q23 0 57 7.5t57 14.5l23 8v-106q-59 -20 -120 -25l-7 -22q30 -4 48.5 -25t18.5 -52q0 -36 -27 -59t-66 -23
q-15 0 -32.5 2.5t-27.5 5.5l-10 2v56q39 -10 58 -10q13 0 20 7.5t7 17.5q0 8 -6 15.5t-16 8.5l-53 8l21 71q-71 11 -107.5 56t-36.5 109z" />
    <glyph glyph-name="egrave" unicode="&#xe8;" 
d="M237 339v-33h144v33q0 30 -20 49.5t-53 19.5q-32 0 -51.5 -19.5t-19.5 -49.5zM120 159v182q0 73 50.5 121t136.5 48q84 0 135 -48t51 -121v-133h-256v-43q0 -31 20 -52t62 -21q24 0 60.5 8t60.5 16l25 7v-108q-90 -25 -156 -25q-93 0 -141 47.5t-48 121.5zM372 555h-96
l-158 155h149z" />
    <glyph glyph-name="eacute" unicode="&#xe9;" 
d="M237 339v-33h144v33q0 30 -20 49.5t-53 19.5q-32 0 -51.5 -19.5t-19.5 -49.5zM120 159v182q0 73 50.5 121t136.5 48q84 0 135 -48t51 -121v-133h-256v-43q0 -31 20 -52t62 -21q24 0 60.5 8t60.5 16l25 7v-108q-90 -25 -156 -25q-93 0 -141 47.5t-48 121.5zM348 555h-96
l105 155h149z" />
    <glyph glyph-name="ecircumflex" unicode="&#xea;" 
d="M237 339v-33h144v33q0 30 -20 49.5t-53 19.5q-32 0 -51.5 -19.5t-19.5 -49.5zM120 159v182q0 73 50.5 121t136.5 48q84 0 135 -48t51 -121v-133h-256v-43q0 -31 20 -52t62 -21q24 0 60.5 8t60.5 16l25 7v-108q-90 -25 -156 -25q-93 0 -141 47.5t-48 121.5zM485 555h-99
l-76 79l-77 -79h-97l120 155h107z" />
    <glyph glyph-name="edieresis" unicode="&#xeb;" 
d="M237 339v-33h144v33q0 30 -20 49.5t-53 19.5q-32 0 -51.5 -19.5t-19.5 -49.5zM120 159v182q0 73 50.5 121t136.5 48q84 0 135 -48t51 -121v-133h-256v-43q0 -31 20 -52t62 -21q24 0 60.5 8t60.5 16l25 7v-108q-90 -25 -156 -25q-93 0 -141 47.5t-48 121.5zM145 572v128
h118v-128h-118zM355 572v128h118v-128h-118z" />
    <glyph glyph-name="igrave" unicode="&#xec;" 
d="M120 398v102h260v-398h145v-102h-415v102h152v296h-142zM359 555h-96l-158 155h149z" />
    <glyph glyph-name="iacute" unicode="&#xed;" 
d="M120 398v102h260v-398h145v-102h-415v102h152v296h-142zM341 555h-96l105 155h149z" />
    <glyph glyph-name="icircumflex" unicode="&#xee;" 
d="M120 398v102h260v-398h145v-102h-415v102h152v296h-142zM475 555h-99l-76 79l-77 -79h-97l120 155h107z" />
    <glyph glyph-name="idieresis" unicode="&#xef;" 
d="M120 398v102h260v-398h145v-102h-415v102h152v296h-142zM136 572v128h118v-128h-118zM346 572v128h118v-128h-118z" />
    <glyph glyph-name="eth" unicode="&#xf0;" 
d="M461 161q0 -73 -52.5 -122t-134.5 -49q-83 0 -136.5 49t-53.5 122v144q0 70 51.5 119t127.5 49q21 0 45.5 -8t35.5 -18v70l-69 -24v92l34 12q-13 8 -31 8h-74v105h74q93 0 153 -72l84 28v-92l-55 -19q1 -10 1 -35v-359zM344 158v150q0 25 -21.5 43.5t-49.5 18.5
t-49.5 -18.5t-21.5 -43.5v-150q0 -25 21.5 -44t50.5 -19q28 0 49 19t21 44z" />
    <glyph glyph-name="ntilde" unicode="&#xf1;" 
d="M381 0v340q0 27 -19 47t-47 20q-35 0 -56.5 -21.5t-21.5 -52.5v-333h-117v500h106l4 -44q4 6 11.5 15t35.5 23.5t61 14.5q68 0 114 -49t46 -122v-338h-117zM223 571h-74q0 48 28 86t68 38q26 0 67.5 -20.5t54.5 -20.5q11 0 19 12.5t8 24.5h74q0 -48 -27.5 -86t-66.5 -38
q-26 0 -67 20t-55 20q-12 0 -20.5 -11.5t-8.5 -24.5z" />
    <glyph glyph-name="ograve" unicode="&#xf2;" 
d="M489 161v178q0 73 -51.5 122t-134.5 49q-84 0 -136 -49t-52 -122v-178q0 -73 52 -122t136 -49q83 0 134.5 49t51.5 122zM371 342v-184q0 -26 -19.5 -45.5t-48.5 -19.5t-50 19.5t-21 45.5v184q0 26 21 45.5t49 19.5q30 0 49.5 -19.5t19.5 -45.5zM353 555h-96l-158 155h149
z" />
    <glyph glyph-name="oacute" unicode="&#xf3;" 
d="M487 161v178q0 73 -51.5 122t-134.5 49q-84 0 -136 -49t-52 -122v-178q0 -73 52 -122t136 -49q83 0 134.5 49t51.5 122zM369 342v-184q0 -26 -19.5 -45.5t-48.5 -19.5t-50 19.5t-21 45.5v184q0 26 21 45.5t49 19.5q30 0 49.5 -19.5t19.5 -45.5zM345 555h-96l105 155h149z
" />
    <glyph glyph-name="ocircumflex" unicode="&#xf4;" 
d="M487 161v178q0 73 -51.5 122t-134.5 49q-84 0 -136 -49t-52 -122v-178q0 -73 52 -122t136 -49q83 0 134.5 49t51.5 122zM369 342v-184q0 -26 -19.5 -45.5t-48.5 -19.5t-50 19.5t-21 45.5v184q0 26 21 45.5t49 19.5q30 0 49.5 -19.5t19.5 -45.5zM474 555h-99l-76 79
l-77 -79h-97l120 155h107z" />
    <glyph glyph-name="otilde" unicode="&#xf5;" 
d="M487 161v178q0 73 -51.5 122t-134.5 49q-84 0 -136 -49t-52 -122v-178q0 -73 52 -122t136 -49q83 0 134.5 49t51.5 122zM369 342v-184q0 -26 -19.5 -45.5t-48.5 -19.5t-50 19.5t-21 45.5v184q0 26 21 45.5t49 19.5q30 0 49.5 -19.5t19.5 -45.5zM214 571h-74q0 48 28 86
t68 38q26 0 67.5 -20.5t54.5 -20.5q11 0 19 12.5t8 24.5h74q0 -48 -27.5 -86t-66.5 -38q-26 0 -67 20t-55 20q-11 0 -20 -11.5t-9 -24.5z" />
    <glyph glyph-name="odieresis" unicode="&#xf6;" 
d="M487 161v178q0 73 -51.5 122t-134.5 49q-84 0 -136 -49t-52 -122v-178q0 -73 52 -122t136 -49q83 0 134.5 49t51.5 122zM369 342v-184q0 -26 -19.5 -45.5t-48.5 -19.5t-50 19.5t-21 45.5v184q0 26 21 45.5t49 19.5q30 0 49.5 -19.5t19.5 -45.5zM136 572v128h118v-128
h-118zM346 572v128h118v-128h-118z" />
    <glyph glyph-name="divide" unicode="&#xf7;" 
d="M71 335h458v-120h-458v120zM230 39v136h139v-136h-139zM230 373v137h139v-137h-139z" />
    <glyph glyph-name="oslash" unicode="&#xf8;" 
d="M134 19l18 33q-39 45 -39 109v178q0 73 52 122t136 49q49 0 93 -21l13 24l58 -32l-18 -33q40 -46 40 -109v-178q0 -73 -51.5 -122t-134.5 -49q-52 0 -96 21l-13 -24zM230 342v-150l111 202q-18 13 -41 13q-28 0 -49 -19.5t-21 -45.5zM369 158v149l-111 -201
q20 -13 43 -13q29 0 48.5 19.5t19.5 45.5z" />
    <glyph glyph-name="ugrave" unicode="&#xf9;" 
d="M229 500v-340q0 -27 19 -47t47 -20q35 0 56.5 21.5t21.5 52.5v333h117v-500h-106l-6 48q-4 -6 -13 -15.5t-39 -25.5t-65 -16q-64 0 -106.5 48t-42.5 123v338h117zM363 555h-96l-158 155h149z" />
    <glyph glyph-name="uacute" unicode="&#xfa;" 
d="M228 500v-340q0 -27 19 -47t47 -20q35 0 56.5 21.5t21.5 52.5v333h117v-500h-106l-6 48q-4 -6 -13 -15.5t-39 -25.5t-65 -16q-64 0 -106.5 48t-42.5 123v338h117zM345 555h-96l105 155h149z" />
    <glyph glyph-name="ucircumflex" unicode="&#xfb;" 
d="M228 500v-340q0 -27 19 -47t47 -20q35 0 56.5 21.5t21.5 52.5v333h117v-500h-106l-6 48q-4 -6 -13 -15.5t-39 -25.5t-65 -16q-64 0 -106.5 48t-42.5 123v338h117zM477 555h-99l-76 79l-77 -79h-97l120 155h107z" />
    <glyph glyph-name="udieresis" unicode="&#xfc;" 
d="M228 500v-340q0 -27 19 -47t47 -20q35 0 56.5 21.5t21.5 52.5v333h117v-500h-106l-6 48q-4 -6 -13 -15.5t-39 -25.5t-65 -16q-64 0 -106.5 48t-42.5 123v338h117zM138 572v128h118v-128h-118zM348 572v128h118v-128h-118z" />
    <glyph glyph-name="yacute" unicode="&#xfd;" 
d="M193 500l106 -321l107 321h125l-248 -680h-119l76 209l-172 471h125zM345 555h-96l105 155h149z" />
    <glyph glyph-name="thorn" unicode="&#xfe;" 
d="M121 -181v881h114v-241q3 5 9.5 13.5t32.5 22t58 13.5q70 0 117 -49t47 -121v-176q0 -71 -47 -121.5t-117 -50.5q-29 0 -53.5 10t-33.5 20l-10 9v-210h-117zM382 158v184q0 26 -21 45.5t-50 19.5t-51 -19.5t-22 -45.5v-184q0 -26 21.5 -45.5t50.5 -19.5q30 0 51 19.5
t21 45.5z" />
    <glyph glyph-name="ydieresis" unicode="&#xff;" 
d="M193 500l106 -321l107 321h125l-248 -680h-119l76 209l-172 471h125zM136 572v128h118v-128h-118zM346 572v128h118v-128h-118z" />
    <glyph glyph-name="Amacron" unicode="&#x100;" 
d="M429 0l-39 179h-180l-39 -179h-119l170 700h156l170 -700h-119zM298 584l-63 -294h131l-64 294h-4zM160 784v96h279v-96h-279z" />
    <glyph glyph-name="amacron" unicode="&#x101;" 
d="M375 0l-4 43q-5 -6 -14 -14.5t-42 -23t-71 -14.5q-62 0 -104 42.5t-42 112.5q0 75 46.5 118.5t121.5 50.5l99 9v14q0 30 -19 50t-54 20q-31 0 -69 -6t-60 -12l-22 -7v102q82 25 152 25q92 0 139.5 -47.5t47.5 -121.5v-341h-105zM277 88q33 0 60.5 23t27.5 54v60l-83 -7
q-71 -6 -71 -66q0 -28 16.5 -46t49.5 -18zM157 584v96h279v-96h-279z" />
    <glyph glyph-name="Abreve" unicode="&#x102;" 
d="M429 0l-39 179h-180l-39 -179h-119l170 700h156l170 -700h-119zM298 584l-63 -294h131l-64 294h-4zM154 904h89q0 -24 15 -42t41 -18q28 0 43 17.5t15 42.5h89q0 -64 -40 -106.5t-107 -42.5q-66 0 -105.5 42.5t-39.5 106.5z" />
    <glyph glyph-name="abreve" unicode="&#x103;" 
d="M375 0l-4 43q-5 -6 -14 -14.5t-42 -23t-71 -14.5q-62 0 -104 42.5t-42 112.5q0 75 46.5 118.5t121.5 50.5l99 9v14q0 30 -19 50t-54 20q-31 0 -69 -6t-60 -12l-22 -7v102q82 25 152 25q92 0 139.5 -47.5t47.5 -121.5v-341h-105zM277 88q33 0 60.5 23t27.5 54v60l-83 -7
q-71 -6 -71 -66q0 -28 16.5 -46t49.5 -18zM155 704h89q0 -24 15 -42t41 -18q28 0 43 17.5t15 42.5h89q0 -64 -40 -106.5t-107 -42.5q-66 0 -105.5 42.5t-39.5 106.5z" />
    <glyph glyph-name="Aogonek" unicode="&#x104;" 
d="M445 0h103l-27.5 -15t-44 -32t-27.5 -39q0 -20 21 -20q8 0 24 4t28 8l11 3v-80q-42 -19 -82 -19q-43 0 -65.5 23t-22.5 55q0 33 20.5 61t40.5 39zM429 0l-39 179h-180l-39 -179h-119l170 700h156l170 -700h-119zM298 584l-63 -294h131l-64 294h-4z" />
    <glyph glyph-name="aogonek" unicode="&#x105;" 
d="M375 0l-4 43q-5 -6 -14 -14.5t-42 -23t-71 -14.5q-62 0 -104 42.5t-42 112.5q0 75 46.5 118.5t121.5 50.5l99 9v14q0 30 -19 50t-54 20q-31 0 -69 -6t-60 -12l-22 -7v102q82 25 152 25q92 0 139.5 -47.5t47.5 -121.5v-341l-27.5 -15t-44 -32t-27.5 -39q0 -20 21 -20
q8 0 24 4t28 8l11 3v-80q-42 -19 -82 -19q-43 0 -65.5 23t-22.5 55q0 15 4.5 29.5t11.5 25t16 20.5t17.5 16.5t15.5 11t11 7.5zM277 88q33 0 60.5 23t27.5 54v60l-83 -7q-71 -6 -71 -66q0 -28 16.5 -46t49.5 -18z" />
    <glyph glyph-name="Cacute" unicode="&#x106;" 
d="M513 151v-115q-9 -5 -25.5 -12.5t-65 -20t-95.5 -12.5q-96 0 -158.5 55t-62.5 141v328q0 86 61.5 140.5t160.5 54.5q42 0 85.5 -9.5t65.5 -18.5l22 -10v-113q-102 43 -174 43q-47 0 -74.5 -24t-27.5 -63v-328q0 -38 28 -63t74 -25q33 0 79.5 13t76.5 26zM359 755h-96
l105 155h149z" />
    <glyph glyph-name="cacute" unicode="&#x107;" 
d="M137 159v182q0 74 49 121.5t143 47.5q28 0 61.5 -4t53.5 -8l20 -5v-104q-78 19 -128 19q-44 0 -63 -20.5t-19 -52.5v-170q0 -31 20.5 -52t61.5 -21q23 0 57 7.5t57 14.5l23 8v-106q-76 -26 -146 -26q-93 0 -141.5 48t-48.5 121zM367 555h-96l105 155h149z" />
    <glyph glyph-name="Ccircumflex" unicode="&#x108;" 
d="M513 151v-115q-9 -5 -25.5 -12.5t-65 -20t-95.5 -12.5q-96 0 -158.5 55t-62.5 141v328q0 86 61.5 140.5t160.5 54.5q42 0 85.5 -9.5t65.5 -18.5l22 -10v-113q-102 43 -174 43q-47 0 -74.5 -24t-27.5 -63v-328q0 -38 28 -63t74 -25q33 0 79.5 13t76.5 26zM503 755h-99
l-76 79l-77 -79h-97l120 155h107z" />
    <glyph glyph-name="ccircumflex" unicode="&#x109;" 
d="M137 159v182q0 74 49 121.5t143 47.5q28 0 61.5 -4t53.5 -8l20 -5v-104q-78 19 -128 19q-44 0 -63 -20.5t-19 -52.5v-170q0 -31 20.5 -52t61.5 -21q23 0 57 7.5t57 14.5l23 8v-106q-76 -26 -146 -26q-93 0 -141.5 48t-48.5 121zM505 555h-99l-76 79l-77 -79h-97l120 155
h107z" />
    <glyph glyph-name="Cdotaccent" unicode="&#x10a;" 
d="M513 151v-115q-9 -5 -25.5 -12.5t-65 -20t-95.5 -12.5q-96 0 -158.5 55t-62.5 141v328q0 86 61.5 140.5t160.5 54.5q42 0 85.5 -9.5t65.5 -18.5l22 -10v-113q-102 43 -174 43q-47 0 -74.5 -24t-27.5 -63v-328q0 -38 28 -63t74 -25q33 0 79.5 13t76.5 26zM269 772v128h118
v-128h-118z" />
    <glyph glyph-name="cdotaccent" unicode="&#x10b;" 
d="M137 159v182q0 74 49 121.5t143 47.5q28 0 61.5 -4t53.5 -8l20 -5v-104q-78 19 -128 19q-44 0 -63 -20.5t-19 -52.5v-170q0 -31 20.5 -52t61.5 -21q23 0 57 7.5t57 14.5l23 8v-106q-76 -26 -146 -26q-93 0 -141.5 48t-48.5 121zM269 572v128h118v-128h-118z" />
    <glyph glyph-name="Ccaron" unicode="&#x10c;" 
d="M513 151v-115q-9 -5 -25.5 -12.5t-65 -20t-95.5 -12.5q-96 0 -158.5 55t-62.5 141v328q0 86 61.5 140.5t160.5 54.5q42 0 85.5 -9.5t65.5 -18.5l22 -10v-113q-102 43 -174 43q-47 0 -74.5 -24t-27.5 -63v-328q0 -38 28 -63t74 -25q33 0 79.5 13t76.5 26zM152 910h99
l76 -79l77 79h97l-120 -155h-107z" />
    <glyph glyph-name="ccaron" unicode="&#x10d;" 
d="M137 159v182q0 74 49 121.5t143 47.5q28 0 61.5 -4t53.5 -8l20 -5v-104q-78 19 -128 19q-44 0 -63 -20.5t-19 -52.5v-170q0 -31 20.5 -52t61.5 -21q23 0 57 7.5t57 14.5l23 8v-106q-76 -26 -146 -26q-93 0 -141.5 48t-48.5 121zM161 710h99l76 -79l77 79h97l-120 -155
h-107z" />
    <glyph glyph-name="Dcaron" unicode="&#x10e;" 
d="M513 508v-316q0 -80 -60 -136t-145 -56h-201v700h201q85 0 145 -56t60 -136zM392 191v316q0 35 -25 58.5t-62 23.5h-80v-480h80q37 0 62 23.5t25 58.5zM110 910h99l76 -79l77 79h97l-120 -155h-107z" />
    <glyph glyph-name="dcaron" unicode="&#x10f;" 
d="M432 700v-700h-106l-4 41l-11 -13.5t-34 -22t-59 -13.5q-70 0 -117 49t-47 121v176q0 71 47 121.5t117 50.5q29 0 53.5 -10t34.5 -20l9 -9v229h117zM171 342v-184q0 -26 21 -45.5t50 -19.5t51 19.5t22 45.5v184q0 26 -21.5 45.5t-50.5 19.5q-30 0 -51 -19.5t-21 -45.5z
M483 583v117h117v-92q0 -78 -38.5 -110.5t-83.5 -32.5v60q23 0 33.5 17.5t10.5 40.5h-39z" />
    <glyph glyph-name="Dcroat" unicode="&#x110;" 
d="M61 314v108h58v278h201q85 0 145 -56t60 -136v-316q0 -80 -60 -136t-145 -56h-201v314h-58zM404 191v316q0 35 -25 58.5t-62 23.5h-80v-167h87v-108h-87v-205h80q37 0 62 23.5t25 58.5z" />
    <glyph glyph-name="dcroat" unicode="&#x111;" 
d="M480 700v-54h58v-86h-58v-560h-106l-4 41l-11 -13.5t-34 -22t-59 -13.5q-70 0 -117 49t-47 121v166q0 71 47 121.5t117 50.5q29 0 53.5 -10t34.5 -20l9 -9v99h-98v86h98v54h117zM219 332v-174q0 -26 21 -45.5t50 -19.5t51 19.5t22 45.5v174q0 26 -21.5 45.5t-50.5 19.5
q-30 0 -51 -19.5t-21 -45.5z" />
    <glyph glyph-name="Emacron" unicode="&#x112;" 
d="M119 700h373v-109h-256v-169h233v-108h-233v-205h264v-109h-381v700zM175 784v96h279v-96h-279z" />
    <glyph glyph-name="emacron" unicode="&#x113;" 
d="M237 339v-33h144v33q0 30 -20 49.5t-53 19.5q-32 0 -51.5 -19.5t-19.5 -49.5zM120 159v182q0 73 50.5 121t136.5 48q84 0 135 -48t51 -121v-133h-256v-43q0 -31 20 -52t62 -21q24 0 60.5 8t60.5 16l25 7v-108q-90 -25 -156 -25q-93 0 -141 47.5t-48 121.5zM169 584v96
h279v-96h-279z" />
    <glyph glyph-name="Ebreve" unicode="&#x114;" 
d="M119 700h373v-109h-256v-169h233v-108h-233v-205h264v-109h-381v700zM166 904h89q0 -24 15 -42t41 -18q28 0 43 17.5t15 42.5h89q0 -64 -40 -106.5t-107 -42.5q-66 0 -105.5 42.5t-39.5 106.5z" />
    <glyph glyph-name="ebreve" unicode="&#x115;" 
d="M237 339v-33h144v33q0 30 -20 49.5t-53 19.5q-32 0 -51.5 -19.5t-19.5 -49.5zM120 159v182q0 73 50.5 121t136.5 48q84 0 135 -48t51 -121v-133h-256v-43q0 -31 20 -52t62 -21q24 0 60.5 8t60.5 16l25 7v-108q-90 -25 -156 -25q-93 0 -141 47.5t-48 121.5zM163 704h89
q0 -24 15 -42t41 -18q28 0 43 17.5t15 42.5h89q0 -64 -40 -106.5t-107 -42.5q-66 0 -105.5 42.5t-39.5 106.5z" />
    <glyph glyph-name="Edotaccent" unicode="&#x116;" 
d="M119 700h373v-109h-256v-169h233v-108h-233v-205h264v-109h-381v700zM256 772v128h118v-128h-118z" />
    <glyph glyph-name="edotaccent" unicode="&#x117;" 
d="M237 339v-33h144v33q0 30 -20 49.5t-53 19.5q-32 0 -51.5 -19.5t-19.5 -49.5zM120 159v182q0 73 50.5 121t136.5 48q84 0 135 -48t51 -121v-133h-256v-43q0 -31 20 -52t62 -21q24 0 60.5 8t60.5 16l25 7v-108q-90 -25 -156 -25q-93 0 -141 47.5t-48 121.5zM251 572v128
h118v-128h-118z" />
    <glyph glyph-name="Eogonek" unicode="&#x118;" 
d="M397 0h-278v700h373v-109h-256v-169h233v-108h-233v-205h264v-109l-27.5 -15t-44 -32t-27.5 -39q0 -20 21 -20q8 0 24 4t28 8l11 3v-80q-42 -19 -82 -19q-43 0 -65.5 23t-22.5 55q0 33 20.5 61t40.5 39z" />
    <glyph glyph-name="eogonek" unicode="&#x119;" 
d="M120 159v182q0 73 50.5 121t136.5 48q84 0 135 -48t51 -121v-133h-256v-43q0 -31 20 -52t62 -21q24 0 60.5 8t60.5 16l25 7v-108q-11 -7 -28 -19t-45 -39t-28 -43q0 -20 21 -20q8 0 24 4t27 8l12 3v-80q-42 -19 -82 -19q-42 0 -65 23t-23 55q0 63 67 104q-26 -2 -36 -2
q-93 0 -141 47.5t-48 121.5zM237 339v-33h144v33q0 30 -20 49.5t-53 19.5q-32 0 -51.5 -19.5t-19.5 -49.5z" />
    <glyph glyph-name="Ecaron" unicode="&#x11a;" 
d="M119 700h373v-109h-256v-169h233v-108h-233v-205h264v-109h-381v700zM139 910h99l76 -79l77 79h97l-120 -155h-107z" />
    <glyph glyph-name="ecaron" unicode="&#x11b;" 
d="M237 339v-33h144v33q0 30 -20 49.5t-53 19.5q-32 0 -51.5 -19.5t-19.5 -49.5zM120 159v182q0 73 50.5 121t136.5 48q84 0 135 -48t51 -121v-133h-256v-43q0 -31 20 -52t62 -21q24 0 60.5 8t60.5 16l25 7v-108q-90 -25 -156 -25q-93 0 -141 47.5t-48 121.5zM135 710h99
l76 -79l77 79h97l-120 -155h-107z" />
    <glyph glyph-name="Gcircumflex" unicode="&#x11c;" 
d="M513 376v-337q-100 -48 -207 -48q-95 0 -157.5 55t-62.5 141v327q0 86 61.5 140.5t159.5 54.5q46 0 92 -9.5t69 -19.5l24 -9v-112q-114 42 -186 42q-46 0 -74 -25t-28 -62v-327q0 -38 28 -63t74 -25q18 0 41 4.5t37 8.5l15 4v154h-98v106h212zM483 755h-99l-76 79
l-77 -79h-97l120 155h107z" />
    <glyph glyph-name="gcircumflex" unicode="&#x11d;" 
d="M223 342v-174q0 -26 21 -45.5t51 -19.5q29 0 50.5 19.5t21.5 45.5v174q0 26 -22 45.5t-51 19.5t-50 -19.5t-21 -45.5zM367 -18v60q-4 -5 -11 -12t-32 -18.5t-54 -11.5q-70 0 -117 50.5t-47 121.5v166q0 72 47 121t117 49q32 0 58 -12t36 -24l10 -13l4 41h106v-523
q0 -74 -47.5 -120.5t-139.5 -46.5q-35 0 -73 6t-58 12l-21 7v102q81 -26 147 -26q75 0 75 71zM474 555h-99l-76 79l-77 -79h-97l120 155h107z" />
    <glyph glyph-name="Gbreve" unicode="&#x11e;" 
d="M513 376v-337q-100 -48 -207 -48q-95 0 -157.5 55t-62.5 141v327q0 86 61.5 140.5t159.5 54.5q46 0 92 -9.5t69 -19.5l24 -9v-112q-114 42 -186 42q-46 0 -74 -25t-28 -62v-327q0 -38 28 -63t74 -25q18 0 41 4.5t37 8.5l15 4v154h-98v106h212zM158 904h89q0 -24 15 -42
t41 -18q28 0 43 17.5t15 42.5h89q0 -64 -40 -106.5t-107 -42.5q-66 0 -105.5 42.5t-39.5 106.5z" />
    <glyph glyph-name="gbreve" unicode="&#x11f;" 
d="M223 342v-174q0 -26 21 -45.5t51 -19.5q29 0 50.5 19.5t21.5 45.5v174q0 26 -22 45.5t-51 19.5t-50 -19.5t-21 -45.5zM367 -18v60q-4 -5 -11 -12t-32 -18.5t-54 -11.5q-70 0 -117 50.5t-47 121.5v166q0 72 47 121t117 49q32 0 58 -12t36 -24l10 -13l4 41h106v-523
q0 -74 -47.5 -120.5t-139.5 -46.5q-35 0 -73 6t-58 12l-21 7v102q81 -26 147 -26q75 0 75 71zM154 704h89q0 -24 15 -42t41 -18q28 0 43 17.5t15 42.5h89q0 -64 -40 -106.5t-107 -42.5q-66 0 -105.5 42.5t-39.5 106.5z" />
    <glyph glyph-name="Gdotaccent" unicode="&#x120;" 
d="M513 376v-337q-100 -48 -207 -48q-95 0 -157.5 55t-62.5 141v327q0 86 61.5 140.5t159.5 54.5q46 0 92 -9.5t69 -19.5l24 -9v-112q-114 42 -186 42q-46 0 -74 -25t-28 -62v-327q0 -38 28 -63t74 -25q18 0 41 4.5t37 8.5l15 4v154h-98v106h212zM245 772v128h118v-128h-118
z" />
    <glyph glyph-name="gdotaccent" unicode="&#x121;" 
d="M223 342v-174q0 -26 21 -45.5t51 -19.5q29 0 50.5 19.5t21.5 45.5v174q0 26 -22 45.5t-51 19.5t-50 -19.5t-21 -45.5zM367 -18v60q-4 -5 -11 -12t-32 -18.5t-54 -11.5q-70 0 -117 50.5t-47 121.5v166q0 72 47 121t117 49q32 0 58 -12t36 -24l10 -13l4 41h106v-523
q0 -74 -47.5 -120.5t-139.5 -46.5q-35 0 -73 6t-58 12l-21 7v102q81 -26 147 -26q75 0 75 71zM241 572v128h118v-128h-118z" />
    <glyph glyph-name="Gcommaaccent" unicode="&#x122;" 
d="M513 376v-337q-100 -48 -207 -48q-95 0 -157.5 55t-62.5 141v327q0 86 61.5 140.5t159.5 54.5q46 0 92 -9.5t69 -19.5l24 -9v-112q-114 42 -186 42q-46 0 -74 -25t-28 -62v-327q0 -38 28 -63t74 -25q18 0 41 4.5t37 8.5l15 4v154h-98v106h212zM247 -180v117h117v-92
q0 -78 -38.5 -110.5t-83.5 -32.5v60q23 0 33.5 17.5t10.5 40.5h-39z" />
    <glyph glyph-name="gcommaaccent" unicode="&#x123;" 
d="M223 342v-174q0 -26 21 -45.5t51 -19.5q29 0 50.5 19.5t21.5 45.5v174q0 26 -22 45.5t-51 19.5t-50 -19.5t-21 -45.5zM367 -18v60q-4 -5 -11 -12t-32 -18.5t-54 -11.5q-70 0 -117 50.5t-47 121.5v166q0 72 47 121t117 49q32 0 58 -12t36 -24l10 -13l4 41h106v-523
q0 -74 -47.5 -120.5t-139.5 -46.5q-35 0 -73 6t-58 12l-21 7v102q81 -26 147 -26q75 0 75 71zM356 690v-117h-117v92q0 78 38.5 110.5t83.5 32.5v-60q-23 0 -33.5 -17.5t-10.5 -40.5h39z" />
    <glyph glyph-name="Hcircumflex" unicode="&#x124;" 
d="M389 700h119v-700h-119v314h-179v-314h-118v700h118v-278h179v278zM474 755h-99l-76 79l-77 -79h-97l120 155h107z" />
    <glyph glyph-name="hcircumflex" unicode="&#x125;" 
d="M382 0v340q0 27 -19 47t-47 20q-35 0 -56.5 -21.5t-21.5 -52.5v-333h-117v700h117v-229l11 10.5t33.5 17.5t56.5 11q68 0 114 -49.5t46 -122.5v-338h-117zM482 755h-99l-76 79l-77 -79h-97l120 155h107z" />
    <glyph glyph-name="Hbar" unicode="&#x126;" 
d="M389 700h119v-105h45v-96h-45v-499h-119v314h-179v-314h-118v499h-45v96h45v105h118v-105h179v105zM210 422h179v77h-179v-77z" />
    <glyph glyph-name="hbar" unicode="&#x127;" 
d="M66 560v86h57v54h117v-54h99v-86h-99v-99q2 3 11.5 11t34.5 18t55 10q68 0 114 -49.5t46 -122.5v-328h-117v330q0 27 -19 47t-47 20q-35 0 -56.5 -21.5t-21.5 -52.5v-323h-117v560h-57z" />
    <glyph glyph-name="Itilde" unicode="&#x128;" 
d="M92 592v108h414v-108h-147v-483h147v-109h-414v109h147v483h-147zM214 771h-74q0 48 28 86t68 38q26 0 67.5 -20.5t54.5 -20.5q11 0 19 12.5t8 24.5h74q0 -48 -27.5 -86t-66.5 -38q-26 0 -67 20t-55 20q-11 0 -20 -11.5t-9 -24.5z" />
    <glyph glyph-name="itilde" unicode="&#x129;" 
d="M120 398v102h260v-398h145v-102h-415v102h152v296h-142zM215 571h-74q0 48 28 86t68 38q26 0 67.5 -20.5t54.5 -20.5q11 0 19 12.5t8 24.5h74q0 -48 -27.5 -86t-66.5 -38q-26 0 -67 20t-55 20q-12 0 -20.5 -11.5t-8.5 -24.5z" />
    <glyph glyph-name="Imacron" unicode="&#x12a;" 
d="M93 592v108h414v-108h-147v-483h147v-109h-414v109h147v483h-147zM160 784v96h279v-96h-279z" />
    <glyph glyph-name="imacron" unicode="&#x12b;" 
d="M120 398v102h260v-398h145v-102h-415v102h152v296h-142zM161 584v96h279v-96h-279z" />
    <glyph glyph-name="Ibreve" unicode="&#x12c;" 
d="M93 592v108h414v-108h-147v-483h147v-109h-414v109h147v483h-147zM154 904h89q0 -24 15 -42t41 -18q28 0 43 17.5t15 42.5h89q0 -64 -40 -106.5t-107 -42.5q-66 0 -105.5 42.5t-39.5 106.5z" />
    <glyph glyph-name="ibreve" unicode="&#x12d;" 
d="M120 398v102h260v-398h145v-102h-415v102h152v296h-142zM154 704h89q0 -24 15 -42t41 -18q28 0 43 17.5t15 42.5h89q0 -64 -40 -106.5t-107 -42.5q-66 0 -105.5 42.5t-39.5 106.5z" />
    <glyph glyph-name="Iogonek" unicode="&#x12e;" 
d="M92 591v109h415v-109h-147v-482h147v-109l-27.5 -15t-44 -32t-27.5 -39q0 -20 21 -20q8 0 24 4t27 8l12 3v-80q-42 -19 -82 -19q-42 0 -65 23t-23 55q0 33 20.5 61t41.5 39l20 12h-311v109h147v482h-148z" />
    <glyph glyph-name="iogonek" unicode="&#x12f;" 
d="M120 398v102h260v-398h145v-102l-27.5 -15t-44 -32t-27.5 -39q0 -20 21 -20q8 0 24 4t27 8l12 3v-80q-42 -19 -82 -19q-42 0 -65 23t-23 55q0 33 20.5 61t41.5 39l20 12h-312v102h152v296h-142zM262 572v128h118v-128h-118z" />
    <glyph glyph-name="Idotaccent" unicode="&#x130;" 
d="M93 592v108h414v-108h-147v-483h147v-109h-414v109h147v483h-147zM241 772v128h118v-128h-118z" />
    <glyph glyph-name="dotlessi" unicode="&#x131;" 
d="M120 398v102h260v-398h145v-102h-415v102h152v296h-142z" />
    <glyph glyph-name="IJ" unicode="&#x132;" 
d="M45 591v109h222v-109h-51v-482h51v-109h-222v109h51v482h-51zM321 591v109h232v-555q0 -67 -40.5 -110.5t-113.5 -43.5q-72 0 -96 12v106q39 -10 81 -10q22 0 35.5 13.5t13.5 36.5v442h-112z" />
    <glyph glyph-name="ij" unicode="&#x133;" 
d="M341 397v103h194v-545q0 -62 -40.5 -103.5t-104.5 -41.5q-22 0 -48 4t-41 8l-15 3v110q49 -21 92 -21q17 0 28 11t11 28v444h-76zM46 398v102h189v-398h87v-102h-290v102h85v296h-71zM417 572v128h118v-128h-118zM117 572v128h118v-128h-118z" />
    <glyph glyph-name="Jcircumflex" unicode="&#x134;" 
d="M98 23v110q68 -34 165 -34q50 0 79 25t29 63v404h-258v109h377v-513q0 -86 -62.5 -141t-158.5 -55q-47 0 -89.5 8t-61.5 16zM487 755h-99l-76 79l-77 -79h-97l120 155h107z" />
    <glyph glyph-name="jcircumflex" unicode="&#x135;" 
d="M515 555h-99l-76 79l-77 -79h-97l120 155h107zM155 397v103h262v-545q0 -62 -40.5 -103.5t-104.5 -41.5q-22 0 -48 4t-41 8l-15 3v104q49 -15 92 -15q17 0 28 11t11 28v444h-144z" />
    <glyph glyph-name="Kcommaaccent" unicode="&#x136;" 
d="M208 700v-327l211 327h142l-220 -330l228 -370h-140l-221 366v-366h-118v700h118zM243 -180v117h117v-92q0 -78 -38.5 -110.5t-83.5 -32.5v60q23 0 33.5 17.5t10.5 40.5h-39z" />
    <glyph glyph-name="kcommaaccent" unicode="&#x137;" 
d="M399 0l-161 255v-255h-117v700h117v-432l148 232h143l-159 -240l173 -260h-144zM246 -180v117h117v-92q0 -78 -38.5 -110.5t-83.5 -32.5v60q23 0 33.5 17.5t10.5 40.5h-39z" />
    <glyph glyph-name="kgreenlandic" unicode="&#x138;" 
d="M399 0l-161 255v-255h-117v500h117v-232l148 232h143l-159 -240l173 -260h-144z" />
    <glyph glyph-name="Lacute" unicode="&#x139;" 
d="M130 700h119v-591h296v-109h-415v700zM236 755h-96l105 155h149z" />
    <glyph glyph-name="lacute" unicode="&#x13a;" 
d="M129 598v102h250v-598h145v-102h-415v102h152v496h-132zM339 755h-96l105 155h149z" />
    <glyph glyph-name="Lcommaaccent" unicode="&#x13b;" 
d="M130 700h119v-591h296v-109h-415v700zM283 -180v117h117v-92q0 -78 -38.5 -110.5t-83.5 -32.5v60q23 0 33.5 17.5t10.5 40.5h-39z" />
    <glyph glyph-name="lcommaaccent" unicode="&#x13c;" 
d="M130 598v102h250v-598h145v-102h-415v102h152v496h-132zM263 -180v117h117v-92q0 -78 -38.5 -110.5t-83.5 -32.5v60q23 0 33.5 17.5t10.5 40.5h-39z" />
    <glyph glyph-name="Lcaron" unicode="&#x13d;" 
d="M130 700h119v-591h296v-109h-415v700zM411 584v117h117v-92q0 -78 -38.5 -110.5t-83.5 -32.5v60q23 0 33.5 17.5t10.5 40.5h-39z" />
    <glyph glyph-name="lcaron" unicode="&#x13e;" 
d="M128 598v102h250v-598h145v-102h-415v102h152v496h-132zM482 583v117h117v-92q0 -78 -38.5 -110.5t-83.5 -32.5v60q23 0 33.5 17.5t10.5 40.5h-39z" />
    <glyph glyph-name="Ldot" unicode="&#x13f;" 
d="M130 700h119v-591h296v-109h-415v700zM391 301v128h127v-128h-127z" />
    <glyph glyph-name="ldot" unicode="&#x140;" 
d="M119 598v102h250v-598h145v-102h-415v102h152v496h-132zM473 223v128h127v-128h-127z" />
    <glyph glyph-name="Lslash" unicode="&#x141;" 
d="M386 501v-124l-139 -77v-191h296v-109h-414v230l-56 -31v123l56 31v347h118v-277z" />
    <glyph glyph-name="lslash" unicode="&#x142;" 
d="M141 187v121l121 67v223h-133v102h251v-259l126 70v-121l-126 -70v-218h145v-102h-415v102h152v152z" />
    <glyph glyph-name="Nacute" unicode="&#x143;" 
d="M399 700h109v-700h-129l-182 499h-4l8 -130v-369h-109v700h128l184 -501h4l-9 134v367zM345 755h-96l105 155h149z" />
    <glyph glyph-name="nacute" unicode="&#x144;" 
d="M381 0v340q0 27 -19 47t-47 20q-35 0 -56.5 -21.5t-21.5 -52.5v-333h-117v500h106l4 -44q4 6 11.5 15t35.5 23.5t61 14.5q68 0 114 -49t46 -122v-338h-117zM379 555h-96l105 155h149z" />
    <glyph glyph-name="Ncommaaccent" unicode="&#x145;" 
d="M399 700h109v-700h-129l-182 499h-4l8 -130v-369h-109v700h128l184 -501h4l-9 134v367zM236 -180v117h117v-92q0 -78 -38.5 -110.5t-83.5 -32.5v60q23 0 33.5 17.5t10.5 40.5h-39z" />
    <glyph glyph-name="ncommaaccent" unicode="&#x146;" 
d="M381 0v340q0 27 -19 47t-47 20q-35 0 -56.5 -21.5t-21.5 -52.5v-333h-117v500h106l4 -44q4 6 11.5 15t35.5 23.5t61 14.5q68 0 114 -49t46 -122v-338h-117zM250 -180v117h117v-92q0 -78 -38.5 -110.5t-83.5 -32.5v60q23 0 33.5 17.5t10.5 40.5h-39z" />
    <glyph glyph-name="Ncaron" unicode="&#x147;" 
d="M399 700h109v-700h-129l-182 499h-4l8 -130v-369h-109v700h128l184 -501h4l-9 134v367zM125 910h99l76 -79l77 79h97l-120 -155h-107z" />
    <glyph glyph-name="ncaron" unicode="&#x148;" 
d="M381 0v340q0 27 -19 47t-47 20q-35 0 -56.5 -21.5t-21.5 -52.5v-333h-117v500h106l4 -44q4 6 11.5 15t35.5 23.5t61 14.5q68 0 114 -49t46 -122v-338h-117zM134 710h99l76 -79l77 79h97l-120 -155h-107z" />
    <glyph glyph-name="napostrophe" unicode="&#x149;" 
d="M402 0v340q0 27 -19 47t-47 20q-35 0 -56.5 -21.5t-21.5 -52.5v-333h-117v500h106l4 -44q4 6 11.5 15t35.5 23.5t61 14.5q68 0 114 -49t46 -122v-338h-117zM8 584v117h117v-92q0 -78 -38.5 -110.5t-83.5 -32.5v60q23 0 33.5 17.5t10.5 40.5h-39z" />
    <glyph glyph-name="Eng" unicode="&#x14a;" 
d="M392 700h116v-737q0 -67 -40.5 -110.5t-113.5 -43.5q-23 0 -49.5 3.5t-41.5 7t-18 4.5v103q52 -13 94 -13q23 0 38 15t15 38v26l-149 350l-39 121h-4l7 -125v-339h-115v700h123l138 -343l42 -128h4l-7 129v342z" />
    <glyph glyph-name="eng" unicode="&#x14b;" 
d="M495 338v-383q0 -62 -40.5 -103.5t-104.5 -41.5q-22 0 -43 2t-31 4l-10 3v101q22 -9 65 -9q18 0 32.5 13t14.5 29v387q0 27 -19 47t-47 20q-35 0 -56.5 -21.5t-21.5 -52.5v-333h-117v500h106l4 -44q4 6 11.5 15t35.5 23.5t61 14.5q68 0 114 -49t46 -122z" />
    <glyph glyph-name="Omacron" unicode="&#x14c;" 
d="M204 514v-328q0 -38 27 -63t68 -25q40 0 67 25t27 62v329q0 38 -27 63t-67 25q-41 0 -68 -25t-27 -63zM86 186v328q0 85 61.5 140.5t151.5 55.5q89 0 151.5 -55.5t62.5 -140.5v-328q0 -85 -62.5 -140.5t-151.5 -55.5q-90 0 -151.5 55.5t-61.5 140.5zM160 784v96h279v-96
h-279z" />
    <glyph glyph-name="omacron" unicode="&#x14d;" 
d="M487 161v178q0 73 -51.5 122t-134.5 49q-84 0 -136 -49t-52 -122v-178q0 -73 52 -122t136 -49q83 0 134.5 49t51.5 122zM369 342v-184q0 -26 -19.5 -45.5t-48.5 -19.5t-50 19.5t-21 45.5v184q0 26 21 45.5t49 19.5q30 0 49.5 -19.5t19.5 -45.5zM160 584v96h279v-96h-279z
" />
    <glyph glyph-name="Obreve" unicode="&#x14e;" 
d="M204 514v-328q0 -38 27 -63t68 -25q40 0 67 25t27 62v329q0 38 -27 63t-67 25q-41 0 -68 -25t-27 -63zM86 186v328q0 85 61.5 140.5t151.5 55.5q89 0 151.5 -55.5t62.5 -140.5v-328q0 -85 -62.5 -140.5t-151.5 -55.5q-90 0 -151.5 55.5t-61.5 140.5zM153 904h89
q0 -24 15 -42t41 -18q28 0 43 17.5t15 42.5h89q0 -64 -40 -106.5t-107 -42.5q-66 0 -105.5 42.5t-39.5 106.5z" />
    <glyph glyph-name="obreve" unicode="&#x14f;" 
d="M487 161v178q0 73 -51.5 122t-134.5 49q-84 0 -136 -49t-52 -122v-178q0 -73 52 -122t136 -49q83 0 134.5 49t51.5 122zM369 342v-184q0 -26 -19.5 -45.5t-48.5 -19.5t-50 19.5t-21 45.5v184q0 26 21 45.5t49 19.5q30 0 49.5 -19.5t19.5 -45.5zM154 704h89q0 -24 15 -42
t41 -18q28 0 43 17.5t15 42.5h89q0 -64 -40 -106.5t-107 -42.5q-66 0 -105.5 42.5t-39.5 106.5z" />
    <glyph glyph-name="Ohungarumlaut" unicode="&#x150;" 
d="M203 514v-328q0 -38 27 -63t68 -25q40 0 67 25t27 62v329q0 38 -27 63t-67 25q-41 0 -68 -25t-27 -63zM85 186v328q0 85 61.5 140.5t151.5 55.5q89 0 151.5 -55.5t62.5 -140.5v-328q0 -85 -62.5 -140.5t-151.5 -55.5q-90 0 -151.5 55.5t-61.5 140.5zM231 755h-96l90 155
h149zM442 755h-96l90 155h149z" />
    <glyph glyph-name="ohungarumlaut" unicode="&#x151;" 
d="M483 161v178q0 73 -51.5 122t-134.5 49q-84 0 -136 -49t-52 -122v-178q0 -73 52 -122t136 -49q83 0 134.5 49t51.5 122zM365 342v-184q0 -26 -19.5 -45.5t-48.5 -19.5t-50 19.5t-21 45.5v184q0 26 21 45.5t49 19.5q30 0 49.5 -19.5t19.5 -45.5zM239 555h-96l90 155h149z
M450 555h-96l90 155h149z" />
    <glyph glyph-name="OE" unicode="&#x152;" 
d="M260 700h295v-110h-147v-168h130v-108h-130v-204h155v-110h-303q-87 0 -147 55.5t-60 137.5v315q0 81 60 136.5t147 55.5zM173 192q0 -32 23.5 -57t55.5 -25h38v480h-38q-32 0 -55.5 -25t-23.5 -56v-317z" />
    <glyph glyph-name="oe" unicode="&#x153;" 
d="M417 -10q-31 0 -60 10t-42 20l-13 10q-47 -40 -106 -40q-78 0 -115.5 46.5t-37.5 121.5v183q0 74 39 121t117 47q25 0 51.5 -10.5t40.5 -20.5l14 -10q5 5 13.5 11.5t36 18t55.5 11.5q74 0 112 -47.5t38 -120.5v-137h-202v-46q0 -67 61 -67q22 0 52 6t49 12l19 6v-105
q-55 -20 -122 -20zM251 160v179q0 30 -13 49.5t-40 19.5q-50 0 -50 -69v-179q0 -69 51 -69q26 0 39 19.5t13 49.5zM358 341v-36h100v34q0 69 -49 69q-25 0 -38 -19t-13 -48z" />
    <glyph glyph-name="Racute" unicode="&#x154;" 
d="M391 0l-102 242h-63v-242h-118v700h207q73 0 124 -48t51 -118v-126q0 -98 -85 -143l117 -265h-131zM371 405v129q0 23 -17 39t-42 16h-86v-238h86q25 0 42 16t17 38zM314 755h-96l105 155h149z" />
    <glyph glyph-name="racute" unicode="&#x155;" 
d="M95 397v103h228l4 -58q1 3 4 7.5t13.5 16t24.5 20.5t38.5 16t53.5 7q18 0 40 -2t35 -4l14 -2v-100q-40 7 -89 7q-60 0 -94.5 -43t-34.5 -121v-142h163v-102h-415v102h135v295h-120zM325 555h-96l105 155h149z" />
    <glyph glyph-name="Rcommaaccent" unicode="&#x156;" 
d="M391 0l-102 242h-63v-242h-118v700h207q73 0 124 -48t51 -118v-126q0 -98 -85 -143l117 -265h-131zM371 405v129q0 23 -17 39t-42 16h-86v-238h86q25 0 42 16t17 38zM244 -180v117h117v-92q0 -78 -38.5 -110.5t-83.5 -32.5v60q23 0 33.5 17.5t10.5 40.5h-39z" />
    <glyph glyph-name="rcommaaccent" unicode="&#x157;" 
d="M95 397v103h228l4 -58q1 3 4 7.5t13.5 16t24.5 20.5t38.5 16t53.5 7q18 0 40 -2t35 -4l14 -2v-100q-40 7 -89 7q-60 0 -94.5 -43t-34.5 -121v-142h163v-102h-415v102h135v295h-120zM221 -180v117h117v-92q0 -78 -38.5 -110.5t-83.5 -32.5v60q23 0 33.5 17.5t10.5 40.5
h-39z" />
    <glyph glyph-name="Rcaron" unicode="&#x158;" 
d="M391 0l-102 242h-63v-242h-118v700h207q73 0 124 -48t51 -118v-126q0 -98 -85 -143l117 -265h-131zM371 405v129q0 23 -17 39t-42 16h-86v-238h86q25 0 42 16t17 38zM125 910h99l76 -79l77 79h97l-120 -155h-107z" />
    <glyph glyph-name="rcaron" unicode="&#x159;" 
d="M95 397v103h228l4 -58q1 3 4 7.5t13.5 16t24.5 20.5t38.5 16t53.5 7q18 0 40 -2t35 -4l14 -2v-100q-40 7 -89 7q-60 0 -94.5 -43t-34.5 -121v-142h163v-102h-415v102h135v295h-120zM126 710h99l76 -79l77 79h97l-120 -155h-107z" />
    <glyph glyph-name="Sacute" unicode="&#x15a;" 
d="M278 99q52 0 81.5 25t29.5 64q0 37 -31 65.5t-75 49.5t-88 45.5t-75 67.5t-31 102q0 83 61 137.5t156 54.5q45 0 89 -10t65 -20l22 -10v-112q-95 44 -173 44q-47 0 -74.5 -22.5t-27.5 -56.5q0 -28 22.5 -51t56 -38t73 -37t73 -45.5t56 -66t22.5 -97.5q0 -85 -63 -141
t-163 -56q-48 0 -96 12.5t-72 24.5l-25 12v119q11 -7 30.5 -17t69 -26.5t87.5 -16.5zM347 755h-96l105 155h149z" />
    <glyph glyph-name="sacute" unicode="&#x15b;" 
d="M284 92q29 0 50 12.5t21 38.5q0 23 -23.5 39t-57 28.5t-67 28t-57 47.5t-23.5 77q0 66 52.5 106.5t132.5 40.5q32 0 66.5 -5t53.5 -11l18 -5v-105q-81 24 -137 24q-33 0 -50.5 -11.5t-17.5 -27.5q0 -20 23.5 -34t56.5 -26t66.5 -28.5t57 -50t23.5 -80.5q0 -69 -51 -114.5
t-141 -45.5q-35 0 -72 7t-56 15l-20 7v110q74 -37 152 -37zM350 555h-96l105 155h149z" />
    <glyph glyph-name="Scircumflex" unicode="&#x15c;" 
d="M278 99q52 0 81.5 25t29.5 64q0 37 -31 65.5t-75 49.5t-88 45.5t-75 67.5t-31 102q0 83 61 137.5t156 54.5q45 0 89 -10t65 -20l22 -10v-112q-95 44 -173 44q-47 0 -74.5 -22.5t-27.5 -56.5q0 -28 22.5 -51t56 -38t73 -37t73 -45.5t56 -66t22.5 -97.5q0 -85 -63 -141
t-163 -56q-48 0 -96 12.5t-72 24.5l-25 12v119q11 -7 30.5 -17t69 -26.5t87.5 -16.5zM471 755h-99l-76 79l-77 -79h-97l120 155h107z" />
    <glyph glyph-name="scircumflex" unicode="&#x15d;" 
d="M279 92q29 0 50 12.5t21 38.5q0 23 -23.5 39t-57 28.5t-67 28t-57 47.5t-23.5 77q0 66 52.5 106.5t132.5 40.5q32 0 66.5 -5t52.5 -11l19 -5v-105q-81 24 -137 24q-33 0 -50.5 -11.5t-17.5 -27.5q0 -20 23.5 -34t57 -26t66.5 -28.5t56.5 -50t23.5 -80.5q0 -69 -51 -114.5
t-141 -45.5q-35 0 -72 7t-57 15l-19 7v110q74 -37 152 -37zM477 555h-99l-76 79l-77 -79h-97l120 155h107z" />
    <glyph glyph-name="Scedilla" unicode="&#x15e;" 
d="M278 99q52 0 81.5 25t29.5 64q0 37 -31 65.5t-75 49.5t-88 45.5t-75 67.5t-31 102q0 83 61 137.5t156 54.5q45 0 89 -10t65 -20l22 -10v-112q-95 44 -173 44q-47 0 -74.5 -22.5t-27.5 -56.5q0 -28 22.5 -51t56 -38t73 -37t73 -45.5t56 -66t22.5 -97.5q0 -75 -49.5 -128
t-131.5 -65l-8 -26q30 -4 48.5 -25t18.5 -52q0 -36 -27 -59t-66 -23q-15 0 -32.5 2.5t-27.5 5.5l-10 2v56q39 -10 58 -10q13 0 20 7.5t7 17.5q0 8 -6 15.5t-16 8.5l-53 8l20 70q-42 3 -83 15t-61 22l-20 10v119q11 -7 30.5 -17t69 -26.5t87.5 -16.5z" />
    <glyph glyph-name="scedilla" unicode="&#x15f;" 
d="M284 92q29 0 50 12.5t21 38.5q0 23 -23.5 39t-57 28.5t-67 28t-57 47.5t-23.5 77q0 66 52.5 106.5t132.5 40.5q32 0 66.5 -5t53.5 -11l18 -5v-105q-81 24 -137 24q-33 0 -50.5 -11.5t-17.5 -27.5q0 -20 23.5 -34t56.5 -26t66.5 -28.5t57 -50t23.5 -80.5q0 -60 -39 -103
t-109 -54l-8 -24q30 -4 48.5 -25t18.5 -52q0 -36 -27 -59t-66 -23q-15 0 -32.5 2.5t-27.5 5.5l-10 2v56q39 -10 58 -10q13 0 20 7.5t7 17.5q0 8 -6 15.5t-16 8.5l-53 8l20 68q-29 3 -58.5 10t-44.5 13l-15 5v110q74 -37 152 -37z" />
    <glyph glyph-name="Scaron" unicode="&#x160;" 
d="M278 99q52 0 81.5 25t29.5 64q0 37 -31 65.5t-75 49.5t-88 45.5t-75 67.5t-31 102q0 83 61 137.5t156 54.5q45 0 89 -10t65 -20l22 -10v-112q-95 44 -173 44q-47 0 -74.5 -22.5t-27.5 -56.5q0 -28 22.5 -51t56 -38t73 -37t73 -45.5t56 -66t22.5 -97.5q0 -85 -63 -141
t-163 -56q-48 0 -96 12.5t-72 24.5l-25 12v119q11 -7 30.5 -17t69 -26.5t87.5 -16.5zM122 910h99l76 -79l77 79h97l-120 -155h-107z" />
    <glyph glyph-name="scaron" unicode="&#x161;" 
d="M279 92q29 0 50 12.5t21 38.5q0 23 -23.5 39t-57 28.5t-67 28t-57 47.5t-23.5 77q0 66 52.5 106.5t132.5 40.5q32 0 66.5 -5t52.5 -11l19 -5v-105q-81 24 -137 24q-33 0 -50.5 -11.5t-17.5 -27.5q0 -20 23.5 -34t57 -26t66.5 -28.5t56.5 -50t23.5 -80.5q0 -69 -51 -114.5
t-141 -45.5q-35 0 -72 7t-57 15l-19 7v110q74 -37 152 -37zM128 710h99l76 -79l77 79h97l-120 -155h-107z" />
    <glyph glyph-name="Tcommaaccent" unicode="&#x162;" 
d="M82 590v110h435v-110h-158v-590h-121v590h-156zM243 -180v117h117v-92q0 -78 -38.5 -110.5t-83.5 -32.5v60q23 0 33.5 17.5t10.5 40.5h-39z" />
    <glyph glyph-name="tcommaaccent" unicode="&#x163;" 
d="M83 399v101h91v109h117v-109h197v-101h-197v-256q0 -24 13.5 -37.5t50.5 -13.5q24 0 53.5 3.5t47.5 6.5l17 4v-100q-61 -15 -137 -15q-162 0 -162 147v261h-91zM244 -180v117h117v-92q0 -78 -38.5 -110.5t-83.5 -32.5v60q23 0 33.5 17.5t10.5 40.5h-39z" />
    <glyph glyph-name="Tcaron" unicode="&#x164;" 
d="M82 590v110h435v-110h-158v-590h-121v590h-156zM125 910h99l76 -79l77 79h97l-120 -155h-107z" />
    <glyph glyph-name="tcaron" unicode="&#x165;" 
d="M83 399v101h91v109h117v-109h197v-101h-197v-256q0 -24 13.5 -37.5t50.5 -13.5q24 0 53.5 3.5t47.5 6.5l17 4v-100q-61 -15 -137 -15q-162 0 -162 147v261h-91zM411 649v117h117v-92q0 -78 -38.5 -110.5t-83.5 -32.5v60q23 0 33.5 17.5t10.5 40.5h-39z" />
    <glyph glyph-name="Tbar" unicode="&#x166;" 
d="M82 590v110h435v-110h-158v-168h118v-103h-118v-319h-121v319h-116v103h116v168h-156z" />
    <glyph glyph-name="tbar" unicode="&#x167;" 
d="M83 230v96h91v73h-91v101h91v109h117v-109h197v-101h-197v-73h156v-96h-156v-87q0 -24 13.5 -37.5t50.5 -13.5q24 0 53.5 3.5t47.5 6.5l17 4v-100q-61 -15 -137 -15q-162 0 -162 147v92h-91z" />
    <glyph glyph-name="Utilde" unicode="&#x168;" 
d="M394 700h120v-513q0 -85 -62.5 -140.5t-151.5 -55.5q-90 0 -152 55.5t-62 140.5v513h119v-513q0 -38 27 -63t68 -25q40 0 67 25t27 62v514zM214 771h-74q0 48 28 86t68 38q26 0 67.5 -20.5t54.5 -20.5q11 0 19 12.5t8 24.5h74q0 -48 -27.5 -86t-66.5 -38q-26 0 -67 20
t-55 20q-11 0 -20 -11.5t-9 -24.5z" />
    <glyph glyph-name="utilde" unicode="&#x169;" 
d="M228 500v-340q0 -27 19 -47t47 -20q35 0 56.5 21.5t21.5 52.5v333h117v-500h-106l-6 48q-4 -6 -13 -15.5t-39 -25.5t-65 -16q-64 0 -106.5 48t-42.5 123v338h117zM217 571h-74q0 48 28 86t68 38q26 0 67.5 -20.5t54.5 -20.5q11 0 19 12.5t8 24.5h74q0 -48 -27.5 -86
t-66.5 -38q-26 0 -67 20t-55 20q-12 0 -20.5 -11.5t-8.5 -24.5z" />
    <glyph glyph-name="Umacron" unicode="&#x16a;" 
d="M394 700h120v-513q0 -85 -62.5 -140.5t-151.5 -55.5q-90 0 -152 55.5t-62 140.5v513h119v-513q0 -38 27 -63t68 -25q40 0 67 25t27 62v514zM160 784v96h279v-96h-279z" />
    <glyph glyph-name="umacron" unicode="&#x16b;" 
d="M228 500v-340q0 -27 19 -47t47 -20q35 0 56.5 21.5t21.5 52.5v333h117v-500h-106l-6 48q-4 -6 -13 -15.5t-39 -25.5t-65 -16q-64 0 -106.5 48t-42.5 123v338h117zM163 584v96h279v-96h-279z" />
    <glyph glyph-name="Ubreve" unicode="&#x16c;" 
d="M394 700h120v-513q0 -85 -62.5 -140.5t-151.5 -55.5q-90 0 -152 55.5t-62 140.5v513h119v-513q0 -38 27 -63t68 -25q40 0 67 25t27 62v514zM154 904h89q0 -24 15 -42t41 -18q28 0 43 17.5t15 42.5h89q0 -64 -40 -106.5t-107 -42.5q-66 0 -105.5 42.5t-39.5 106.5z" />
    <glyph glyph-name="ubreve" unicode="&#x16d;" 
d="M228 500v-340q0 -27 19 -47t47 -20q35 0 56.5 21.5t21.5 52.5v333h117v-500h-106l-6 48q-4 -6 -13 -15.5t-39 -25.5t-65 -16q-64 0 -106.5 48t-42.5 123v338h117zM156 704h89q0 -24 15 -42t41 -18q28 0 43 17.5t15 42.5h89q0 -64 -40 -106.5t-107 -42.5
q-66 0 -105.5 42.5t-39.5 106.5z" />
    <glyph glyph-name="Uring" unicode="&#x16e;" 
d="M394 700h120v-513q0 -85 -62.5 -140.5t-151.5 -55.5q-90 0 -152 55.5t-62 140.5v513h119v-513q0 -38 27 -63t68 -25q40 0 67 25t27 62v514zM187 838q0 41 31.5 67t79.5 26q47 0 80.5 -26.5t33.5 -66.5t-33.5 -66.5t-80.5 -26.5q-48 0 -79.5 26.5t-31.5 66.5zM264 839
q0 -13 10 -22.5t24 -9.5q15 0 25 9.5t10 22.5q0 12 -10 21.5t-25 9.5q-14 0 -24 -9.5t-10 -21.5z" />
    <glyph glyph-name="uring" unicode="&#x16f;" 
d="M228 500v-340q0 -27 19 -47t47 -20q35 0 56.5 21.5t21.5 52.5v333h117v-500h-106l-6 48q-4 -6 -13 -15.5t-39 -25.5t-65 -16q-64 0 -106.5 48t-42.5 123v338h117zM190 638q0 41 31.5 67t79.5 26q47 0 80.5 -26.5t33.5 -66.5t-33.5 -66.5t-80.5 -26.5q-48 0 -79.5 26.5
t-31.5 66.5zM267 639q0 -13 10 -22.5t24 -9.5q15 0 25 9.5t10 22.5q0 12 -10 21.5t-25 9.5q-14 0 -24 -9.5t-10 -21.5z" />
    <glyph glyph-name="Uhungarumlaut" unicode="&#x170;" 
d="M394 700h120v-513q0 -85 -62.5 -140.5t-151.5 -55.5q-90 0 -152 55.5t-62 140.5v513h119v-513q0 -38 27 -63t68 -25q40 0 67 25t27 62v514zM235 755h-96l90 155h149zM446 755h-96l90 155h149z" />
    <glyph glyph-name="uhungarumlaut" unicode="&#x171;" 
d="M223 500v-340q0 -27 19 -47t47 -20q35 0 56.5 21.5t21.5 52.5v333h117v-500h-106l-6 48q-4 -6 -13 -15.5t-39 -25.5t-65 -16q-64 0 -106.5 48t-42.5 123v338h117zM236 555h-96l90 155h149zM447 555h-96l90 155h149z" />
    <glyph glyph-name="Uogonek" unicode="&#x172;" 
d="M394 700h120v-513q0 -68 -41 -118t-106 -69l-27.5 -15t-44 -32t-27.5 -39q0 -20 21 -20q8 0 24 4t27 8l12 3v-80q-42 -19 -82 -19q-42 0 -65 23t-23 55q0 66 72 107q-74 14 -121 66t-47 126v513h119v-513q0 -38 27 -63t68 -25q40 0 67 25t27 62v514z" />
    <glyph glyph-name="uogonek" unicode="&#x173;" 
d="M385 0l-8 48q-4 -6 -13 -15.5t-39 -25.5t-65 -16q-64 0 -106.5 48t-42.5 123v338h117v-340q0 -27 19 -47t47 -20q35 0 56.5 21.5t21.5 52.5v333h117v-500l-27.5 -15t-44 -32t-27.5 -39q0 -20 21 -20q8 0 24 4t27 8l12 3v-80q-42 -19 -82 -19q-42 0 -65 23t-23 55
q0 21 8.5 40t20 31.5t23.5 22t20 14.5z" />
    <glyph glyph-name="Wcircumflex" unicode="&#x174;" 
d="M231 499h134l59 -389h9l21 590h122l-44 -700h-174l-57 394h-6l-58 -394h-173l-44 700h122l21 -588h9zM474 755h-99l-76 79l-77 -79h-97l120 155h107z" />
    <glyph glyph-name="wcircumflex" unicode="&#x175;" 
d="M237 365h126l49 -284h7l2 73l22 346h113l-52 -500h-153l-44 246l-4 45h-6l-4 -45l-43 -246h-154l-52 500h113l22 -346l2 -73h8zM474 555h-99l-76 79l-77 -79h-97l120 155h107z" />
    <glyph glyph-name="Ycircumflex" unicode="&#x176;" 
d="M179 700l121 -273l120 273h130l-190 -400v-300h-121v301l-190 399h130zM474 755h-99l-76 79l-77 -79h-97l120 155h107z" />
    <glyph glyph-name="ycircumflex" unicode="&#x177;" 
d="M193 500l106 -321l107 321h125l-248 -680h-119l76 209l-172 471h125zM475 555h-99l-76 79l-77 -79h-97l120 155h107z" />
    <glyph glyph-name="Ydieresis" unicode="&#x178;" 
d="M179 700l121 -273l120 273h130l-190 -400v-300h-121v301l-190 399h130zM135 772v128h118v-128h-118zM345 772v128h118v-128h-118z" />
    <glyph glyph-name="Zacute" unicode="&#x179;" 
d="M509 595l-277 -486h276v-109h-417v105l281 486h-267v109h404v-105zM327 755h-96l105 155h149z" />
    <glyph glyph-name="zacute" unicode="&#x17a;" 
d="M486 399l-239 -298h243v-101h-381v99l237 299h-225v102h365v-101zM345 555h-96l105 155h149z" />
    <glyph glyph-name="Zdotaccent" unicode="&#x17b;" 
d="M509 595l-277 -486h276v-109h-417v105l281 486h-267v109h404v-105zM245 772v128h118v-128h-118z" />
    <glyph glyph-name="zdotaccent" unicode="&#x17c;" 
d="M486 399l-239 -298h243v-101h-381v99l237 299h-225v102h365v-101zM241 572v128h118v-128h-118z" />
    <glyph glyph-name="Zcaron" unicode="&#x17d;" 
d="M509 595l-277 -486h276v-109h-417v105l281 486h-267v109h404v-105zM133 910h99l76 -79l77 79h97l-120 -155h-107z" />
    <glyph glyph-name="zcaron" unicode="&#x17e;" 
d="M486 399l-239 -298h243v-101h-381v99l237 299h-225v102h365v-101zM125 710h99l76 -79l77 79h97l-120 -155h-107z" />
    <glyph glyph-name="florin" unicode="&#x192;" 
d="M231 -41v355h-127v107h127v137q0 67 42.5 109.5t111.5 42.5q20 0 45.5 -2t41.5 -4l16 -3v-105q-56 10 -96 10q-48 0 -48 -45v-140h151v-107h-151v-353q0 -68 -42.5 -110t-111.5 -42q-20 0 -41.5 3t-32.5 6l-12 3v104q40 -11 78 -11q24 0 36.5 12.5t12.5 32.5z" />
    <glyph glyph-name="AEacute" unicode="&#x1fc;" 
d="M172 700h390v-109h-162v-169h139v-108h-139v-205h170v-109h-286v199h-106l-40 -199h-122zM258 591l-57 -282h83v282h-26zM408 755h-96l105 155h149z" />
    <glyph glyph-name="aeacute" unicode="&#x1fd;" 
d="M414 -10q-32 0 -59.5 10.5t-39.5 21.5l-12 10q-47 -42 -109 -42q-64 0 -109 42.5t-45 121.5q0 70 42.5 107.5t112.5 42.5l56 4v35q0 66 -66 66q-21 0 -47.5 -5.5t-43.5 -11.5l-16 -5v101q65 22 125 22q31 0 56.5 -10.5t36.5 -21.5l10 -10q4 5 11.5 12t34 18.5t55.5 11.5
q73 0 112.5 -49t39.5 -123v-129h-202v-63q0 -24 16.5 -39.5t51.5 -15.5q23 0 51 5.5t45 10.5l17 5v-104q-63 -18 -124 -18zM202 91q22 0 35.5 16.5t13.5 43.5v61l-52 -3q-54 -3 -54 -54q0 -30 15.5 -47t41.5 -17zM357 341v-33h101v31q0 30 -13 50t-39 20q-25 0 -37 -19.5
t-12 -48.5zM344 555h-96l105 155h149z" />
    <glyph glyph-name="Oslashacute" unicode="&#x1fe;" 
d="M99 20l24 51q-37 51 -37 115v328q0 85 61.5 140.5t151.5 55.5q64 0 117 -31l15 31l68 -33l-24 -50q38 -49 38 -113v-328q0 -85 -62.5 -140.5t-151.5 -55.5q-66 0 -116 29l-15 -31zM204 514v-276l163 338q-28 26 -68 26q-41 0 -68 -25t-27 -63zM299 98q40 0 67 25t27 62
v271l-161 -334q27 -24 67 -24zM341 755h-96l105 155h149z" />
    <glyph glyph-name="oslashacute" unicode="&#x1ff;" 
d="M134 19l18 33q-39 45 -39 109v178q0 73 52 122t136 49q49 0 93 -21l13 24l58 -32l-18 -33q40 -46 40 -109v-178q0 -73 -51.5 -122t-134.5 -49q-52 0 -96 21l-13 -24zM230 342v-150l111 202q-18 13 -41 13q-28 0 -49 -19.5t-21 -45.5zM369 158v149l-111 -201
q20 -13 43 -13q29 0 48.5 19.5t19.5 45.5zM344 555h-96l105 155h149z" />
    <glyph glyph-name="Scommaaccent" unicode="&#x218;" 
d="M222 -180v117h117v-92q0 -78 -38.5 -110.5t-83.5 -32.5v60q23 0 33.5 17.5t10.5 40.5h-39zM278 99q52 0 81.5 25t29.5 64q0 37 -31 65.5t-75 49.5t-88 45.5t-75 67.5t-31 102q0 83 61 137.5t156 54.5q45 0 89 -10t65 -20l22 -10v-112q-95 44 -173 44q-47 0 -74.5 -22.5
t-27.5 -56.5q0 -28 22.5 -51t56 -38t73 -37t73 -45.5t56 -66t22.5 -97.5q0 -85 -63 -141t-163 -56q-48 0 -96 12.5t-72 24.5l-25 12v119q11 -7 30.5 -17t69 -26.5t87.5 -16.5z" />
    <glyph glyph-name="scommaaccent" unicode="&#x219;" 
d="M284 92q29 0 50 12.5t21 38.5q0 23 -23.5 39t-57 28.5t-67 28t-57 47.5t-23.5 77q0 66 52.5 106.5t132.5 40.5q32 0 66.5 -5t53.5 -11l18 -5v-105q-81 24 -137 24q-33 0 -50.5 -11.5t-17.5 -27.5q0 -20 23.5 -34t56.5 -26t66.5 -28.5t57 -50t23.5 -80.5q0 -69 -51 -114.5
t-141 -45.5q-35 0 -72 7t-56 15l-20 7v110q74 -37 152 -37zM230 -180v117h117v-92q0 -78 -38.5 -110.5t-83.5 -32.5v60q23 0 33.5 17.5t10.5 40.5h-39z" />
    <glyph glyph-name="circumflex" unicode="&#x2c6;" 
d="M474 555h-99l-76 79l-77 -79h-97l120 155h107z" />
    <glyph glyph-name="caron" unicode="&#x2c7;" 
d="M125 710h99l76 -79l77 79h97l-120 -155h-107z" />
    <glyph glyph-name="breve" unicode="&#x2d8;" 
d="M154 704h89q0 -24 15 -42t41 -18q28 0 43 17.5t15 42.5h89q0 -64 -40 -106.5t-107 -42.5q-66 0 -105.5 42.5t-39.5 106.5z" />
    <glyph glyph-name="dotaccent" unicode="&#x2d9;" 
d="M241 572v128h118v-128h-118z" />
    <glyph glyph-name="ring" unicode="&#x2da;" 
d="M187 638q0 41 31.5 67t79.5 26q47 0 80.5 -26.5t33.5 -66.5t-33.5 -66.5t-80.5 -26.5q-48 0 -79.5 26.5t-31.5 66.5zM264 639q0 -13 10 -22.5t24 -9.5q15 0 25 9.5t10 22.5q0 12 -10 21.5t-25 9.5q-14 0 -24 -9.5t-10 -21.5z" />
    <glyph glyph-name="ogonek" unicode="&#x2db;" 
d="M289 0h103l-27.5 -15t-44 -32t-27.5 -39q0 -20 21 -20q8 0 24 4t28 8l11 3v-80q-42 -19 -82 -19q-43 0 -65.5 23t-22.5 55q0 33 20.5 61t40.5 39z" />
    <glyph glyph-name="tilde" unicode="&#x2dc;" 
d="M214 571h-74q0 48 28 86t68 38q26 0 67.5 -20.5t54.5 -20.5q11 0 19 12.5t8 24.5h74q0 -48 -27.5 -86t-66.5 -38q-26 0 -67 20t-55 20q-11 0 -20 -11.5t-9 -24.5z" />
    <glyph glyph-name="hungarumlaut" unicode="&#x2dd;" 
d="M171 555h-96l90 155h149zM382 555h-96l90 155h149z" />
    <glyph glyph-name="Wgrave" unicode="&#x1e80;" 
d="M231 499h134l59 -389h9l21 590h122l-44 -700h-174l-57 394h-6l-58 -394h-173l-44 700h122l21 -588h9zM353 755h-96l-158 155h149z" />
    <glyph glyph-name="wgrave" unicode="&#x1e81;" 
d="M237 365h126l49 -284h7l2 73l22 346h113l-52 -500h-153l-44 246l-4 45h-6l-4 -45l-43 -246h-154l-52 500h113l22 -346l2 -73h8zM352 555h-96l-158 155h149z" />
    <glyph glyph-name="Wacute" unicode="&#x1e82;" 
d="M231 499h134l59 -389h9l21 590h122l-44 -700h-174l-57 394h-6l-58 -394h-173l-44 700h122l21 -588h9zM342 755h-96l105 155h149z" />
    <glyph glyph-name="wacute" unicode="&#x1e83;" 
d="M237 365h126l49 -284h7l2 73l22 346h113l-52 -500h-153l-44 246l-4 45h-6l-4 -45l-43 -246h-154l-52 500h113l22 -346l2 -73h8zM343 555h-96l105 155h149z" />
    <glyph glyph-name="Wdieresis" unicode="&#x1e84;" 
d="M231 499h134l59 -389h9l21 590h122l-44 -700h-174l-57 394h-6l-58 -394h-173l-44 700h122l21 -588h9zM135 772v128h118v-128h-118zM345 772v128h118v-128h-118z" />
    <glyph glyph-name="wdieresis" unicode="&#x1e85;" 
d="M237 365h126l49 -284h7l2 73l22 346h113l-52 -500h-153l-44 246l-4 45h-6l-4 -45l-43 -246h-154l-52 500h113l22 -346l2 -73h8zM136 572v128h118v-128h-118zM346 572v128h118v-128h-118z" />
    <glyph glyph-name="Ygrave" unicode="&#x1ef2;" 
d="M179 700l121 -273l120 273h130l-190 -400v-300h-121v301l-190 399h130zM368 755h-96l-158 155h149z" />
    <glyph glyph-name="ygrave" unicode="&#x1ef3;" 
d="M193 500l106 -321l107 321h125l-248 -680h-119l76 209l-172 471h125zM357 555h-96l-158 155h149z" />
    <glyph glyph-name="endash" unicode="&#x2013;" 
d="M502 333v-108h-404v108h404z" />
    <glyph glyph-name="emdash" unicode="&#x2014;" 
d="M656 333v-108h-712v108h712z" />
    <glyph glyph-name="quoteleft" unicode="&#x2018;" 
d="M356 592v-117h-117v92q0 78 38.5 110.5t83.5 32.5v-60q-23 0 -33.5 -17.5t-10.5 -40.5h39z" />
    <glyph glyph-name="quoteright" unicode="&#x2019;" 
d="M244 583v117h117v-92q0 -78 -38.5 -110.5t-83.5 -32.5v60q23 0 33.5 17.5t10.5 40.5h-39z" />
    <glyph glyph-name="quotesinglbase" unicode="&#x201a;" 
d="M244 0v117h117v-92q0 -78 -38.5 -110.5t-83.5 -32.5v60q23 0 33.5 17.5t10.5 40.5h-39z" />
    <glyph glyph-name="quotedblleft" unicode="&#x201c;" 
d="M449 592v-117h-117v92q0 78 38.5 110.5t83.5 32.5v-60q-23 0 -33.5 -17.5t-10.5 -40.5h39zM262 592v-117h-117v92q0 78 38.5 110.5t83.5 32.5v-60q-23 0 -33.5 -17.5t-10.5 -40.5h39z" />
    <glyph glyph-name="quotedblright" unicode="&#x201d;" 
d="M150 584v117h117v-92q0 -78 -38.5 -110.5t-83.5 -32.5v60q23 0 33.5 17.5t10.5 40.5h-39zM337 584v117h117v-92q0 -78 -38.5 -110.5t-83.5 -32.5v60q23 0 33.5 17.5t10.5 40.5h-39z" />
    <glyph glyph-name="quotedblbase" unicode="&#x201e;" 
d="M150 0v117h117v-92q0 -78 -38.5 -110.5t-83.5 -32.5v60q23 0 33.5 17.5t10.5 40.5h-39zM337 0v117h117v-92q0 -78 -38.5 -110.5t-83.5 -32.5v60q23 0 33.5 17.5t10.5 40.5h-39z" />
    <glyph glyph-name="dagger" unicode="&#x2020;" 
d="M469 500v-107l-121 8l10 -476h-118l10 476l-119 -8v107l119 -8l-10 208h118l-10 -208z" />
    <glyph glyph-name="daggerdbl" unicode="&#x2021;" 
d="M469 231v-107l-121 8l10 -207h-118l9 207l-118 -8v107l118 -8v178l-118 -8v107l118 -8l-9 208h118l-10 -208l121 8v-107l-121 8v-178z" />
    <glyph glyph-name="bullet" unicode="&#x2022;" 
d="M140 349q0 66 47 113t114 47q65 0 112 -47t47 -113t-47 -113.5t-112 -47.5q-67 0 -114 47t-47 114z" />
    <glyph glyph-name="ellipsis" unicode="&#x2026;" 
d="M0 0v128h127v-128h-127zM237 0v128h127v-128h-127zM473 0v128h127v-128h-127z" />
    <glyph glyph-name="perthousand" unicode="&#x2030;" 
d="M275 166v-55q0 -52 -33.5 -86t-90.5 -34q-56 0 -89.5 34t-33.5 86v55q0 51 33.5 85.5t89.5 34.5q57 0 90.5 -34.5t33.5 -85.5zM190 109v58q0 15 -11.5 26.5t-28.5 11.5q-15 0 -27 -11.5t-12 -26.5v-58q0 -14 12 -25.5t28 -11.5t27.5 11t11.5 26zM430 590v-55
q0 -51 -35.5 -85.5t-91.5 -34.5q-58 0 -94 34.5t-36 85.5v55q0 51 36 85.5t94 34.5q56 0 91.5 -34.5t35.5 -85.5zM342 533v59q0 15 -12 26t-28 11t-28 -11t-12 -26v-59q0 -15 12 -25.5t29 -10.5q16 0 27.5 10.5t11.5 25.5zM565 389v-77h-528v77h528zM574 166v-55
q0 -52 -33.5 -86t-90.5 -34q-56 0 -89.5 34t-33.5 86v55q0 51 33.5 85.5t89.5 34.5q57 0 90.5 -34.5t33.5 -85.5zM489 109v58q0 15 -11.5 26.5t-28.5 11.5q-15 0 -27 -11.5t-12 -26.5v-58q0 -14 12 -25.5t28 -11.5t27.5 11t11.5 26z" />
    <glyph glyph-name="guilsinglleft" unicode="&#x2039;" 
d="M436 120h-143l-130 167l130 168h142l-129 -168z" />
    <glyph glyph-name="guilsinglright" unicode="&#x203a;" 
d="M306 120h-142l129 167l-130 168h143l130 -168z" />
    <glyph glyph-name="fraction" unicode="&#x2044;" 
d="M70 0l361 700h99l-359 -700h-101z" />
    <glyph glyph-name="zerosuperior" unicode="&#x2070;" 
d="M433 582v-184q0 -56 -39.5 -93.5t-94.5 -37.5t-94 37.5t-39 93.5v184q0 54 39 91t94 37t94.5 -37t39.5 -91zM335 398v185q0 15 -11.5 26t-24.5 11q-14 0 -25 -11t-11 -27v-184q0 -18 11 -29t25 -11t25 11t11 29z" />
    <glyph glyph-name="foursuperior" unicode="&#x2074;" 
d="M157 354v83l126 264h105l-123 -257h50v58h96v-58h31v-90h-31v-77h-96v77h-158z" />
    <glyph glyph-name="fivesuperior" unicode="&#x2075;" 
d="M427 451v-58q0 -57 -36 -91.5t-101 -34.5q-28 0 -57.5 6.5t-44.5 13.5l-16 7v96q65 -33 114 -33q21 0 33 11t12 29v46q0 18 -10.5 29.5t-28.5 11.5q-11 0 -24.5 -4.5t-21.5 -9.5l-8 -4l-62 27l15 207h222v-84h-138l-6 -54q19 8 38 8q51 0 85.5 -33t34.5 -86z" />
    <glyph glyph-name="sixsuperior" unicode="&#x2076;" 
d="M300 484q-13 0 -23 -9.5t-10 -21.5v-65q0 -13 9.5 -22t23.5 -9q13 0 22 9t9 23v64q0 12 -9 21.5t-22 9.5zM304 710q24 0 50 -4t40 -8l15 -5v-85q-59 15 -101 15q-16 0 -28.5 -11t-12.5 -25v-23q16 8 41 8q51 0 86 -34.5t35 -86.5v-60q0 -52 -36.5 -88t-92.5 -36
q-53 0 -91 36.5t-38 87.5v195q0 52 37 88t96 36z" />
    <glyph glyph-name="sevensuperior" unicode="&#x2077;" 
d="M339 277h-98q0 65 15.5 129t39.5 127t29 83h-153v84h255v-65q0 -28 -22 -85t-44 -131t-22 -142z" />
    <glyph glyph-name="eightsuperior" unicode="&#x2078;" 
d="M424 590v-19q0 -17 -6.5 -35.5t-13.5 -27.5l-6 -10q32 -26 32 -79v-26q0 -53 -37.5 -89.5t-93.5 -36.5q-55 0 -92.5 37t-37.5 89v26q0 24 8 43.5t16 27.5l8 8q-26 31 -26 73v19q0 50 35.5 85t88.5 35q54 0 89.5 -35t35.5 -85zM333 390v28q0 13 -10 23t-24 10
q-13 0 -23 -9.5t-10 -23.5v-27q0 -13 10 -23t23 -10q14 0 24 9.5t10 22.5zM329 569v20q0 13 -8.5 22t-21.5 9t-21 -9t-8 -22v-19q0 -12 8 -20.5t21 -8.5q12 0 21 8t9 20z" />
    <glyph glyph-name="ninesuperior" unicode="&#x2079;" 
d="M300 493q13 0 23 9.5t10 21.5v65q0 13 -9.5 22t-23.5 9q-13 0 -22 -9t-9 -23v-64q0 -12 9 -21.5t22 -9.5zM296 267q-24 0 -50 4.5t-40 8.5l-15 4v85q59 -15 101 -15q16 0 28.5 11t12.5 25v23q-16 -8 -41 -8q-51 0 -86 34.5t-35 86.5v60q0 52 36.5 88t92.5 36
q53 0 91 -36.5t38 -87.5v-195q0 -52 -37 -88t-96 -36z" />
    <glyph glyph-name="parenleftsuperior" unicode="&#x207d;" 
d="M377 304v-94q-66 0 -110 36t-44 87v296q0 51 44 86.5t110 35.5v-93q-26 0 -43.5 -12.5t-17.5 -33.5v-263q0 -21 17.5 -33t43.5 -12z" />
    <glyph glyph-name="parenrightsuperior" unicode="&#x207e;" 
d="M223 657v94q66 0 110 -36t44 -87v-296q0 -51 -44 -86.5t-110 -35.5v93q26 0 43.5 12.5t17.5 33.5v263q0 21 -17.5 33t-43.5 12z" />
    <glyph glyph-name="zeroinferior" unicode="&#x2080;" 
d="M433 125v-184q0 -56 -39.5 -93.5t-94.5 -37.5t-94 37.5t-39 93.5v184q0 54 39 91t94 37t94.5 -37t39.5 -91zM335 -59v185q0 15 -11.5 26t-24.5 11q-14 0 -25 -11t-11 -27v-184q0 -18 11 -29t25 -11t25 11t11 29z" />
    <glyph glyph-name="oneinferior" unicode="&#x2081;" 
d="M214 102v101l88 40h84v-423h-102v312z" />
    <glyph glyph-name="twoinferior" unicode="&#x2082;" 
d="M176 119v102q59 32 120 32q56 0 93 -36t37 -95q0 -60 -67 -139l-56 -66h127v-97h-260v87l124 148q33 41 33 67q0 16 -11 26t-30 10q-17 0 -44.5 -10t-46.5 -20z" />
    <glyph glyph-name="threeinferior" unicode="&#x2083;" 
d="M255 -1v88h44q12 0 19.5 7t7.5 17v21q0 28 -41 28q-19 0 -45.5 -5t-43.5 -11l-18 -5v94q62 20 119 20q59 0 94 -33t35 -85v-18q0 -20 -7.5 -37t-14.5 -24l-8 -8q4 -2 10 -7t15.5 -24.5t9.5 -44.5v-34q0 -58 -37.5 -93t-103.5 -35q-32 0 -62.5 6t-45.5 12l-14 7v100
q59 -32 114 -32q24 0 36.5 11t12.5 25v30q0 12 -9.5 21t-22.5 9h-44z" />
    <glyph glyph-name="fourinferior" unicode="&#x2084;" 
d="M157 -103v83l126 264h105l-123 -257h50v58h96v-58h31v-90h-31v-77h-96v77h-158z" />
    <glyph glyph-name="fiveinferior" unicode="&#x2085;" 
d="M427 -6v-58q0 -57 -36 -91.5t-101 -34.5q-28 0 -57.5 7t-44.5 13l-16 7v96q65 -33 114 -33q21 0 33 11t12 29v46q0 18 -10.5 29.5t-28.5 11.5q-11 0 -24.5 -4.5t-21.5 -8.5l-8 -5l-62 27l15 207h222v-84h-138l-6 -54q19 8 38 8q51 0 85.5 -33t34.5 -86z" />
    <glyph glyph-name="sixinferior" unicode="&#x2086;" 
d="M300 27q-13 0 -23 -9.5t-10 -21.5v-65q0 -13 9.5 -22t23.5 -9q13 0 22 9t9 23v64q0 12 -9 21.5t-22 9.5zM304 253q24 0 50 -4.5t40 -8.5l15 -4v-85q-59 15 -101 15q-16 0 -28.5 -11t-12.5 -25v-23q16 8 41 8q51 0 86 -34.5t35 -86.5v-60q0 -52 -36.5 -88t-92.5 -36
q-53 0 -91 36.5t-38 87.5v195q0 52 37 88t96 36z" />
    <glyph glyph-name="seveninferior" unicode="&#x2087;" 
d="M339 -180h-98q0 65 15.5 129t39.5 127t29 83h-153v84h255v-65q0 -28 -22 -85t-44 -131t-22 -142z" />
    <glyph glyph-name="eightinferior" unicode="&#x2088;" 
d="M424 133v-19q0 -17 -6.5 -35.5t-13.5 -28.5l-6 -9q32 -26 32 -79v-26q0 -53 -37.5 -89.5t-93.5 -36.5q-55 0 -92.5 37t-37.5 89v26q0 24 8 43.5t16 27.5l8 8q-26 31 -26 73v19q0 50 35.5 85t88.5 35q54 0 89.5 -35t35.5 -85zM333 -67v28q0 13 -10 23t-24 10
q-13 0 -23 -10t-10 -23v-27q0 -14 10 -23.5t23 -9.5q14 0 24 9.5t10 22.5zM329 112v20q0 13 -8.5 22t-21.5 9t-21 -9t-8 -22v-19q0 -12 8 -20.5t21 -8.5q12 0 21 8t9 20z" />
    <glyph glyph-name="nineinferior" unicode="&#x2089;" 
d="M300 36q13 0 23 9.5t10 21.5v65q0 13 -9.5 22t-23.5 9q-13 0 -22 -9t-9 -23v-64q0 -12 9 -21.5t22 -9.5zM296 -190q-24 0 -50 4t-40 8l-15 5v85q59 -15 101 -15q16 0 28.5 11t12.5 25v23q-16 -8 -41 -8q-51 0 -86 34.5t-35 86.5v60q0 52 36.5 88t92.5 36q53 0 91 -36.5
t38 -87.5v-195q0 -52 -37 -88t-96 -36z" />
    <glyph glyph-name="parenleftinferior" unicode="&#x208d;" 
d="M377 -153v-94q-66 0 -110 36t-44 87v296q0 51 44 86.5t110 35.5v-93q-26 0 -43.5 -12.5t-17.5 -33.5v-263q0 -21 17.5 -33t43.5 -12z" />
    <glyph glyph-name="parenrightinferior" unicode="&#x208e;" 
d="M223 200v94q66 0 110 -36t44 -87v-296q0 -51 -44 -86.5t-110 -35.5v93q26 0 43.5 12.5t17.5 33.5v263q0 21 -17.5 33t-43.5 12z" />
    <glyph glyph-name="Euro" unicode="&#x20ac;" 
d="M244 521v-42h163v-100h-163v-58h163v-100h-163v-42q0 -32 25 -56t58 -24q32 0 56 22.5t25 53.5h120q-1 -78 -59 -131.5t-142 -53.5q-83 0 -141.5 56t-58.5 136v39h-55v100h55v58h-55v100h55v39q0 80 58.5 136t141.5 56q86 0 142.5 -51.5t57.5 -135.5h-120q-1 35 -24 56.5
t-56 21.5t-58 -23.5t-25 -56.5z" />
    <glyph glyph-name="trademark" unicode="&#x2122;" 
d="M42 634v66h205v-66h-68v-273h-72v273h-65zM454 700h85v-339h-69v174l4 61l-36 -91h-55l-38 91l4 -61v-174h-68v339h85l44 -112z" />
    <glyph glyph-name="minus" unicode="&#x2212;" 
d="M529 335v-119h-458v119h458z" />
    <glyph glyph-name="uni2215" unicode="&#x2215;" 
d="M70 0l361 700h99l-359 -700h-101z" />
    <glyph glyph-name="approxequal" unicode="&#x2248;" 
d="M71 284v117q6 5 18 12.5t47.5 20.5t71.5 13q42 0 103 -26.5t86 -26.5q21 0 54 13t55 25l23 13v-106q-6 -5 -17.5 -12.5t-46 -20t-68.5 -12.5q-43 0 -108 26.5t-81 26.5q-28 0 -62 -15.5t-54 -31.5zM71 95v117q6 5 18 12.5t47.5 20.5t71.5 13q42 0 103 -26.5t86 -26.5
q21 0 54 12.5t55 25.5l23 13v-106q-6 -5 -17.5 -12.5t-46 -20t-68.5 -12.5q-43 0 -108 26.5t-81 26.5q-28 0 -62 -15.5t-54 -31.5z" />
    <glyph glyph-name="notequal" unicode="&#x2260;" 
d="M529 435v-118h-158l-41 -82h199v-117h-258l-33 -65h-106l33 65h-94v117h153l41 82h-194v118h254l33 65h106l-33 -65h98z" />
    <glyph glyph-name="lessequal" unicode="&#x2264;" 
d="M529 109v-109h-458v109h458zM71 283v105l458 146v-130l-279 -69l279 -67v-132z" />
    <glyph glyph-name="greaterequal" unicode="&#x2265;" 
d="M529 388v-105l-458 -147v132l279 67l-279 69v130zM71 0v109h458v-109h-458z" />
    <glyph glyph-name="cent.denominator" unicode="&#xf629;" 
d="M252 -7v27q-35 10 -55 38.5t-20 66.5v179q0 35 20.5 63t54.5 40v28h93v-26q35 -14 55 -46t20 -76h-92q0 47 -28 47q-10 0 -19.5 -8t-9.5 -16v-194q0 -9 8.5 -16t19.5 -7q29 0 29 48h95q0 -99 -80 -124v-24h-91z" />
    <glyph glyph-name="dollar.denominator" unicode="&#xf62a;" 
d="M255 -7v21q-35 13 -56.5 43t-21.5 67v13h90v-19q0 -13 8.5 -21t23.5 -8q31 0 31 32q0 16 -15 30.5t-37 27.5t-44 29t-37 41.5t-15 58.5q0 35 20 62t53 41v24h88v-23q74 -32 76 -119h-90q-1 44 -29 44q-12 0 -20 -8.5t-8 -19.5q0 -17 23.5 -35t52 -33t52 -46.5t23.5 -72.5
q0 -40 -22.5 -68.5t-57.5 -40.5v-20h-88z" />
    <glyph glyph-name="hyphen.denominator" unicode="&#xf62b;" 
d="M392 260v-84h-185v84h185z" />
    <glyph glyph-name="parenleft.denominator" unicode="&#xf62c;" 
d="M377 29v-94q-66 0 -110 36t-44 87v296q0 51 44 86.5t110 35.5v-93q-26 0 -43.5 -12.5t-17.5 -33.5v-263q0 -21 17.5 -33t43.5 -12z" />
    <glyph glyph-name="parenright.denominator" unicode="&#xf62d;" 
d="M223 382v94q66 0 110 -36t44 -87v-296q0 -51 -44 -86.5t-110 -35.5v93q26 0 43.5 12.5t17.5 33.5v263q0 21 -17.5 33t-43.5 12z" />
    <glyph glyph-name="cent.numerator" unicode="&#xf62e;" 
d="M252 268v27q-35 10 -55 38.5t-20 66.5v179q0 35 20.5 63t54.5 40v28h93v-26q35 -14 55 -46t20 -76h-92q0 47 -28 47q-10 0 -19.5 -8t-9.5 -16v-194q0 -9 8.5 -16t19.5 -7q29 0 29 48h95q0 -99 -80 -124v-24h-91z" />
    <glyph glyph-name="dollar.numerator" unicode="&#xf62f;" 
d="M255 268v21q-35 13 -56.5 43t-21.5 67v13h90v-19q0 -13 8.5 -21t23.5 -8q31 0 31 32q0 16 -15 30.5t-37 27.5t-44 29t-37 41.5t-15 58.5q0 35 20 62t53 41v24h88v-23q74 -32 76 -119h-90q-1 44 -29 44q-12 0 -20 -8.5t-8 -19.5q0 -17 23.5 -35t52 -33t52 -46.5
t23.5 -72.5q0 -40 -22.5 -68.5t-57.5 -40.5v-20h-88z" />
    <glyph glyph-name="hyphen.numerator" unicode="&#xf630;" 
d="M392 535v-84h-185v84h185z" />
    <glyph glyph-name="parenleft.numerator" unicode="&#xf631;" 
d="M377 304v-94q-66 0 -110 36t-44 87v296q0 51 44 86.5t110 35.5v-93q-26 0 -43.5 -12.5t-17.5 -33.5v-263q0 -21 17.5 -33t43.5 -12z" />
    <glyph glyph-name="parenright.numerator" unicode="&#xf632;" 
d="M223 657v94q66 0 110 -36t44 -87v-296q0 -51 -44 -86.5t-110 -35.5v93q26 0 43.5 12.5t17.5 33.5v263q0 21 -17.5 33t-43.5 12z" />
    <glyph glyph-name="zero.slash" unicode="&#xf638;" 
d="M505 512v-319q0 -86 -60.5 -144t-144.5 -58q-85 0 -145 58t-60 144v319q0 84 60 141t145 57q84 0 144.5 -57.5t60.5 -140.5zM212 512v-199l173 214q-5 33 -30 53.5t-55 20.5q-34 0 -61 -25t-27 -64zM386 193v194l-172 -214q6 -34 31 -53.5t55 -19.5q35 0 60.5 25t25.5 68
z" />
    <glyph glyph-name="zero.denominator" unicode="&#xf655;" 
d="M433 305v-184q0 -56 -39.5 -93.5t-94.5 -37.5t-94 37.5t-39 93.5v184q0 54 39 91t94 37t94.5 -37t39.5 -91zM335 121v185q0 15 -11.5 26t-24.5 11q-14 0 -25 -11t-11 -27v-184q0 -18 11 -29t25 -11t25 11t11 29z" />
    <glyph glyph-name="one.denominator" unicode="&#xf656;" 
d="M214 282v101l88 40h84v-423h-102v312z" />
    <glyph glyph-name="two.denominator" unicode="&#xf657;" 
d="M176 299v102q59 32 120 32q56 0 93 -36t37 -95q0 -60 -67 -139l-56 -66h127v-97h-260v87l124 148q33 41 33 67q0 16 -11 26t-30 10q-17 0 -44.5 -10t-46.5 -20z" />
    <glyph glyph-name="three.denominator" unicode="&#xf658;" 
d="M255 179v88h44q12 0 19.5 7t7.5 17v21q0 28 -41 28q-19 0 -45.5 -5t-43.5 -11l-18 -5v94q62 20 119 20q59 0 94 -33t35 -85v-18q0 -20 -7.5 -37.5t-14.5 -24.5l-8 -7q4 -2 10 -7t15.5 -24.5t9.5 -44.5v-34q0 -58 -37.5 -93t-103.5 -35q-32 0 -62.5 6t-45.5 12l-14 7v100
q59 -32 114 -32q24 0 36.5 11t12.5 25v30q0 12 -9.5 21t-22.5 9h-44z" />
    <glyph glyph-name="four.denominator" unicode="&#xf659;" 
d="M157 77v83l126 264h105l-123 -257h50v58h96v-58h31v-90h-31v-77h-96v77h-158z" />
    <glyph glyph-name="five.denominator" unicode="&#xf65a;" 
d="M427 174v-58q0 -57 -36 -91.5t-101 -34.5q-28 0 -57.5 7t-44.5 13l-16 7v96q65 -33 114 -33q21 0 33 11t12 29v46q0 18 -10.5 29.5t-28.5 11.5q-11 0 -24.5 -4.5t-21.5 -8.5l-8 -5l-62 27l15 207h222v-84h-138l-6 -54q19 8 38 8q51 0 85.5 -33t34.5 -86z" />
    <glyph glyph-name="six.denominator" unicode="&#xf65b;" 
d="M300 207q-13 0 -23 -9.5t-10 -21.5v-65q0 -13 9.5 -22t23.5 -9q13 0 22 9t9 23v64q0 12 -9 21.5t-22 9.5zM304 433q24 0 50 -4.5t40 -8.5l15 -4v-85q-59 15 -101 15q-16 0 -28.5 -11t-12.5 -25v-23q16 8 41 8q51 0 86 -34.5t35 -86.5v-60q0 -52 -36.5 -88t-92.5 -36
q-53 0 -91 36.5t-38 87.5v195q0 52 37 88t96 36z" />
    <glyph glyph-name="seven.denominator" unicode="&#xf65c;" 
d="M339 0h-98q0 65 15.5 129t39.5 127t29 83h-153v84h255v-65q0 -28 -22 -85t-44 -131t-22 -142z" />
    <glyph glyph-name="eight.denominator" unicode="&#xf65d;" 
d="M424 313v-19q0 -17 -6.5 -35.5t-13.5 -28.5l-6 -9q32 -26 32 -79v-26q0 -53 -37.5 -89.5t-93.5 -36.5q-55 0 -92.5 37t-37.5 89v26q0 24 8 43.5t16 27.5l8 8q-26 31 -26 73v19q0 50 35.5 85t88.5 35q54 0 89.5 -35t35.5 -85zM333 113v28q0 13 -10 23t-24 10
q-13 0 -23 -10t-10 -23v-27q0 -14 10 -23.5t23 -9.5q14 0 24 9.5t10 22.5zM329 292v20q0 13 -8.5 22t-21.5 9t-21 -9t-8 -22v-19q0 -12 8 -20.5t21 -8.5q12 0 21 8t9 20z" />
    <glyph glyph-name="nine.denominator" unicode="&#xf65e;" 
d="M300 216q13 0 23 9.5t10 21.5v65q0 13 -9.5 22t-23.5 9q-13 0 -22 -9t-9 -23v-64q0 -12 9 -21.5t22 -9.5zM296 -10q-24 0 -50 4t-40 8l-15 5v85q59 -15 101 -15q16 0 28.5 11t12.5 25v23q-16 -8 -41 -8q-51 0 -86 34.5t-35 86.5v60q0 52 36.5 88t92.5 36q53 0 91 -36.5
t38 -87.5v-195q0 -52 -37 -88t-96 -36z" />
    <glyph glyph-name="comma.denominator" unicode="&#xf65f;" 
d="M254 0v96h96v-75q0 -64 -31.5 -91t-68.5 -27v49q19 0 27.5 14.5t8.5 33.5h-32z" />
    <glyph glyph-name="period.denominator" unicode="&#xf660;" 
d="M252 0v96h95v-96h-95z" />
    <glyph glyph-name="zero.numerator" unicode="&#xf661;" 
d="M433 582v-184q0 -56 -39.5 -93.5t-94.5 -37.5t-94 37.5t-39 93.5v184q0 54 39 91t94 37t94.5 -37t39.5 -91zM335 398v185q0 15 -11.5 26t-24.5 11q-14 0 -25 -11t-11 -27v-184q0 -18 11 -29t25 -11t25 11t11 29z" />
    <glyph glyph-name="one.numerator" unicode="&#xf662;" 
d="M214 559v101l88 40h84v-423h-102v312z" />
    <glyph glyph-name="two.numerator" unicode="&#xf663;" 
d="M176 576v102q59 32 120 32q56 0 93 -36t37 -95q0 -60 -67 -139l-56 -66h127v-97h-260v87l124 148q33 40 33 67q0 16 -11 26t-30 10q-17 0 -44.5 -9.5t-46.5 -19.5z" />
    <glyph glyph-name="three.numerator" unicode="&#xf664;" 
d="M255 456v88h44q12 0 19.5 7t7.5 17v21q0 28 -41 28q-19 0 -45.5 -5.5t-43.5 -10.5l-18 -5v94q62 20 119 20q59 0 94 -33t35 -85v-18q0 -20 -7.5 -37t-14.5 -25l-8 -7q4 -2 10 -7t15.5 -24.5t9.5 -44.5v-34q0 -58 -37.5 -93t-103.5 -35q-32 0 -62.5 6.5t-45.5 12.5l-14 6
v100q59 -32 114 -32q24 0 36.5 11t12.5 25v30q0 12 -9.5 21t-22.5 9h-44z" />
    <glyph glyph-name="four.numerator" unicode="&#xf665;" 
d="M157 354v83l126 264h105l-123 -257h50v58h96v-58h31v-90h-31v-77h-96v77h-158z" />
    <glyph glyph-name="five.numerator" unicode="&#xf666;" 
d="M427 451v-58q0 -57 -36 -91.5t-101 -34.5q-28 0 -57.5 6.5t-44.5 13.5l-16 7v96q65 -33 114 -33q21 0 33 11t12 29v46q0 18 -10.5 29.5t-28.5 11.5q-11 0 -24.5 -4.5t-21.5 -9.5l-8 -4l-62 27l15 207h222v-84h-138l-6 -54q19 8 38 8q51 0 85.5 -33t34.5 -86z" />
    <glyph glyph-name="six.numerator" unicode="&#xf667;" 
d="M300 484q-13 0 -23 -9.5t-10 -21.5v-65q0 -13 9.5 -22t23.5 -9q13 0 22 9t9 23v64q0 12 -9 21.5t-22 9.5zM304 710q24 0 50 -4t40 -8l15 -5v-85q-59 15 -101 15q-16 0 -28.5 -11t-12.5 -25v-23q16 8 41 8q51 0 86 -34.5t35 -86.5v-60q0 -52 -36.5 -88t-92.5 -36
q-53 0 -91 36.5t-38 87.5v195q0 52 37 88t96 36z" />
    <glyph glyph-name="seven.numerator" unicode="&#xf668;" 
d="M339 277h-98q0 65 15.5 129t39.5 127t29 83h-153v84h255v-65q0 -28 -22 -85t-44 -131t-22 -142z" />
    <glyph glyph-name="eight.numerator" unicode="&#xf669;" 
d="M424 590v-19q0 -17 -6.5 -35.5t-13.5 -27.5l-6 -10q32 -26 32 -79v-26q0 -53 -37.5 -89.5t-93.5 -36.5q-55 0 -92.5 37t-37.5 89v26q0 24 8 43.5t16 27.5l8 8q-26 31 -26 73v19q0 50 35.5 85t88.5 35q54 0 89.5 -35t35.5 -85zM333 390v28q0 13 -10 23t-24 10
q-13 0 -23 -9.5t-10 -23.5v-27q0 -13 10 -23t23 -10q14 0 24 9.5t10 22.5zM329 569v20q0 13 -8.5 22t-21.5 9t-21 -9t-8 -22v-19q0 -12 8 -20.5t21 -8.5q12 0 21 8t9 20z" />
    <glyph glyph-name="nine.numerator" unicode="&#xf66a;" 
d="M300 493q13 0 23 9.5t10 21.5v65q0 13 -9.5 22t-23.5 9q-13 0 -22 -9t-9 -23v-64q0 -12 9 -21.5t22 -9.5zM296 267q-24 0 -50 4.5t-40 8.5l-15 4v85q59 -15 101 -15q16 0 28.5 11t12.5 25v23q-16 -8 -41 -8q-51 0 -86 34.5t-35 86.5v60q0 52 36.5 88t92.5 36
q53 0 91 -36.5t38 -87.5v-195q0 -52 -37 -88t-96 -36z" />
    <glyph glyph-name="comma.numerator" unicode="&#xf66b;" 
d="M254 277v96h96v-75q0 -64 -31.5 -91t-68.5 -27v49q19 0 27.5 14.5t8.5 33.5h-32z" />
    <glyph glyph-name="period.numerator" unicode="&#xf66c;" 
d="M252 279v95h95v-95h-95z" />
    <glyph glyph-name="parenleft.cap" unicode="&#xf6ae;" 
d="M411 17v-116q-96 0 -159.5 56.5t-63.5 137.5v514q0 80 63.5 136t159.5 56v-115q-45 0 -76 -22t-31 -53v-521q0 -32 30.5 -52.5t76.5 -20.5z" />
    <glyph glyph-name="parenright.cap" unicode="&#xf6af;" 
d="M188 685v116q96 0 159.5 -56.5t63.5 -137.5v-514q0 -80 -63.5 -136t-159.5 -56v115q45 0 76 22t31 53v521q0 32 -30.5 52.5t-76.5 20.5z" />
    <glyph glyph-name="bracketleft.cap" unicode="&#xf6b0;" 
d="M411 20v-109h-223v880h223v-108h-107v-663h107z" />
    <glyph glyph-name="bracketright.cap" unicode="&#xf6b1;" 
d="M188 682v109h223v-880h-223v108h107v663h-107z" />
    <glyph glyph-name="braceleft.cap" unicode="&#xf6b2;" 
d="M436 17v-116q-93 0 -158 56t-65 136v166q0 17 -14 28t-35 11v106q21 0 35 12t14 28v166q0 79 65 135t158 56v-116q-44 0 -76 -22t-32 -54v-175q0 -48 -37 -83q37 -35 37 -83v-177q0 -31 32 -52.5t76 -21.5z" />
    <glyph glyph-name="braceright.cap" unicode="&#xf6b3;" 
d="M164 685v116q93 0 158 -56t65 -136v-166q0 -17 14 -28t35 -11v-106q-21 0 -35 -12t-14 -28v-166q0 -79 -65 -135t-158 -56v116q44 0 76 22t32 54v175q0 48 37 83q-37 35 -37 83v177q0 31 -32 52.5t-76 21.5z" />
    <glyph glyph-name="exclamdown.cap" unicode="&#xf6b4;" 
d="M362 339v-339h-125v339l10 157h105zM363 700v-128h-127v128h127z" />
    <glyph glyph-name="questiondown.cap" unicode="&#xf6b5;" 
d="M302 -11q-83 0 -139.5 50t-56.5 136q0 38 12 68t30 47.5l38.5 37.5l38.5 39t30 52t12 76h106q0 -58 -14.5 -103t-35.5 -71t-41.5 -47.5t-35 -45t-14.5 -51.5q0 -33 24 -56.5t63 -23.5q33 0 76.5 15.5t70.5 31.5l27 16v-114l-27 -15.5t-67.5 -25.5t-96.5 -16zM384 699
v-128h-127v128h127z" />
    <glyph glyph-name="guillemotleft.cap" unicode="&#xf6b6;" 
d="M310 185h-144l-129 167l129 168h142l-128 -168zM563 185h-145l-129 167l129 168h142l-129 -168z" />
    <glyph glyph-name="guillemotright.cap" unicode="&#xf6b7;" 
d="M434 183h-144l130 167l-128 168h142l129 -168zM182 183h-145l132 167l-129 168h142l129 -168z" />
    <glyph glyph-name="guilsinglleft.cap" unicode="&#xf6b8;" 
d="M436 184h-143l-130 167l130 168h142l-129 -168z" />
    <glyph glyph-name="guilsinglright.cap" unicode="&#xf6b9;" 
d="M306 183h-142l129 167l-130 168h143l130 -168z" />
    <glyph glyph-name="hyphen.cap" unicode="&#xf6ba;" 
d="M439 411v-109h-278v109h278z" />
    <glyph glyph-name="endash.cap" unicode="&#xf6bb;" 
d="M502 409v-107h-404v107h404z" />
    <glyph glyph-name="emdash.cap" unicode="&#xf6bc;" 
d="M656 409v-107h-712v107h712z" />
    <glyph glyph-name="periodcentered.cap" unicode="&#xf6bd;" 
d="M236 287v128h127v-128h-127z" />
    <glyph glyph-name="centinferior" unicode="&#xf6df;" 
d="M252 -189v27q-35 10 -55 38.5t-20 66.5v179q0 35 20.5 63t54.5 40v28h93v-26q35 -14 55 -46t20 -76h-92q0 47 -28 47q-10 0 -19.5 -8t-9.5 -16v-194q0 -9 8.5 -16t19.5 -7q29 0 29 48h95q0 -99 -80 -124v-24h-91z" />
    <glyph glyph-name="centsuperior" unicode="&#xf6e0;" 
d="M252 268v27q-35 10 -55 38.5t-20 66.5v179q0 35 20.5 63t54.5 40v28h93v-26q35 -14 55 -46t20 -76h-92q0 47 -28 47q-10 0 -19.5 -8t-9.5 -16v-194q0 -9 8.5 -16t19.5 -7q29 0 29 48h95q0 -99 -80 -124v-24h-91z" />
    <glyph glyph-name="commainferior" unicode="&#xf6e1;" 
d="M254 -180v96h96v-75q0 -64 -31.5 -91t-68.5 -27v49q19 0 27.5 14.5t8.5 33.5h-32z" />
    <glyph glyph-name="commasuperior" unicode="&#xf6e2;" 
d="M254 277v96h96v-75q0 -64 -31.5 -91t-68.5 -27v49q19 0 27.5 14.5t8.5 33.5h-32z" />
    <glyph glyph-name="dollarinferior" unicode="&#xf6e3;" 
d="M255 -189v21q-35 13 -56.5 43t-21.5 67v13h90v-19q0 -13 8.5 -21t23.5 -8q31 0 31 32q0 16 -15 30.5t-37 27.5t-44 29t-37 41.5t-15 58.5q0 35 20 62t53 41v24h88v-23q74 -32 76 -119h-90q-1 44 -29 44q-12 0 -20 -8.5t-8 -19.5q0 -17 23.5 -35t52 -33t52 -46.5
t23.5 -72.5q0 -40 -22.5 -68.5t-57.5 -40.5v-20h-88z" />
    <glyph glyph-name="dollarsuperior" unicode="&#xf6e4;" 
d="M255 268v21q-35 13 -56.5 43t-21.5 67v13h90v-19q0 -13 8.5 -21t23.5 -8q31 0 31 32q0 16 -15 30.5t-37 27.5t-44 29t-37 41.5t-15 58.5q0 35 20 62t53 41v24h88v-23q74 -32 76 -119h-90q-1 44 -29 44q-12 0 -20 -8.5t-8 -19.5q0 -17 23.5 -35t52 -33t52 -46.5
t23.5 -72.5q0 -40 -22.5 -68.5t-57.5 -40.5v-20h-88z" />
    <glyph glyph-name="hypheninferior" unicode="&#xf6e5;" 
d="M392 78v-84h-185v84h185z" />
    <glyph glyph-name="hyphensuperior" unicode="&#xf6e6;" 
d="M392 535v-84h-185v84h185z" />
    <glyph glyph-name="periodinferior" unicode="&#xf6e7;" 
d="M252 -180v96h95v-96h-95z" />
    <glyph glyph-name="periodsuperior" unicode="&#xf6e8;" 
d="M252 279v95h95v-95h-95z" />
    <glyph glyph-name="commaaccent" 
d="M244 -180v117h117v-92q0 -78 -38.5 -110.5t-83.5 -32.5v60q23 0 33.5 17.5t10.5 40.5h-39z" />
  </font>
</defs>
</svg>
