<?xml version="1.0" standalone="no"?>
<!DOCTYPE svg PUBLIC "-//W3C//DTD SVG 1.1//EN" "http://www.w3.org/Graphics/SVG/1.1/DTD/svg11.dtd" >
<svg>
<metadata>
Created by FontForge 20090622 at Sun Mar 17 22:46:51 2013
 By root
Copyright (c) 2012 by Ramiz Guseynov. All rights reserved.
</metadata>
<defs>
<font id="CentimaMono" horiz-adv-x="600" >
  <font-face 
    font-family="Centima Mono"
    font-weight="400"
    font-stretch="normal"
    units-per-em="1000"
    panose-1="2 0 5 6 0 0 0 2 0 4"
    ascent="750"
    descent="-250"
    x-height="499"
    cap-height="700"
    bbox="-54 -255 655 910"
    underline-thickness="50"
    underline-position="-50"
    unicode-range="U+0020-U+FB02"
  />
<missing-glyph 
 />
    <glyph glyph-name="fi" unicode="fi" 
d="M321 0v69h69v362h-183v-431h-78v431h-70v69h70v72q0 61 39 99.5t101 38.5q20 0 41.5 -2t33.5 -4l12 -1v-70q-48 8 -87 8q-29 0 -45.5 -18t-16.5 -48v-75h261v-431h73v-69h-220zM390 607v93h78v-93h-78z" />
    <glyph glyph-name="fl" unicode="fl" 
d="M321 0v69h69v566q-74 6 -121 6q-29 0 -45.5 -18t-16.5 -48v-75h127v-69h-127v-431h-78v431h-70v69h70v72q0 61 39 99.5t101 38.5l199 -10v-631h73v-69h-220z" />
    <glyph glyph-name=".notdef" 
 />
    <glyph glyph-name=".null" horiz-adv-x="0" 
 />
    <glyph glyph-name="nonmarkingreturn" 
 />
    <glyph glyph-name="space" unicode=" " 
 />
    <glyph glyph-name="exclam" unicode="!" 
d="M251 0v98h98v-98h-98zM340 700v-370l-10 -165h-61l-10 165v370h81z" />
    <glyph glyph-name="quotedbl" unicode="&#x22;" 
d="M191 464v236h76l-20 -236h-56zM332 464v236h76l-20 -236h-56z" />
    <glyph glyph-name="numbersign" unicode="#" 
d="M513 267v-75h-109l-27 -192h-67l26 192h-116l-27 -192h-66l27 192h-100v75h111l22 158h-101v75h112l28 200h66l-29 -200h117l29 200h68l-29 -200h97v-75h-107l-23 -158h98zM230 267h117l22 158h-116z" />
    <glyph glyph-name="dollar" unicode="$" 
d="M260 -48v49q-67 9 -109 60t-42 121v30h83v-30q0 -45 29.5 -75t79.5 -30q49 0 77.5 28t28.5 69q0 50 -30 84t-72.5 55l-84.5 43.5t-72 63t-30 100.5q0 64 40 114t102 64v50h79v-50q65 -13 105 -63.5t40 -126.5h-84q0 51 -27 82.5t-72 31.5q-43 0 -70.5 -28t-27.5 -69
q0 -39 29.5 -67t72 -48.5t85 -45t72 -70.5t29.5 -112q0 -70 -42.5 -121t-109.5 -60v-49h-79z" />
    <glyph glyph-name="percent" unicode="%" 
d="M418 181v-81q0 -47 -33 -78.5t-86 -31.5q-52 0 -85 31.5t-33 78.5v81q0 46 33 77.5t85 31.5q53 0 86 -31.5t33 -77.5zM357 101v78q0 23 -16.5 40t-42.5 17q-23 0 -40.5 -17t-17.5 -40v-78q0 -21 18 -39t41 -18q25 0 41.5 17.5t16.5 39.5zM417 600v-81q0 -47 -32.5 -78.5
t-84.5 -31.5q-54 0 -87 31.5t-33 78.5v81q0 47 33 78.5t87 31.5q52 0 84.5 -31.5t32.5 -78.5zM358 520v79q0 22 -17.5 39.5t-41.5 17.5t-41.5 -17.5t-17.5 -39.5v-79q0 -22 17.5 -39t42.5 -17q24 0 41 17t17 39zM500 380v-61h-400v61h400z" />
    <glyph glyph-name="ampersand" unicode="&#x26;" 
d="M570 133l-51 -54l-49 44q-20 -59 -68 -96t-111 -37q-87 0 -142.5 53t-55.5 135v80q0 91 71 147q-50 54 -50 135q0 70 52 120t135 50q37 0 71 -9t48 -15.5t19 -10.5v-76q-80 36 -138 36q-48 0 -79.5 -29t-31.5 -74q0 -40 35 -75l182 -172v62h75v-132zM291 66q47 0 80 34.5
t35 81.5l-182 171q-49 -35 -49 -95v-80q0 -48 32.5 -80t83.5 -32z" />
    <glyph glyph-name="quotesingle" unicode="'" 
d="M262 464v236h76l-20 -236h-56z" />
    <glyph glyph-name="parenleft" unicode="(" 
d="M398 -113v-77q-82 0 -139.5 54t-57.5 131v532q0 76 57.5 130t139.5 54v-79q-49 0 -82.5 -31t-33.5 -75v-532q0 -45 33.5 -76t82.5 -31z" />
    <glyph glyph-name="parenright" unicode=")" 
d="M201 -190v77q49 0 82 31t33 76v532q0 45 -33 75.5t-82 30.5v79q82 0 140 -54t58 -130v-532q0 -76 -58 -130.5t-140 -54.5z" />
    <glyph glyph-name="asterisk" unicode="*" 
d="M266 699h68v-72l73 23l20 -61l-74 -27l46 -60l-55 -39l-44 58l-39 -58l-56 37l41 61l-73 21l20 64l73 -21v74z" />
    <glyph glyph-name="plus" unicode="+" 
d="M259 497h81v-165h166v-81h-166v-166h-81v166h-166v81h166v165z" />
    <glyph glyph-name="comma" unicode="," 
d="M254 0v98h98v-88q0 -127 -105 -127v44q49 2 49 73h-42z" />
    <glyph glyph-name="hyphen" unicode="-" 
d="M422 332v-78h-244v78h244z" />
    <glyph glyph-name="period" unicode="." 
d="M251 0v98h98v-98h-98z" />
    <glyph glyph-name="slash" unicode="/" 
d="M82 0l361 700h74l-361 -700h-74z" />
    <glyph glyph-name="zero" unicode="0" 
d="M490 526v-352q0 -76 -56 -130t-135 -54t-134 54t-55 131v351q0 77 55 130.5t134 53.5t135 -54t56 -130zM407 170v358q0 44 -32.5 75t-75.5 31q-42 0 -74.5 -31.5t-32.5 -74.5v-357q0 -43 32.5 -74t75.5 -31q42 0 74.5 30.5t32.5 73.5z" />
    <glyph glyph-name="one" unicode="1" 
d="M123 0v74h149v545l-149 -71v81l145 71h84v-626h145v-74h-374z" />
    <glyph glyph-name="two" unicode="2" 
d="M118 579v83q8 5 23 13t61 21.5t92 13.5q82 0 136 -54.5t54 -141.5q0 -42 -20 -87.5t-40.5 -73t-51.5 -64.5l-180 -210h300v-79h-384v93l220 264q40 48 56.5 82.5t16.5 74.5q0 54 -32.5 86.5t-78.5 32.5q-39 0 -82 -13.5t-66 -27.5z" />
    <glyph glyph-name="three" unicode="3" 
d="M264 331v77h22q43 0 71.5 28t28.5 70v28q0 44 -25.5 72t-73.5 28q-36 0 -74 -10t-58 -20l-20 -11v79q70 38 151 38q86 0 135 -49.5t49 -125.5v-28q0 -42 -17 -75.5t-34 -45.5l-17 -13l8.5 -5.5t18.5 -16.5t23 -28.5t18.5 -41.5t8.5 -55v-47q0 -85 -53 -137t-150 -52
q-44 0 -83 11.5t-56 22.5l-17 12v81q81 -51 156 -51q60 0 89.5 30t29.5 80v49q0 44 -31.5 75t-77.5 31h-22z" />
    <glyph glyph-name="four" unicode="4" 
d="M99 148v78l214 474h87l-210 -471h181v101h84v-101h45v-81h-45v-148h-84v148h-272z" />
    <glyph glyph-name="five" unicode="5" 
d="M479 289v-110q0 -85 -53 -137t-150 -52q-44 0 -83 11.5t-56 22.5l-17 12v81q81 -51 156 -51q60 0 89.5 30t29.5 80v114q0 46 -27.5 76t-79.5 30q-27 0 -51.5 -7t-35.5 -14l-11 -7l-62 27l22 305h305v-75h-228l-12 -171q33 18 77 18q82 0 134.5 -52.5t52.5 -130.5z" />
    <glyph glyph-name="six" unicode="6" 
d="M300 396q-44 0 -72.5 -30.5t-28.5 -74.5v-121q0 -45 28.5 -74.5t72.5 -29.5t72 30t28 75v120q0 44 -28 74.5t-72 30.5zM307 710q39 0 74 -6t51 -12l16 -6v-79q-57 27 -139 27q-44 0 -77 -31.5t-33 -75.5v-103q4 5 12.5 13t36.5 21.5t59 13.5q77 0 127 -53t50 -130v-114
q0 -78 -51 -131.5t-133 -53.5q-78 0 -131 53.5t-53 130.5v351q0 79 52.5 132t138.5 53z" />
    <glyph glyph-name="seven" unicode="7" 
d="M322 0h-86q0 81 25 183.5t55.5 181t56.5 153.5t28 106h-286v76h370v-73q0 -45 -40.5 -156t-81.5 -243t-41 -228z" />
    <glyph glyph-name="eight" unicode="8" 
d="M482 535v-37q0 -82 -64 -134q72 -56 72 -147v-43q0 -77 -54.5 -130.5t-135.5 -53.5t-135.5 54t-54.5 131v42q0 90 73 147q-65 49 -65 135v36q0 73 52 124t130 51t130 -51t52 -124zM406 170v49q0 44 -31 75t-75 31t-75 -31t-31 -75v-48q0 -44 30.5 -74.5t75.5 -30.5
q43 0 74.5 30t31.5 74zM398 494v40q0 42 -28.5 71t-69.5 29q-42 0 -70 -29t-28 -71v-39q0 -40 26.5 -68.5t71.5 -28.5q43 0 70.5 27.5t27.5 68.5z" />
    <glyph glyph-name="nine" unicode="9" 
d="M300 304q44 0 72.5 30.5t28.5 74.5v121q0 44 -28.5 72.5t-72.5 28.5t-72 -29t-28 -73v-120q0 -44 28 -74.5t72 -30.5zM291 -10q-45 0 -83 9.5t-54 18.5l-15 10v83q64 -45 143 -45q55 0 87 30.5t32 76.5v103q-4 -5 -12.5 -13t-36.5 -21.5t-59 -13.5q-77 0 -127 53t-50 130
v114q0 78 51 131.5t133 53.5q78 0 131 -53.5t53 -130.5v-351q0 -78 -53.5 -131.5t-139.5 -53.5z" />
    <glyph glyph-name="colon" unicode=":" 
d="M251 0v98h98v-98h-98zM251 402v98h98v-98h-98z" />
    <glyph glyph-name="semicolon" unicode=";" 
d="M254 402v98h98v-98h-98zM254 0v98h98v-88q0 -127 -105 -127v44q49 2 49 73h-42z" />
    <glyph glyph-name="less" unicode="&#x3c;" 
d="M93 255v73l414 187v-86l-314 -138l314 -137v-87z" />
    <glyph glyph-name="equal" unicode="=" 
d="M507 245v-78h-414v78h414zM507 417v-78h-414v78h414z" />
    <glyph glyph-name="greater" unicode="&#x3e;" 
d="M507 328v-73l-414 -188v87l314 137l-314 138v86z" />
    <glyph glyph-name="question" unicode="?" 
d="M296 710q78 0 131.5 -48.5t53.5 -131.5q0 -48 -17 -84t-41.5 -61l-49.5 -51.5t-42 -69t-17 -99.5h-70q0 69 15.5 120.5t38 81.5t44.5 54t37.5 51t15.5 59q0 42 -31.5 71t-74.5 29q-41 0 -83.5 -14.5t-64.5 -28.5l-22 -14v85q8 6 23.5 14.5t61.5 22.5t92 14zM228 0v98h98
v-98h-98z" />
    <glyph glyph-name="at" unicode="@" 
d="M281 306v-145q0 -38 29 -67.5t69 -29.5q43 0 72 29t29 68v145q0 39 -29 67t-71 28q-40 0 -69.5 -28.5t-29.5 -66.5zM375 475q29 0 55.5 -10.5t37.5 -20.5l12 -11v31q0 70 -51 119.5t-129 49.5q-75 0 -127 -49.5t-52 -117.5v-413q0 -67 48 -116.5t114 -49.5h19v-77h-16
q-101 0 -172.5 72t-71.5 171v413q0 100 75 172t183 72q111 0 184.5 -69t73.5 -170v-471h-72l-6 37q-4 -5 -12.5 -12.5t-36.5 -20.5t-58 -13q-73 0 -121.5 47.5t-48.5 116.5v156q0 69 48.5 116.5t123.5 47.5z" />
    <glyph glyph-name="A" unicode="A" 
d="M444 0l-50 224h-188l-50 -224h-81l162 700h126l162 -700h-81zM298 630l-75 -330h154l-74 330h-5z" />
    <glyph glyph-name="B" unicode="B" 
d="M305 700q70 0 117 -45t47 -110v-55q0 -35 -15.5 -65t-30.5 -43l-15 -13q8 -5 19 -14t30 -42.5t19 -73.5v-72q0 -72 -52 -119.5t-122 -47.5h-179v700h182zM307 623h-104v-219h104q35 0 59.5 24t24.5 58v56q0 33 -24.5 57t-59.5 24zM203 332v-257h99q40 0 66.5 27.5
t26.5 64.5v72q0 32 -24 62.5t-69 30.5h-99z" />
    <glyph glyph-name="C" unicode="C" 
d="M486 108v-79q-66 -39 -168 -39q-89 0 -147 53t-58 135v345q0 82 57 134.5t149 52.5q40 0 78.5 -8t56.5 -16l19 -9v-77q-80 35 -155 35q-58 0 -91 -31t-33 -81v-345q0 -49 34 -81t90 -32q35 0 77 10.5t67 21.5z" />
    <glyph glyph-name="D" unicode="D" 
d="M497 517v-334q0 -76 -55 -129.5t-133 -53.5h-184v700h184q78 0 133 -53.5t55 -129.5zM415 182v334q0 45 -31.5 76t-77.5 31h-101v-548h101q46 0 77.5 31t31.5 76z" />
    <glyph glyph-name="E" unicode="E" 
d="M131 700h340v-75h-260v-219h236v-74h-236v-257h268v-75h-348v700z" />
    <glyph glyph-name="F" unicode="F" 
d="M136 700h348v-75h-268v-219h244v-74h-244v-332h-80v700z" />
    <glyph glyph-name="G" unicode="G" 
d="M497 358v-324q-88 -44 -190 -44q-89 0 -147 53t-58 135v345q0 82 57 134.5t149 52.5q44 0 85.5 -9t58 -16t23.5 -12v-77q-93 39 -168 39q-56 0 -90 -32t-34 -80v-345q0 -49 34 -81t90 -32q28 0 55.5 6.5t40.5 12.5l13 6v193h-103v75h184z" />
    <glyph glyph-name="H" unicode="H" 
d="M409 700h82v-700h-82v332h-221v-332h-80v700h80v-294h221v294z" />
    <glyph glyph-name="I" unicode="I" 
d="M109 626v74h382v-74h-151v-552h151v-74h-382v74h150v552h-150z" />
    <glyph glyph-name="J" unicode="J" 
d="M107 29v79q89 -43 168 -43q56 0 90 32t34 81v448h-284v74h365v-522q0 -82 -58 -135t-147 -53q-45 0 -87 10t-62 20z" />
    <glyph glyph-name="K" unicode="K" 
d="M523 700l-233 -329l244 -371h-93l-240 371l228 329h94zM201 700v-700h-81v700h81z" />
    <glyph glyph-name="L" unicode="L" 
d="M156 700h81v-625h289v-75h-370v700z" />
    <glyph glyph-name="M" unicode="M" 
d="M428 700h90v-700h-79v468l8 103h-4l-29 -83l-78 -186h-72l-78 186l-29 83h-4l8 -103v-468h-79v700h89l127 -310h4z" />
    <glyph glyph-name="N" unicode="N" 
d="M412 700h79v-700h-93l-188 474l-29 100h-4l9 -114v-460h-78v700h92l188 -474l29 -100h4l-9 115v459z" />
    <glyph glyph-name="O" unicode="O" 
d="M183 522v-344q0 -48 32.5 -80.5t83.5 -32.5q50 0 82.5 32t32.5 80v345q0 48 -32.5 80.5t-82.5 32.5q-51 0 -83.5 -32.5t-32.5 -80.5zM102 178v344q0 82 57 135t140 53t140.5 -53.5t57.5 -134.5v-344q0 -81 -57.5 -134.5t-140.5 -53.5t-140 53t-57 135z" />
    <glyph glyph-name="P" unicode="P" 
d="M136 0v700h190q66 0 112.5 -45t46.5 -110v-145q0 -65 -46.5 -110.5t-112.5 -45.5h-110v-244h-80zM403 397v147q0 32 -23.5 55.5t-57.5 23.5h-106v-303h106q34 0 57.5 22.5t23.5 54.5z" />
    <glyph glyph-name="Q" unicode="Q" 
d="M556 -84v-78l-257 86v66q-84 1 -140.5 54t-56.5 134v344q0 82 57 135t140 53t140.5 -53.5t57.5 -134.5v-344q0 -74 -49.5 -126t-123.5 -60zM183 522v-344q0 -48 32.5 -80.5t83.5 -32.5q50 0 82.5 32t32.5 80v345q0 48 -32.5 80.5t-82.5 32.5q-51 0 -83.5 -32.5
t-32.5 -80.5z" />
    <glyph glyph-name="R" unicode="R" 
d="M402 0l-104 256h-98v-256h-80v700h190q66 0 112.5 -45t46.5 -110v-134q0 -48 -24.5 -85t-68.5 -56l115 -270h-89zM387 408v136q0 32 -23.5 55.5t-56.5 23.5h-107v-292h107q33 0 56.5 22.5t23.5 54.5z" />
    <glyph glyph-name="S" unicode="S" 
d="M287 65q55 0 89 32.5t34 81.5q0 44 -31.5 78t-76 57.5l-89 49t-76 67t-31.5 97.5q0 79 56 130.5t145 51.5q101 0 158 -34v-77q-84 36 -159 36q-54 0 -86.5 -29.5t-32.5 -72.5q0 -41 31.5 -71t76.5 -51.5t90.5 -47.5t77 -72.5t31.5 -111.5q0 -82 -57.5 -135.5
t-146.5 -53.5q-100 0 -182 45v82q101 -52 179 -52z" />
    <glyph glyph-name="T" unicode="T" 
d="M104 624v76h392v-76h-155v-624h-84v624h-153z" />
    <glyph glyph-name="U" unicode="U" 
d="M414 700h83v-522q0 -81 -57.5 -134.5t-140.5 -53.5t-140 53t-57 135v522h81v-522q0 -48 32.5 -80.5t83.5 -32.5q50 0 82.5 32t32.5 80v523z" />
    <glyph glyph-name="V" unicode="V" 
d="M159 700l139 -630h5l138 630h81l-159 -700h-126l-159 700h81z" />
    <glyph glyph-name="W" unicode="W" 
d="M456 171l24 529h83l-43 -700h-137l-79 429h-7l-78 -429h-138l-43 700h84l24 -529l4 -111h9l83 439h116l84 -439h9z" />
    <glyph glyph-name="X" unicode="X" 
d="M181 700l119 -252l118 252h89l-163 -336l176 -364h-87l-133 280l-133 -280h-88l176 364l-162 336h88z" />
    <glyph glyph-name="Y" unicode="Y" 
d="M155 700l145 -324l146 324h88l-192 -410v-290h-84v290l-192 410h89z" />
    <glyph glyph-name="Z" unicode="Z" 
d="M492 619l-292 -544h291v-75h-384v81l290 544h-275v75h370v-81z" />
    <glyph glyph-name="bracketleft" unicode="[" 
d="M398 -102v-77h-197v879h197v-79h-116v-723h116z" />
    <glyph glyph-name="backslash" unicode="\" 
d="M156 700l361 -700h-74l-361 700h74z" />
    <glyph glyph-name="bracketright" unicode="]" 
d="M201 -179v77h116v723h-116v79h197v-879h-197z" />
    <glyph glyph-name="asciicircum" unicode="^" 
d="M266 699h68l141 -369h-74l-103 264l-99 -264h-74z" />
    <glyph glyph-name="underscore" unicode="_" 
d="M0 -75h600v-67h-600v67z" />
    <glyph glyph-name="grave" unicode="`" 
d="M411 562h-71l-152 148h114z" />
    <glyph glyph-name="a" unicode="a" 
d="M404 0l-5 50q-6 -7 -16 -17t-44.5 -26.5t-70.5 -16.5q-63 0 -113.5 40.5t-50.5 115.5q0 147 171 161l123 9v26q0 41 -27.5 70t-77.5 29q-29 0 -65.5 -5t-58.5 -10l-22 -5v70q80 19 141 19q93 0 140.5 -45.5t47.5 -116.5v-348h-72zM281 59q44 0 80.5 31t36.5 68v91
l-116 -8q-100 -7 -100 -94q0 -43 28.5 -65.5t70.5 -22.5z" />
    <glyph glyph-name="b" unicode="b" 
d="M123 0v700h78v-246q5 6 15 15.5t44 25t73 15.5q65 0 115 -48t50 -114v-196q0 -66 -50 -114t-115 -48q-40 0 -73.5 15t-46.5 30l-13 15l-5 -50h-72zM420 158v184q0 43 -30 71t-77 28q-46 0 -79 -32t-33 -67v-184q0 -35 33 -67t79 -32q47 0 77 28t30 71z" />
    <glyph glyph-name="c" unicode="c" 
d="M147 152v196q0 70 49.5 116t137.5 46q29 0 64 -3.5t56 -6.5l20 -4v-72q-84 17 -134 17q-56 0 -85.5 -29t-29.5 -70v-184q0 -40 30.5 -69.5t84.5 -29.5q25 0 61 6.5t59 12.5l23 6v-72q-80 -22 -151 -22q-87 0 -136 46t-49 116z" />
    <glyph glyph-name="d" unicode="d" 
d="M477 700v-700h-72l-5 50q-5 -7 -14.5 -17t-44 -26.5t-74.5 -16.5q-65 0 -115 48t-50 114v196q0 66 50 114t115 48q39 0 72 -14t47 -28l13 -14v246h78zM180 342v-184q0 -43 30 -71t77 -28q46 0 79 32t33 67v184q0 35 -33 67t-79 32q-47 0 -77 -28t-30 -71z" />
    <glyph glyph-name="e" unicode="e" 
d="M204 341v-49h213v49q0 40 -32 70.5t-75 30.5q-46 0 -76 -30t-30 -71zM128 157v186q0 71 50 119t133 48q78 0 129.5 -48.5t51.5 -118.5v-123h-288v-62q0 -41 30 -70t87 -29q26 0 62 6.5t59 12.5l22 7v-74q-85 -21 -151 -21q-89 0 -137 48t-48 119z" />
    <glyph glyph-name="f" unicode="f" 
d="M119 433v67h111v72q0 60 43.5 99t106.5 39l97 -7v-68q-58 8 -97 8q-30 0 -51 -19.5t-21 -48.5v-75h159v-67h-159v-433h-78v433h-111z" />
    <glyph glyph-name="g" unicode="g" 
d="M399 -24v80q-5 -6 -15 -15.5t-44 -25t-73 -15.5q-65 0 -115 48t-50 114v186q0 66 50 114t115 48q40 0 73.5 -15t46.5 -30l13 -15l5 50h72v-530q0 -69 -47.5 -114.5t-131.5 -45.5q-40 0 -77.5 5t-55.5 11l-18 5v73q66 -25 143 -25q51 0 80 28.5t29 68.5zM180 342v-174
q0 -43 30 -71t77 -28q46 0 79 32t33 67v174q0 35 -33 67t-79 32q-47 0 -77 -28t-30 -71z" />
    <glyph glyph-name="h" unicode="h" 
d="M498 0h-78v339q0 48 -28.5 75t-73.5 27q-44 0 -80.5 -31t-36.5 -69v-341h-78v700h78v-247q5 6 15.5 15.5t44.5 25.5t72 16q70 0 117.5 -46.5t47.5 -125.5v-338z" />
    <glyph glyph-name="i" unicode="i" 
d="M140 433v67h220v-431h145v-69h-375v69h152v364h-142zM282 607v93h78v-93h-78z" />
    <glyph glyph-name="j" unicode="j" 
d="M180 433v67h221v-553q0 -59 -35.5 -98t-91.5 -39q-22 0 -43.5 3t-32.5 5l-11 3v73q26 -12 75 -12q25 0 42.5 18t17.5 44v489h-142zM322 607v93h79v-93h-79z" />
    <glyph glyph-name="k" unicode="k" 
d="M140 0v700h77v-700h-77zM438 0l-221 264l206 236h94l-207 -236l226 -264h-98z" />
    <glyph glyph-name="l" unicode="l" 
d="M140 633v67h220v-631h145v-69h-375v69h152v564h-142z" />
    <glyph glyph-name="m" unicode="m" 
d="M341 0h-78v384q0 24 -14.5 40.5t-37.5 16.5q-29 0 -48.5 -25.5t-19.5 -60.5v-355h-77v500h72l4 -46q4 6 11 15t30 24t47 15q29 0 50 -14t28 -28l6 -14q4 6 11 15.5t33.5 25t57.5 15.5q56 0 87 -37.5t31 -95.5v-375h-78v384q0 23 -15 40t-36 17q-31 0 -47.5 -25t-16.5 -61
v-355z" />
    <glyph glyph-name="n" unicode="n" 
d="M498 0h-78v339q0 48 -28.5 75t-73.5 27q-44 0 -80.5 -31t-36.5 -69v-341h-78v499h74l4 -49q5 7 15.5 17t44.5 26.5t72 16.5q70 0 117.5 -46.5t47.5 -125.5v-338z" />
    <glyph glyph-name="o" unicode="o" 
d="M485 344v-188q0 -69 -51.5 -117.5t-132.5 -48.5q-83 0 -134.5 48.5t-51.5 117.5v188q0 69 52 117.5t134 48.5q81 0 132.5 -48.5t51.5 -117.5zM408 161v178q0 43 -30.5 73t-77.5 30q-46 0 -77 -30t-31 -73v-178q0 -43 31 -73t78 -30q45 0 76 30.5t31 72.5z" />
    <glyph glyph-name="p" unicode="p" 
d="M123 -180v679h72l5 -50q5 7 14.5 17t44 26.5t74.5 16.5q65 0 115 -48t50 -114v-196q0 -66 -50 -114t-115 -48q-39 0 -72 14t-47 28l-13 14v-225h-78zM420 157v184q0 43 -30 71t-77 28q-46 0 -79 -32t-33 -67v-184q0 -35 33 -67t79 -32q47 0 77 28t30 71z" />
    <glyph glyph-name="q" unicode="q" 
d="M477 500v-680h-78v226q-5 -6 -15 -15.5t-44 -25t-73 -15.5q-65 0 -115 48t-50 114v196q0 66 50 114t115 48q40 0 73.5 -15t46.5 -30l13 -15l5 50h72zM180 342v-184q0 -43 30 -71t77 -28q46 0 79 32t33 67v184q0 35 -33 67t-79 32q-47 0 -77 -28t-30 -71z" />
    <glyph glyph-name="r" unicode="r" 
d="M110 432v68h195l4 -64l5.5 8t16.5 18t27.5 22.5t39.5 17.5t52 8l75 -7v-68q-34 6 -75 6q-60 0 -100 -42.5t-40 -117.5v-212h165v-69h-375v69h132v363h-122z" />
    <glyph glyph-name="s" unicode="s" 
d="M285 59q41 0 72 21t31 59q0 31 -26.5 51.5t-64 33t-75 27.5t-64 45.5t-26.5 76.5q0 62 51 99.5t129 37.5q32 0 65 -4t50 -8l17 -4v-72q-67 19 -131 19q-46 0 -73.5 -18t-27.5 -44q0 -29 26.5 -48t64 -31t75.5 -27.5t64.5 -48t26.5 -81.5q0 -66 -50 -109.5t-138 -43.5
q-34 0 -70 6t-55 12l-19 6v73q69 -28 148 -28z" />
    <glyph glyph-name="t" unicode="t" 
d="M100 433v67h93v109h78v-109h201v-67h-201v-283q0 -91 88 -91q24 0 51 3t42 6l14 3v-70q-50 -11 -120 -11q-153 0 -153 160v283h-93z" />
    <glyph glyph-name="u" unicode="u" 
d="M112 499h78v-339q0 -48 28.5 -75t73.5 -27q44 0 80.5 31t36.5 69v341h78v-499h-74l-4 49q-5 -7 -15.5 -17t-44.5 -26.5t-72 -16.5q-70 0 -117.5 46.5t-47.5 125.5v338z" />
    <glyph glyph-name="v" unicode="v" 
d="M175 500l123 -437h4l123 437h78l-147 -500h-112l-147 500h78z" />
    <glyph glyph-name="w" unicode="w" 
d="M430 144l31 356h78l-51 -500h-124l-47 240l-13 82h-7l-13 -82l-46 -240h-125l-52 500h78l32 -356l5 -90h9l12 85l49 249h108l50 -249l12 -85h9z" />
    <glyph glyph-name="x" unicode="x" 
d="M206 500l94 -179l93 179h89l-137 -244l142 -256h-87l-100 190l-100 -190h-87l141 256l-136 244h88z" />
    <glyph glyph-name="y" unicode="y" 
d="M169 500l136 -379l126 379h84l-247 -680h-79l73 201l-177 479h84z" />
    <glyph glyph-name="z" unicode="z" 
d="M469 426l-252 -357h256v-69h-347v72l253 359h-239v69h329v-74z" />
    <glyph glyph-name="braceleft" unicode="{" 
d="M425 -113v-77q-82 0 -139 54t-57 131v189q0 18 -16 31t-38 13v75q22 0 38 13t16 30v181q0 77 57 130.5t139 53.5v-79q-48 0 -81 -31t-33 -75v-170q0 -58 -58 -92q58 -32 58 -91v-179q0 -45 33 -76t81 -31z" />
    <glyph glyph-name="bar" unicode="|" 
d="M261 -180v880h78v-880h-78z" />
    <glyph glyph-name="braceright" unicode="}" 
d="M175 -190v77q48 0 81 31t33 76v179q0 59 58 91q-58 34 -58 92v170q0 44 -33 75t-81 31v79q82 0 139 -53.5t57 -130.5v-181q0 -17 16 -30t38 -13v-75q-22 0 -38 -13t-16 -31v-189q0 -77 -57 -131t-139 -54z" />
    <glyph glyph-name="asciitilde" unicode="~" 
d="M93 225v82q5 6 15 14t41 22t63 14q36 0 95 -28t87 -28q24 0 52 14t44 28l16 14v-82q-5 -6 -14.5 -14t-38.5 -22t-59 -14q-39 0 -100 28t-82 28q-29 0 -59 -14t-45 -28z" />
    <glyph glyph-name="exclamdown" unicode="&#xa1;" 
d="M349 500v-98h-98v98h98zM260 -200v370l10 165h61l10 -165v-370h-81z" />
    <glyph glyph-name="cent" unicode="&#xa2;" 
d="M269 -49v49q-67 9 -107 54t-40 107v182q0 60 40 104.5t107 54.5v47h78v-50q58 -14 92 -57.5t34 -102.5h-78q0 40 -27 67.5t-67 27.5q-41 0 -71 -29.5t-30 -67.5v-172q0 -38 29.5 -66.5t71.5 -28.5q40 0 69 29t29 70h78q0 -63 -35 -108.5t-95 -58.5v-51h-78z" />
    <glyph glyph-name="sterling" unicode="&#xa3;" 
d="M493 81v-81h-360v81h33v201h-60v79h60v186q0 67 48 114.5t116 47.5t116 -47.5t48 -114.5v-39h-84v44q0 32 -23 55t-55 23q-34 0 -57.5 -23t-23.5 -55v-191h124v-79h-124v-201h242z" />
    <glyph glyph-name="currency" unicode="&#xa4;" 
d="M466 69l-48 47q-54 -36 -118 -36q-65 0 -119 36l-48 -47l-56 57l47 48q-36 55 -36 117q0 63 37 120l-48 48l56 56l48 -48q56 36 119 36q62 0 118 -36l48 48l57 -56l-48 -48q36 -55 36 -120t-35 -117l47 -48zM205 198q39 -39 95 -39q54 0 93 39.5t39 93.5t-39 93.5
t-93 39.5t-94 -39.5t-40 -93.5q0 -55 39 -94z" />
    <glyph glyph-name="yen" unicode="&#xa5;" 
d="M498 272v-78h-156v-194h-85v194h-156v78h156v58l-5 12h-151v79h115l-128 279h91l120 -273l123 273h90l-128 -279h114v-79h-151l-5 -10v-60h156z" />
    <glyph glyph-name="brokenbar" unicode="&#xa6;" 
d="M261 337v364h78v-364h-78zM261 -180v362h78v-362h-78z" />
    <glyph glyph-name="section" unicode="&#xa7;" 
d="M406 303q0 32 -26.5 55t-83.5 50.5t-77 39.5q-26 -21 -26 -52q0 -33 27.5 -56t83.5 -49t76 -39q26 21 26 51zM297 69q37 0 56.5 17.5t19.5 38.5q0 25 -27 46t-65.5 38.5t-77.5 38.5t-66 57t-27 84q0 69 51 113q-20 29 -20 73q0 58 41.5 96.5t117.5 38.5q47 0 86.5 -9
t55.5 -17l17 -9v-81q-78 37 -160 37q-38 0 -55.5 -17.5t-17.5 -39.5q0 -25 27 -46t66 -38.5t78 -38.5t66 -57t27 -83q0 -67 -52 -114q21 -35 21 -73q0 -57 -42 -95.5t-117 -38.5q-48 0 -90 10t-60 20l-19 9v86q78 -46 166 -46z" />
    <glyph glyph-name="dieresis" unicode="&#xa8;" 
d="M183 607v93h78v-93h-78zM339 607v93h78v-93h-78z" />
    <glyph glyph-name="copyright" unicode="&#xa9;" 
d="M300 59q88 0 140.5 58t52.5 144v179q0 85 -52.5 143t-140.5 58t-141.5 -58t-53.5 -143v-179q0 -85 53.5 -143.5t141.5 -58.5zM300 710q121 0 195.5 -79.5t74.5 -196.5v-168q0 -117 -74.5 -196.5t-195.5 -79.5q-120 0 -195 79.5t-75 196.5v168q0 117 75 196.5t195 79.5z
M185 284v140q0 52 32.5 84.5t94.5 32.5q21 0 42 -2.5t32 -4.5l11 -3v-65q-47 12 -80 12q-68 0 -68 -64v-120q0 -27 17 -45.5t51 -18.5q16 0 37.5 4.5t35.5 9.5l13 4v-66q-42 -15 -92 -15q-62 0 -94 32.5t-32 84.5z" />
    <glyph glyph-name="ordfeminine" unicode="&#xaa;" 
d="M357 390l-3 22q-24 -27 -66 -27q-41 0 -72.5 29t-31.5 73q0 42 31 71.5t78 32.5l60 4v7q0 20 -13.5 35t-35.5 15q-16 0 -38.5 -4t-36.5 -8l-14 -3v60q46 13 89 13q55 0 83 -29.5t28 -75.5v-215h-58zM296 443q22 0 39.5 14.5t17.5 34.5v45l-59 -5q-21 -1 -34.5 -14
t-13.5 -31t14.5 -31t35.5 -13zM415 340v-58h-224v58h224z" />
    <glyph glyph-name="guillemotleft" unicode="&#xab;" 
d="M318 133h-94l-122 158l122 159h93l-123 -159zM497 133h-94l-122 158l122 159h93l-123 -159z" />
    <glyph glyph-name="logicalnot" unicode="&#xac;" 
d="M507 417v-250h-80v172h-334v78h414z" />
    <glyph glyph-name="uni00AD" unicode="&#xad;" 
 />
    <glyph glyph-name="registered" unicode="&#xae;" 
d="M332 356l-35 77h-22v-77h-51v240h88q26 0 44.5 -19t18.5 -44v-35q0 -29 -26 -52q6 -13 19 -44.5t20 -45.5h-56zM322 493v40q0 5 -4 9t-8 4h-36v-64h36q12 0 12 11zM296 290q56 0 95 37t39 88v116q0 51 -39 87.5t-95 36.5q-55 0 -95 -37t-40 -87v-116q0 -51 40 -88t95 -37
zM296 710q82 0 138.5 -53t56.5 -130v-108q0 -77 -56.5 -130.5t-138.5 -53.5q-81 0 -137.5 53.5t-56.5 130.5v108q0 76 56.5 129.5t137.5 53.5z" />
    <glyph glyph-name="macron" unicode="&#xaf;" 
d="M165 597v74h270v-74h-270z" />
    <glyph glyph-name="degree" unicode="&#xb0;" 
d="M154 565q0 60 43 103t103 43t103 -43t43 -103t-43 -103t-103 -43t-103 43t-43 103zM219 565q0 -33 23.5 -57t56.5 -24q34 0 57.5 24t23.5 57t-23.5 57t-57.5 24q-33 0 -56.5 -24t-23.5 -57z" />
    <glyph glyph-name="plusminus" unicode="&#xb1;" 
d="M259 510h82v-128h166v-79h-166v-127h-82v127h-166v79h166v128zM507 147v-79h-414v79h414z" />
    <glyph glyph-name="twosuperior" unicode="&#xb2;" 
d="M186 608v69q50 33 110 33q52 0 86 -34t34 -89q0 -58 -67 -137l-89 -104h160v-65h-240v67l129 154q40 47 40 85q0 27 -16 43t-39 16q-22 0 -49 -9.5t-43 -18.5z" />
    <glyph glyph-name="threesuperior" unicode="&#xb3;" 
d="M265 472v64h27q22 0 38 11.5t16 30.5v19q0 21 -14.5 34.5t-38.5 13.5q-19 0 -44.5 -6.5t-41.5 -12.5l-16 -6v67q54 23 103 23q55 0 87.5 -30t32.5 -78v-24q0 -20 -9 -37.5t-19 -24.5l-9 -8q5 -3 12 -9t18.5 -27t11.5 -46v-32q0 -53 -35.5 -86t-96.5 -33q-27 0 -53.5 7.5
t-39.5 14.5l-13 7v68q60 -32 106 -32q30 0 47 15t17 39v31q0 21 -17.5 34t-41.5 13h-27z" />
    <glyph glyph-name="acute" unicode="&#xb4;" 
d="M259 562h-71l109 148h114z" />
    <glyph glyph-name="mu" unicode="&#xb5;" 
d="M122 -180v680h78v-335q0 -48 23 -77t69 -29q40 0 73.5 32t33.5 70v339h78v-500h-72l-5 50q-5 -7 -14 -17t-38 -26.5t-61 -16.5q-55 0 -88 35v-205h-77z" />
    <glyph glyph-name="paragraph" unicode="&#xb6;" 
d="M256 -180v492q-74 12 -124.5 65t-50.5 127q0 82 58 138.5t141 56.5h194v-879h-78v805h-62v-805h-78z" />
    <glyph glyph-name="periodcentered" unicode="&#xb7;" 
d="M251 242v98h98v-98h-98z" />
    <glyph glyph-name="cedilla" unicode="&#xb8;" 
d="M225 -182v47q26 -7 57 -7q13 0 22.5 9t9.5 22t-9.5 21.5t-23.5 8.5h-44l20 81h56l-11 -41q31 0 52 -21t21 -53q0 -33 -25 -54t-62 -21q-12 0 -28 2t-26 4z" />
    <glyph glyph-name="onesuperior" unicode="&#xb9;" 
d="M231 596v68l75 36h63v-419h-67v348z" />
    <glyph glyph-name="ordmasculine" unicode="&#xba;" 
d="M415 605v-116q0 -45 -32 -75t-82 -30q-51 0 -84 30t-33 75v116q0 45 33 75t84 30q50 0 82 -30t32 -75zM353 489v116q0 18 -15.5 32t-37.5 14q-21 0 -36 -14t-15 -32v-116q0 -18 15.5 -33t36.5 -15t36.5 15t15.5 33zM415 340v-58h-224v58h224z" />
    <glyph glyph-name="guillemotright" unicode="&#xbb;" 
d="M375 133h-94l124 158l-123 159h93l122 -159zM196 133h-94l124 158l-123 159h93l122 -159z" />
    <glyph glyph-name="onequarter" unicode="&#xbc;" 
d="M45 606v62l68 32h56v-377h-60v313zM315 77v52l115 248h63l-109 -241h66v53h61v-53h30v-59h-30v-77h-61v77h-135zM112 0l278 700h62l-278 -700h-62z" />
    <glyph glyph-name="onehalf" unicode="&#xbd;" 
d="M45 606v62l68 32h57v-377h-61v313zM345 294v62q45 30 99 30q47 0 77.5 -30.5t30.5 -80.5q0 -51 -60 -123l-81 -94h144v-58h-216v60l117 139q36 43 36 76q0 24 -14.5 38.5t-35.5 14.5q-20 0 -44 -8.5t-38 -17.5zM100 0l278 700h62l-278 -700h-62z" />
    <glyph glyph-name="threequarters" unicode="&#xbe;" 
d="M332 78v51l115 249h63l-108 -242h65v53h61v-53h30v-58h-30v-78h-61v78h-135zM103 496v58h25q20 0 34 10.5t14 27.5v17q0 18 -13 30.5t-34 12.5q-17 0 -40 -6t-37 -12l-15 -5v61q48 20 93 20q49 0 78.5 -27t29.5 -70v-21q0 -19 -8.5 -34.5t-17.5 -21.5l-8 -7l10.5 -8
t17 -24.5t10.5 -41.5v-29q0 -48 -32 -77.5t-87 -29.5q-24 0 -48 6.5t-35 12.5l-12 7v61q54 -29 95 -29q27 0 42.5 14t15.5 35v28q0 19 -15.5 30.5t-37.5 11.5h-25zM141 0l278 700h62l-278 -700h-62z" />
    <glyph glyph-name="questiondown" unicode="&#xbf;" 
d="M304 -210q-78 0 -131.5 48.5t-53.5 131.5q0 41 12.5 73.5t31 52.5l40 44.5l40 47t31 61t12.5 86.5h70q0 -69 -15.5 -120.5t-38 -81.5t-44.5 -54t-37.5 -51t-15.5 -59q0 -42 31.5 -71t74.5 -29q41 0 83.5 14.5t64.5 28.5l22 14v-85q-8 -6 -23.5 -14.5t-61.5 -22.5t-92 -14
zM372 500v-98h-98v98h98z" />
    <glyph glyph-name="Agrave" unicode="&#xc0;" 
d="M444 0l-50 224h-188l-50 -224h-81l162 700h126l162 -700h-81zM298 630l-75 -330h154l-74 330h-5zM342 762h-71l-152 148h114z" />
    <glyph glyph-name="Aacute" unicode="&#xc1;" 
d="M444 0l-50 224h-188l-50 -224h-81l162 700h126l162 -700h-81zM298 630l-75 -330h154l-74 330h-5zM328 762h-71l109 148h114z" />
    <glyph glyph-name="Acircumflex" unicode="&#xc2;" 
d="M444 0l-50 224h-188l-50 -224h-81l162 700h126l162 -700h-81zM298 630l-75 -330h154l-74 330h-5zM226 763h-72l106 147h76l108 -147h-73l-74 80z" />
    <glyph glyph-name="Atilde" unicode="&#xc3;" 
d="M444 0l-50 224h-188l-50 -224h-81l162 700h126l162 -700h-81zM298 630l-75 -330h154l-74 330h-5zM201 776h-57q0 42 28 75.5t66 33.5q26 0 67 -21t55 -21q13 0 25.5 13t12.5 25h57q0 -42 -27.5 -75.5t-64.5 -33.5q-26 0 -67.5 21t-54.5 21q-14 0 -27 -12.5t-13 -25.5z
" />
    <glyph glyph-name="Adieresis" unicode="&#xc4;" 
d="M444 0l-50 224h-188l-50 -224h-81l162 700h126l162 -700h-81zM298 630l-75 -330h154l-74 330h-5zM181 807v93h78v-93h-78zM337 807v93h78v-93h-78z" />
    <glyph glyph-name="Aring" unicode="&#xc5;" 
d="M444 0l-50 224h-188l-50 -224h-81l162 700h126l162 -700h-81zM298 630l-75 -330h154l-74 330h-5zM220 831q0 33 23 56t56 23t56 -23t23 -56t-23 -56t-56 -23t-56 23t-23 56zM268 831q0 -13 9 -22t22 -9t22 9t9 22t-9 22t-22 9t-22 -9t-9 -22z" />
    <glyph glyph-name="AE" unicode="&#xc6;" 
d="M224 700h325v-75h-173v-219h149v-74h-149v-257h181v-75h-263v224h-123l-60 -224h-82zM278 625l-87 -331h103v331h-16z" />
    <glyph glyph-name="Ccedilla" unicode="&#xc7;" 
d="M263 -184v43q26 -6 55 -6q14 0 24 9.5t10 23.5t-10 23.5t-25 9.5h-41l17 73q-79 8 -129.5 59t-50.5 127v345q0 82 57 134.5t149 52.5q44 0 85.5 -9t61.5 -19l20 -9v-77q-93 39 -168 39q-56 0 -90 -32t-34 -80v-345q0 -49 34 -81t90 -32q35 0 79.5 12.5t71.5 24.5l27 12
v-79q-63 -37 -152 -44l-8 -36q32 0 52.5 -20.5t20.5 -52.5t-24.5 -52.5t-60.5 -20.5q-33 0 -61 7z" />
    <glyph glyph-name="Egrave" unicode="&#xc8;" 
d="M131 700h340v-75h-260v-219h236v-74h-236v-257h268v-75h-348v700zM371 762h-71l-152 148h114z" />
    <glyph glyph-name="Eacute" unicode="&#xc9;" 
d="M131 700h340v-75h-260v-219h236v-74h-236v-257h268v-75h-348v700zM332 762h-71l109 148h114z" />
    <glyph glyph-name="Ecircumflex" unicode="&#xca;" 
d="M131 700h340v-75h-260v-219h236v-74h-236v-257h268v-75h-348v700zM238 763h-72l106 147h76l108 -147h-73l-74 80z" />
    <glyph glyph-name="Edieresis" unicode="&#xcb;" 
d="M131 700h340v-75h-260v-219h236v-74h-236v-257h268v-75h-348v700zM193 807v93h78v-93h-78zM349 807v93h78v-93h-78z" />
    <glyph glyph-name="Igrave" unicode="&#xcc;" 
d="M109 626v74h382v-74h-151v-552h151v-74h-382v74h150v552h-150zM335 762h-71l-152 148h114z" />
    <glyph glyph-name="Iacute" unicode="&#xcd;" 
d="M109 626v74h382v-74h-151v-552h151v-74h-382v74h150v552h-150zM330 762h-71l109 148h114z" />
    <glyph glyph-name="Icircumflex" unicode="&#xce;" 
d="M109 626v74h382v-74h-151v-552h151v-74h-382v74h150v552h-150zM227 763h-72l106 147h76l108 -147h-73l-74 80z" />
    <glyph glyph-name="Idieresis" unicode="&#xcf;" 
d="M109 626v74h382v-74h-151v-552h151v-74h-382v74h150v552h-150zM182 807v93h78v-93h-78zM338 807v93h78v-93h-78z" />
    <glyph glyph-name="Eth" unicode="&#xd0;" 
d="M499 517v-334q0 -76 -55.5 -129.5t-133.5 -53.5h-184v332h-61v74h61v294h184q78 0 133.5 -53.5t55.5 -129.5zM313 406v-74h-106v-257h100q46 0 77.5 31t31.5 76v335q0 45 -31.5 76.5t-77.5 31.5h-100v-219h106z" />
    <glyph glyph-name="Ntilde" unicode="&#xd1;" 
d="M412 700h79v-700h-93l-188 474l-29 100h-4l9 -114v-460h-78v700h92l188 -474l29 -100h4l-9 115v459zM202 776h-57q0 42 28 75.5t66 33.5q25 0 67 -21t55 -21t25.5 13t12.5 25h57q0 -42 -27.5 -75.5t-64.5 -33.5q-26 0 -67.5 21t-54.5 21q-14 0 -27 -12.5t-13 -25.5z" />
    <glyph glyph-name="Ograve" unicode="&#xd2;" 
d="M183 522v-344q0 -48 32.5 -80.5t83.5 -32.5q50 0 82.5 32t32.5 80v345q0 48 -32.5 80.5t-82.5 32.5q-51 0 -83.5 -32.5t-32.5 -80.5zM102 178v344q0 82 57 135t140 53t140.5 -53.5t57.5 -134.5v-344q0 -81 -57.5 -134.5t-140.5 -53.5t-140 53t-57 135zM352 762h-71
l-152 148h114z" />
    <glyph glyph-name="Oacute" unicode="&#xd3;" 
d="M183 522v-344q0 -48 32.5 -80.5t83.5 -32.5q50 0 82.5 32t32.5 80v345q0 48 -32.5 80.5t-82.5 32.5q-51 0 -83.5 -32.5t-32.5 -80.5zM102 178v344q0 82 57 135t140 53t140.5 -53.5t57.5 -134.5v-344q0 -81 -57.5 -134.5t-140.5 -53.5t-140 53t-57 135zM341 762h-71
l109 148h114z" />
    <glyph glyph-name="Ocircumflex" unicode="&#xd4;" 
d="M183 522v-344q0 -48 32.5 -80.5t83.5 -32.5q50 0 82.5 32t32.5 80v345q0 48 -32.5 80.5t-82.5 32.5q-51 0 -83.5 -32.5t-32.5 -80.5zM102 178v344q0 82 57 135t140 53t140.5 -53.5t57.5 -134.5v-344q0 -81 -57.5 -134.5t-140.5 -53.5t-140 53t-57 135zM225 763h-72
l106 147h76l108 -147h-73l-74 80z" />
    <glyph glyph-name="Otilde" unicode="&#xd5;" 
d="M183 522v-344q0 -48 32.5 -80.5t83.5 -32.5q50 0 82.5 32t32.5 80v345q0 48 -32.5 80.5t-82.5 32.5q-51 0 -83.5 -32.5t-32.5 -80.5zM102 178v344q0 82 57 135t140 53t140.5 -53.5t57.5 -134.5v-344q0 -81 -57.5 -134.5t-140.5 -53.5t-140 53t-57 135zM200 776h-57
q0 42 28 75.5t66 33.5q25 0 67 -21t55 -21t25.5 13t12.5 25h57q0 -42 -27.5 -75.5t-64.5 -33.5q-26 0 -67.5 21t-54.5 21q-14 0 -27 -12.5t-13 -25.5z" />
    <glyph glyph-name="Odieresis" unicode="&#xd6;" 
d="M183 522v-344q0 -48 32.5 -80.5t83.5 -32.5q50 0 82.5 32t32.5 80v345q0 48 -32.5 80.5t-82.5 32.5q-51 0 -83.5 -32.5t-32.5 -80.5zM102 178v344q0 82 57 135t140 53t140.5 -53.5t57.5 -134.5v-344q0 -81 -57.5 -134.5t-140.5 -53.5t-140 53t-57 135zM180 807v93h78v-93
h-78zM336 807v93h78v-93h-78z" />
    <glyph glyph-name="multiply" unicode="&#xd7;" 
d="M106 430l56 56l138 -138l138 138l56 -56l-138 -139l138 -137l-56 -57l-138 139l-137 -138l-57 56l137 137z" />
    <glyph glyph-name="Oslash" unicode="&#xd8;" 
d="M112 15l25 53q-35 51 -35 110v344q0 82 57 135t140 53q66 0 119 -36l18 36l52 -25l-26 -54q35 -53 35 -109v-344q0 -81 -57.5 -134.5t-140.5 -53.5q-68 0 -119 36l-18 -36zM300 65q50 0 82.5 32t32.5 80v343l-1 7l-199 -427q33 -35 85 -35zM184 522v-342l1 -7l199 427
q-33 35 -84 35t-83.5 -32.5t-32.5 -80.5z" />
    <glyph glyph-name="Ugrave" unicode="&#xd9;" 
d="M414 700h83v-522q0 -81 -57.5 -134.5t-140.5 -53.5t-140 53t-57 135v522h81v-522q0 -48 32.5 -80.5t83.5 -32.5q50 0 82.5 32t32.5 80v523zM355 762h-71l-152 148h114z" />
    <glyph glyph-name="Uacute" unicode="&#xda;" 
d="M414 700h83v-522q0 -81 -57.5 -134.5t-140.5 -53.5t-140 53t-57 135v522h81v-522q0 -48 32.5 -80.5t83.5 -32.5q50 0 82.5 32t32.5 80v523zM328 762h-71l109 148h114z" />
    <glyph glyph-name="Ucircumflex" unicode="&#xdb;" 
d="M414 700h83v-522q0 -81 -57.5 -134.5t-140.5 -53.5t-140 53t-57 135v522h81v-522q0 -48 32.5 -80.5t83.5 -32.5q50 0 82.5 32t32.5 80v523zM225 763h-72l106 147h76l108 -147h-73l-74 80z" />
    <glyph glyph-name="Udieresis" unicode="&#xdc;" 
d="M414 700h83v-522q0 -81 -57.5 -134.5t-140.5 -53.5t-140 53t-57 135v522h81v-522q0 -48 32.5 -80.5t83.5 -32.5q50 0 82.5 32t32.5 80v523zM180 807v93h78v-93h-78zM336 807v93h78v-93h-78z" />
    <glyph glyph-name="Yacute" unicode="&#xdd;" 
d="M155 700l145 -324l146 324h88l-192 -410v-290h-84v290l-192 410h89zM329 762h-71l109 148h114z" />
    <glyph glyph-name="Thorn" unicode="&#xde;" 
d="M135 0v700h84v-101h107q67 0 113.5 -45.5t46.5 -110.5v-145q0 -65 -46.5 -110.5t-113.5 -45.5h-107v-142h-84zM401 296v146q0 31 -23 53.5t-55 22.5h-104v-297h104q32 0 55 22t23 53z" />
    <glyph glyph-name="germandbls" unicode="&#xdf;" 
d="M365 59q36 0 57.5 21.5t21.5 51.5q0 28 -16.5 52t-40.5 43.5l-48 41t-40.5 53.5t-16.5 71q0 46 33.5 80.5t79.5 44.5v14q0 49 -30.5 78t-74.5 29q-43 0 -73.5 -32t-30.5 -80v-527h-78v528q0 77 52.5 129.5t129.5 52.5q76 0 127 -50.5t51 -118.5v-75q-46 -2 -76 -20
t-30 -50q0 -23 16.5 -45.5t40 -42.5t47.5 -43t40.5 -56t16.5 -72q0 -62 -45 -104.5t-113 -42.5q-31 0 -61.5 7t-45.5 15l-16 7v73q57 -33 123 -33z" />
    <glyph glyph-name="agrave" unicode="&#xe0;" 
d="M404 0l-5 50q-6 -7 -16 -17t-44.5 -26.5t-70.5 -16.5q-63 0 -113.5 40.5t-50.5 115.5q0 147 171 161l123 9v26q0 41 -27.5 70t-77.5 29q-29 0 -65.5 -5t-58.5 -10l-22 -5v70q80 19 141 19q93 0 140.5 -45.5t47.5 -116.5v-348h-72zM281 59q44 0 80.5 31t36.5 68v91
l-116 -8q-100 -7 -100 -94q0 -43 28.5 -65.5t70.5 -22.5zM356 562h-71l-152 148h114z" />
    <glyph glyph-name="aacute" unicode="&#xe1;" 
d="M404 0l-5 50q-6 -7 -16 -17t-44.5 -26.5t-70.5 -16.5q-63 0 -113.5 40.5t-50.5 115.5q0 147 171 161l123 9v26q0 41 -27.5 70t-77.5 29q-29 0 -65.5 -5t-58.5 -10l-22 -5v70q80 19 141 19q93 0 140.5 -45.5t47.5 -116.5v-348h-72zM281 59q44 0 80.5 31t36.5 68v91
l-116 -8q-100 -7 -100 -94q0 -43 28.5 -65.5t70.5 -22.5zM333 562h-71l109 148h114z" />
    <glyph glyph-name="acircumflex" unicode="&#xe2;" 
d="M404 0l-5 50q-6 -7 -16 -17t-44.5 -26.5t-70.5 -16.5q-63 0 -113.5 40.5t-50.5 115.5q0 147 171 161l123 9v26q0 41 -27.5 70t-77.5 29q-29 0 -65.5 -5t-58.5 -10l-22 -5v70q80 19 141 19q93 0 140.5 -45.5t47.5 -116.5v-348h-72zM281 59q44 0 80.5 31t36.5 68v91
l-116 -8q-100 -7 -100 -94q0 -43 28.5 -65.5t70.5 -22.5zM229 563h-72l106 147h76l108 -147h-73l-74 80z" />
    <glyph glyph-name="atilde" unicode="&#xe3;" 
d="M404 0l-5 50q-6 -7 -16 -17t-44.5 -26.5t-70.5 -16.5q-63 0 -113.5 40.5t-50.5 115.5q0 147 171 161l123 9v26q0 41 -27.5 70t-77.5 29q-29 0 -65.5 -5t-58.5 -10l-22 -5v70q80 19 141 19q93 0 140.5 -45.5t47.5 -116.5v-348h-72zM281 59q44 0 80.5 31t36.5 68v91
l-116 -8q-100 -7 -100 -94q0 -43 28.5 -65.5t70.5 -22.5zM204 576h-57q0 42 28 75.5t66 33.5q25 0 67 -21t55 -21t25.5 13t12.5 25h57q0 -42 -27.5 -75.5t-64.5 -33.5q-26 0 -67.5 21t-54.5 21q-14 0 -27 -12.5t-13 -25.5z" />
    <glyph glyph-name="adieresis" unicode="&#xe4;" 
d="M404 0l-5 50q-6 -7 -16 -17t-44.5 -26.5t-70.5 -16.5q-63 0 -113.5 40.5t-50.5 115.5q0 147 171 161l123 9v26q0 41 -27.5 70t-77.5 29q-29 0 -65.5 -5t-58.5 -10l-22 -5v70q80 19 141 19q93 0 140.5 -45.5t47.5 -116.5v-348h-72zM281 59q44 0 80.5 31t36.5 68v91
l-116 -8q-100 -7 -100 -94q0 -43 28.5 -65.5t70.5 -22.5zM184 607v93h78v-93h-78zM340 607v93h78v-93h-78z" />
    <glyph glyph-name="aring" unicode="&#xe5;" 
d="M404 0l-5 50q-6 -7 -16 -17t-44.5 -26.5t-70.5 -16.5q-63 0 -113.5 40.5t-50.5 115.5q0 147 171 161l123 9v26q0 41 -27.5 70t-77.5 29q-29 0 -65.5 -5t-58.5 -10l-22 -5v70q80 19 141 19q93 0 140.5 -45.5t47.5 -116.5v-348h-72zM281 59q44 0 80.5 31t36.5 68v91
l-116 -8q-100 -7 -100 -94q0 -43 28.5 -65.5t70.5 -22.5zM223 631q0 33 23 56t56 23t56 -23t23 -56t-23 -56t-56 -23t-56 23t-23 56zM271 631q0 -13 9 -22t22 -9t22 9t9 22t-9 22t-22 9t-22 -9t-9 -22z" />
    <glyph glyph-name="ae" unicode="&#xe6;" 
d="M415 -10q-25 0 -46.5 6t-33 14.5t-19.5 17t-11 14.5l-3 6q-4 -6 -12 -16t-38.5 -26t-68.5 -16q-61 0 -104 40t-43 116q0 68 42 108t107 43l79 4v49q0 91 -77 91q-25 0 -52.5 -5t-42.5 -10l-15 -5v70q54 19 115 19q43 0 67 -13.5t43 -40.5q25 28 48.5 41t62.5 13
q69 0 106.5 -47t37.5 -118v-113h-218v-94q0 -37 18 -58t66 -21q26 0 54 6.5t43 12.5l14 7v-74q-53 -21 -119 -21zM191 59q33 0 53 22.5t20 61.5v90l-77 -4q-37 -2 -57 -24t-20 -58q0 -42 21.5 -65t59.5 -23zM339 348v-47h145v45q0 95 -72 95q-37 0 -55 -26.5t-18 -66.5z" />
    <glyph glyph-name="ccedilla" unicode="&#xe7;" 
d="M147 152v196q0 70 49.5 116t137.5 46q29 0 64 -3.5t56 -6.5l20 -4v-72q-84 17 -134 17q-56 0 -85.5 -29t-29.5 -70v-184q0 -40 30.5 -69.5t84.5 -29.5q25 0 61 6.5t59 12.5l23 6v-72q-64 -17 -128 -21l-8 -32q31 0 52 -21t21 -53q0 -33 -25 -54t-62 -21q-12 0 -28 2
t-25 4l-10 2v47q26 -7 57 -7q13 0 22.5 9t9.5 22t-9.5 21.5t-23.5 8.5h-44l18 73q-73 8 -113 52.5t-40 107.5z" />
    <glyph glyph-name="egrave" unicode="&#xe8;" 
d="M204 341v-49h213v49q0 40 -32 70.5t-75 30.5q-46 0 -76 -30t-30 -71zM128 157v186q0 71 50 119t133 48q78 0 129.5 -48.5t51.5 -118.5v-123h-288v-62q0 -41 30 -70t87 -29q26 0 62 6.5t59 12.5l22 7v-74q-85 -21 -151 -21q-89 0 -137 48t-48 119zM362 562h-71l-152 148
h114z" />
    <glyph glyph-name="eacute" unicode="&#xe9;" 
d="M204 341v-49h213v49q0 40 -32 70.5t-75 30.5q-46 0 -76 -30t-30 -71zM128 157v186q0 71 50 119t133 48q78 0 129.5 -48.5t51.5 -118.5v-123h-288v-62q0 -41 30 -70t87 -29q26 0 62 6.5t59 12.5l22 7v-74q-85 -21 -151 -21q-89 0 -137 48t-48 119zM348 562h-71l109 148
h114z" />
    <glyph glyph-name="ecircumflex" unicode="&#xea;" 
d="M204 341v-49h213v49q0 40 -32 70.5t-75 30.5q-46 0 -76 -30t-30 -71zM128 157v186q0 71 50 119t133 48q78 0 129.5 -48.5t51.5 -118.5v-123h-288v-62q0 -41 30 -70t87 -29q26 0 62 6.5t59 12.5l22 7v-74q-85 -21 -151 -21q-89 0 -137 48t-48 119zM240 563h-72l106 147h76
l108 -147h-73l-74 80z" />
    <glyph glyph-name="edieresis" unicode="&#xeb;" 
d="M204 341v-49h213v49q0 40 -32 70.5t-75 30.5q-46 0 -76 -30t-30 -71zM128 157v186q0 71 50 119t133 48q78 0 129.5 -48.5t51.5 -118.5v-123h-288v-62q0 -41 30 -70t87 -29q26 0 62 6.5t59 12.5l22 7v-74q-85 -21 -151 -21q-89 0 -137 48t-48 119zM195 607v93h78v-93h-78z
M351 607v93h78v-93h-78z" />
    <glyph glyph-name="igrave" unicode="&#xec;" 
d="M140 433v67h220v-431h145v-69h-375v69h152v364h-142zM361 562h-71l-152 148h114z" />
    <glyph glyph-name="iacute" unicode="&#xed;" 
d="M140 433v67h220v-431h145v-69h-375v69h152v364h-142zM343 562h-71l109 148h114z" />
    <glyph glyph-name="icircumflex" unicode="&#xee;" 
d="M140 433v67h220v-431h145v-69h-375v69h152v364h-142zM245 563h-72l106 147h76l108 -147h-73l-74 80z" />
    <glyph glyph-name="idieresis" unicode="&#xef;" 
d="M140 433v67h220v-431h145v-69h-375v69h152v364h-142zM203 607v93h78v-93h-78zM359 607v93h78v-93h-78z" />
    <glyph glyph-name="eth" unicode="&#xf0;" 
d="M457 152q0 -69 -49 -115.5t-127 -46.5q-79 0 -128.5 46.5t-49.5 115.5v158q0 67 47.5 113.5t118.5 46.5q32 0 59.5 -11.5t39.5 -22.5l11 -12v92l-1 13l-87 -31v70l75 26q-24 47 -88 47l-67 -7v70q47 6 73 6q116 0 157 -90l75 27v-70l-61 -21q2 -6 2 -40v-364zM379 155
v150q0 40 -28.5 67.5t-70.5 27.5t-70.5 -27.5t-28.5 -67.5v-150q0 -38 29.5 -66.5t70.5 -28.5t69.5 28.5t28.5 66.5z" />
    <glyph glyph-name="ntilde" unicode="&#xf1;" 
d="M498 0h-78v339q0 48 -28.5 75t-73.5 27q-44 0 -80.5 -31t-36.5 -69v-341h-78v499h74l4 -49q5 7 15.5 17t44.5 26.5t72 16.5q70 0 117.5 -46.5t47.5 -125.5v-338zM226 576h-57q0 42 28 75.5t66 33.5q25 0 67 -21t55 -21t25.5 13t12.5 25h57q0 -42 -27.5 -75.5t-64.5 -33.5
q-26 0 -67.5 21t-54.5 21q-14 0 -27 -12.5t-13 -25.5z" />
    <glyph glyph-name="ograve" unicode="&#xf2;" 
d="M485 344v-188q0 -69 -51.5 -117.5t-132.5 -48.5q-83 0 -134.5 48.5t-51.5 117.5v188q0 69 52 117.5t134 48.5q81 0 132.5 -48.5t51.5 -117.5zM408 161v178q0 43 -30.5 73t-77.5 30q-46 0 -77 -30t-31 -73v-178q0 -43 31 -73t78 -30q45 0 76 30.5t31 72.5zM340 562h-71
l-152 148h114z" />
    <glyph glyph-name="oacute" unicode="&#xf3;" 
d="M485 344v-188q0 -69 -51.5 -117.5t-132.5 -48.5q-83 0 -134.5 48.5t-51.5 117.5v188q0 69 52 117.5t134 48.5q81 0 132.5 -48.5t51.5 -117.5zM408 161v178q0 43 -30.5 73t-77.5 30q-46 0 -77 -30t-31 -73v-178q0 -43 31 -73t78 -30q45 0 76 30.5t31 72.5zM325 562h-71
l109 148h114z" />
    <glyph glyph-name="ocircumflex" unicode="&#xf4;" 
d="M485 344v-188q0 -69 -51.5 -117.5t-132.5 -48.5q-83 0 -134.5 48.5t-51.5 117.5v188q0 69 52 117.5t134 48.5q81 0 132.5 -48.5t51.5 -117.5zM408 161v178q0 43 -30.5 73t-77.5 30q-46 0 -77 -30t-31 -73v-178q0 -43 31 -73t78 -30q45 0 76 30.5t31 72.5zM229 563h-72
l106 147h76l108 -147h-73l-74 80z" />
    <glyph glyph-name="otilde" unicode="&#xf5;" 
d="M485 344v-188q0 -69 -51.5 -117.5t-132.5 -48.5q-83 0 -134.5 48.5t-51.5 117.5v188q0 69 52 117.5t134 48.5q81 0 132.5 -48.5t51.5 -117.5zM408 161v178q0 43 -30.5 73t-77.5 30q-46 0 -77 -30t-31 -73v-178q0 -43 31 -73t78 -30q45 0 76 30.5t31 72.5zM203 576h-57
q0 42 28 75.5t66 33.5q26 0 67 -21t55 -21q13 0 25.5 13t12.5 25h57q0 -42 -27.5 -75.5t-64.5 -33.5q-26 0 -67.5 21t-54.5 21q-14 0 -27 -12.5t-13 -25.5z" />
    <glyph glyph-name="odieresis" unicode="&#xf6;" 
d="M485 344v-188q0 -69 -51.5 -117.5t-132.5 -48.5q-83 0 -134.5 48.5t-51.5 117.5v188q0 69 52 117.5t134 48.5q81 0 132.5 -48.5t51.5 -117.5zM408 161v178q0 43 -30.5 73t-77.5 30q-46 0 -77 -30t-31 -73v-178q0 -43 31 -73t78 -30q45 0 76 30.5t31 72.5zM186 607v93h78
v-93h-78zM342 607v93h78v-93h-78z" />
    <glyph glyph-name="divide" unicode="&#xf7;" 
d="M93 331h414v-80h-414v80zM250 83v99h101v-99h-101zM250 399v99h101v-99h-101z" />
    <glyph glyph-name="oslash" unicode="&#xf8;" 
d="M138 10l20 36q-43 46 -43 110v188q0 69 52 117.5t134 48.5q53 0 100 -25l14 26l44 -24l-18 -33q44 -47 44 -110v-188q0 -69 -51.5 -117.5t-132.5 -48.5q-55 0 -103 25l-16 -29zM408 161v178q0 22 -9 40l-166 -300q29 -21 68 -21q45 0 76 30.5t31 72.5zM192 161
q0 -23 8 -40l166 301q-30 20 -66 20q-46 0 -77 -30t-31 -73v-178z" />
    <glyph glyph-name="ugrave" unicode="&#xf9;" 
d="M112 499h78v-339q0 -48 28.5 -75t73.5 -27q44 0 80.5 31t36.5 69v341h78v-499h-74l-4 49q-5 -7 -15.5 -17t-44.5 -26.5t-72 -16.5q-70 0 -117.5 46.5t-47.5 125.5v338zM359 562h-71l-152 148h114z" />
    <glyph glyph-name="uacute" unicode="&#xfa;" 
d="M112 499h78v-339q0 -48 28.5 -75t73.5 -27q44 0 80.5 31t36.5 69v341h78v-499h-74l-4 49q-5 -7 -15.5 -17t-44.5 -26.5t-72 -16.5q-70 0 -117.5 46.5t-47.5 125.5v338zM327 562h-71l109 148h114z" />
    <glyph glyph-name="ucircumflex" unicode="&#xfb;" 
d="M112 499h78v-339q0 -48 28.5 -75t73.5 -27q44 0 80.5 31t36.5 69v341h78v-499h-74l-4 49q-5 -7 -15.5 -17t-44.5 -26.5t-72 -16.5q-70 0 -117.5 46.5t-47.5 125.5v338zM229 563h-72l106 147h76l108 -147h-73l-74 80z" />
    <glyph glyph-name="udieresis" unicode="&#xfc;" 
d="M112 499h78v-339q0 -48 28.5 -75t73.5 -27q44 0 80.5 31t36.5 69v341h78v-499h-74l-4 49q-5 -7 -15.5 -17t-44.5 -26.5t-72 -16.5q-70 0 -117.5 46.5t-47.5 125.5v338zM185 607v93h78v-93h-78zM341 607v93h78v-93h-78z" />
    <glyph glyph-name="yacute" unicode="&#xfd;" 
d="M169 500l136 -379l126 379h84l-247 -680h-79l73 201l-177 479h84zM320 562h-71l109 148h114z" />
    <glyph glyph-name="thorn" unicode="&#xfe;" 
d="M123 -180v880h77v-251q5 7 14.5 17t44 26.5t74.5 16.5q65 0 115 -48t50 -114v-196q0 -66 -50 -114t-115 -48q-39 0 -72 14t-47 28l-13 14v-225h-78zM420 157v184q0 43 -30 71t-77 28q-46 0 -79 -32t-33 -67v-184q0 -35 33 -67t79 -32q47 0 77 28t30 71z" />
    <glyph glyph-name="ydieresis" unicode="&#xff;" 
d="M169 500l136 -379l126 379h84l-247 -680h-79l73 201l-177 479h84zM183 607v93h78v-93h-78zM339 607v93h78v-93h-78z" />
    <glyph glyph-name="Amacron" unicode="&#x100;" 
d="M444 0l-50 224h-188l-50 -224h-81l162 700h126l162 -700h-81zM298 630l-75 -330h154l-74 330h-5zM165 797v74h270v-74h-270z" />
    <glyph glyph-name="amacron" unicode="&#x101;" 
d="M404 0l-5 50q-6 -7 -16 -17t-44.5 -26.5t-70.5 -16.5q-63 0 -113.5 40.5t-50.5 115.5q0 147 171 161l123 9v26q0 41 -27.5 70t-77.5 29q-29 0 -65.5 -5t-58.5 -10l-22 -5v70q80 19 141 19q93 0 140.5 -45.5t47.5 -116.5v-348h-72zM281 59q44 0 80.5 31t36.5 68v91
l-116 -8q-100 -7 -100 -94q0 -43 28.5 -65.5t70.5 -22.5zM166 597v74h270v-74h-270z" />
    <glyph glyph-name="Abreve" unicode="&#x102;" 
d="M444 0l-50 224h-188l-50 -224h-81l162 700h126l162 -700h-81zM298 630l-75 -330h154l-74 330h-5zM165 900h68q0 -24 18 -42t48 -18q32 0 49.5 18t17.5 42h68q0 -55 -36.5 -91t-98.5 -36t-98 36t-36 91z" />
    <glyph glyph-name="abreve" unicode="&#x103;" 
d="M404 0l-5 50q-6 -7 -16 -17t-44.5 -26.5t-70.5 -16.5q-63 0 -113.5 40.5t-50.5 115.5q0 147 171 161l123 9v26q0 41 -27.5 70t-77.5 29q-29 0 -65.5 -5t-58.5 -10l-22 -5v70q80 19 141 19q93 0 140.5 -45.5t47.5 -116.5v-348h-72zM281 59q44 0 80.5 31t36.5 68v91
l-116 -8q-100 -7 -100 -94q0 -43 28.5 -65.5t70.5 -22.5zM160 700h68q0 -24 18 -42t48 -18q32 0 49.5 18t17.5 42h68q0 -55 -36.5 -91t-98.5 -36t-98 36t-36 91z" />
    <glyph glyph-name="Aogonek" unicode="&#x104;" 
d="M439 0l-50 224h-188l-50 -224h-81l162 700h126l162 -700l-22 -17.5t-34.5 -37t-21.5 -45.5q0 -13 8 -22t24 -9q10 0 24 2.5t23 5.5l9 3v-55q-35 -15 -67 -15q-40 0 -65 23.5t-25 60.5q0 26 18 52.5t36 39.5l18 14h-6zM293 630l-75 -330h154l-74 330h-5z" />
    <glyph glyph-name="aogonek" unicode="&#x105;" 
d="M486 -120v-55q-35 -15 -67 -15q-40 0 -65 23.5t-25 60.5q0 26 18.5 52.5t37.5 39.5l19 14l-5 50q-6 -7 -16 -17t-44.5 -26.5t-70.5 -16.5q-63 0 -113.5 40.5t-50.5 115.5q0 147 171 161l123 9v26q0 41 -27.5 70t-77.5 29q-29 0 -65.5 -5t-58.5 -10l-22 -5v70
q80 19 141 19q93 0 140.5 -45.5t47.5 -116.5v-348l-22 -17.5t-34.5 -37t-21.5 -45.5q0 -13 8 -22t24 -9q10 0 24 2.5t23 5.5zM281 59q44 0 80.5 31t36.5 68v91l-116 -8q-100 -7 -100 -94q0 -43 28.5 -65.5t70.5 -22.5z" />
    <glyph glyph-name="Cacute" unicode="&#x106;" 
d="M486 108v-79q-66 -39 -168 -39q-89 0 -147 53t-58 135v345q0 82 57 134.5t149 52.5q40 0 78.5 -8t56.5 -16l19 -9v-77q-80 35 -155 35q-58 0 -91 -31t-33 -81v-345q0 -49 34 -81t90 -32q35 0 77 10.5t67 21.5zM350 762h-71l109 148h114z" />
    <glyph glyph-name="cacute" unicode="&#x107;" 
d="M147 152v196q0 70 49.5 116t137.5 46q29 0 64 -3.5t56 -6.5l20 -4v-72q-84 17 -134 17q-56 0 -85.5 -29t-29.5 -70v-184q0 -40 30.5 -69.5t84.5 -29.5q25 0 61 6.5t59 12.5l23 6v-72q-80 -22 -151 -22q-87 0 -136 46t-49 116zM368 562h-71l109 148h114z" />
    <glyph glyph-name="Ccircumflex" unicode="&#x108;" 
d="M486 108v-79q-66 -39 -168 -39q-89 0 -147 53t-58 135v345q0 82 57 134.5t149 52.5q40 0 78.5 -8t56.5 -16l19 -9v-77q-80 35 -155 35q-58 0 -91 -31t-33 -81v-345q0 -49 34 -81t90 -32q35 0 77 10.5t67 21.5zM250 763h-72l106 147h76l108 -147h-73l-74 80z" />
    <glyph glyph-name="ccircumflex" unicode="&#x109;" 
d="M147 152v196q0 70 49.5 116t137.5 46q29 0 64 -3.5t56 -6.5l20 -4v-72q-84 17 -134 17q-56 0 -85.5 -29t-29.5 -70v-184q0 -40 30.5 -69.5t84.5 -29.5q25 0 61 6.5t59 12.5l23 6v-72q-80 -22 -151 -22q-87 0 -136 46t-49 116zM263 563h-72l106 147h76l108 -147h-73
l-74 80z" />
    <glyph glyph-name="Cdotaccent" unicode="&#x10a;" 
d="M486 108v-79q-66 -39 -168 -39q-89 0 -147 53t-58 135v345q0 82 57 134.5t149 52.5q40 0 78.5 -8t56.5 -16l19 -9v-77q-80 35 -155 35q-58 0 -91 -31t-33 -81v-345q0 -49 34 -81t90 -32q35 0 77 10.5t67 21.5zM282 807v93h78v-93h-78z" />
    <glyph glyph-name="cdotaccent" unicode="&#x10b;" 
d="M147 152v196q0 70 49.5 116t137.5 46q29 0 64 -3.5t56 -6.5l20 -4v-72q-84 17 -134 17q-56 0 -85.5 -29t-29.5 -70v-184q0 -40 30.5 -69.5t84.5 -29.5q25 0 61 6.5t59 12.5l23 6v-72q-80 -22 -151 -22q-87 0 -136 46t-49 116zM295 607v93h78v-93h-78z" />
    <glyph glyph-name="Ccaron" unicode="&#x10c;" 
d="M486 108v-79q-66 -39 -168 -39q-89 0 -147 53t-58 135v345q0 82 57 134.5t149 52.5q40 0 78.5 -8t56.5 -16l19 -9v-77q-80 35 -155 35q-58 0 -91 -31t-33 -81v-345q0 -49 34 -81t90 -32q35 0 77 10.5t67 21.5zM397 910h72l-106 -147h-76l-108 147h73l74 -80z" />
    <glyph glyph-name="ccaron" unicode="&#x10d;" 
d="M147 152v196q0 70 49.5 116t137.5 46q29 0 64 -3.5t56 -6.5l20 -4v-72q-84 17 -134 17q-56 0 -85.5 -29t-29.5 -70v-184q0 -40 30.5 -69.5t84.5 -29.5q25 0 61 6.5t59 12.5l23 6v-72q-80 -22 -151 -22q-87 0 -136 46t-49 116zM410 710h72l-106 -147h-76l-108 147h73
l74 -80z" />
    <glyph glyph-name="Dcaron" unicode="&#x10e;" 
d="M497 517v-334q0 -76 -55 -129.5t-133 -53.5h-184v700h184q78 0 133 -53.5t55 -129.5zM415 182v334q0 45 -31.5 76t-77.5 31h-101v-548h101q46 0 77.5 31t31.5 76zM355 910h72l-106 -147h-76l-108 147h73l74 -80z" />
    <glyph glyph-name="dcaron" unicode="&#x10f;" 
d="M458 700v-700h-72l-5 50q-5 -7 -14.5 -17t-44 -26.5t-74.5 -16.5q-65 0 -115 48t-50 114v196q0 66 50 114t115 48q39 0 72 -14t46 -28l14 -14v246h78zM161 342v-184q0 -43 30 -71t77 -28q46 0 79 32t33 67v184q0 35 -33 67t-79 32q-47 0 -77 -28t-30 -71zM512 608v92h88
v-83q0 -68 -29.5 -94.5t-65.5 -26.5v39q44 2 44 73h-37z" />
    <glyph glyph-name="Dcroat" unicode="&#x110;" 
d="M499 517v-334q0 -76 -55.5 -129.5t-133.5 -53.5h-184v332h-61v74h61v294h184q78 0 133.5 -53.5t55.5 -129.5zM313 406v-74h-106v-257h100q46 0 77.5 31t31.5 76v335q0 45 -31.5 76.5t-77.5 31.5h-100v-219h106z" />
    <glyph glyph-name="dcroat" unicode="&#x111;" 
d="M265 567v69h134v64h78v-64h50v-69h-50v-567h-72l-5 50q-5 -7 -14.5 -17t-44 -26.5t-74.5 -16.5q-65 0 -115 48t-50 114v186q0 66 50 114t115 48q39 0 72 -14t47 -28l13 -14v123h-134zM180 332v-174q0 -43 30 -71t77 -28q46 0 79 32t33 67v174q0 35 -33 67t-79 32
q-47 0 -77 -28t-30 -71z" />
    <glyph glyph-name="Emacron" unicode="&#x112;" 
d="M131 700h340v-75h-260v-219h236v-74h-236v-257h268v-75h-348v700zM168 797v74h270v-74h-270z" />
    <glyph glyph-name="emacron" unicode="&#x113;" 
d="M204 341v-49h213v49q0 40 -32 70.5t-75 30.5q-46 0 -76 -30t-30 -71zM128 157v186q0 71 50 119t133 48q78 0 129.5 -48.5t51.5 -118.5v-123h-288v-62q0 -41 30 -70t87 -29q26 0 62 6.5t59 12.5l22 7v-74q-85 -21 -151 -21q-89 0 -137 48t-48 119zM176 597v74h270v-74
h-270z" />
    <glyph glyph-name="Ebreve" unicode="&#x114;" 
d="M131 700h340v-75h-260v-219h236v-74h-236v-257h268v-75h-348v700zM174 900h68q0 -24 18 -42t48 -18q32 0 49.5 18t17.5 42h68q0 -55 -36.5 -91t-98.5 -36t-98 36t-36 91z" />
    <glyph glyph-name="ebreve" unicode="&#x115;" 
d="M204 341v-49h213v49q0 40 -32 70.5t-75 30.5q-46 0 -76 -30t-30 -71zM128 157v186q0 71 50 119t133 48q78 0 129.5 -48.5t51.5 -118.5v-123h-288v-62q0 -41 30 -70t87 -29q26 0 62 6.5t59 12.5l22 7v-74q-85 -21 -151 -21q-89 0 -137 48t-48 119zM181 700h68
q0 -24 18 -42t48 -18q32 0 49.5 18t17.5 42h68q0 -55 -36.5 -91t-98.5 -36t-98 36t-36 91z" />
    <glyph glyph-name="Edotaccent" unicode="&#x116;" 
d="M131 700h340v-75h-260v-219h236v-74h-236v-257h268v-75h-348v700zM267 807v93h78v-93h-78z" />
    <glyph glyph-name="edotaccent" unicode="&#x117;" 
d="M204 341v-49h213v49q0 40 -32 70.5t-75 30.5q-46 0 -76 -30t-30 -71zM128 157v186q0 71 50 119t133 48q78 0 129.5 -48.5t51.5 -118.5v-123h-288v-62q0 -41 30 -70t87 -29q26 0 62 6.5t59 12.5l22 7v-74q-85 -21 -151 -21q-89 0 -137 48t-48 119zM274 607v93h78v-93h-78z
" />
    <glyph glyph-name="Eogonek" unicode="&#x118;" 
d="M131 700h340v-75h-260v-219h236v-74h-236v-257h268v-75l-22 -18t-35 -38.5t-22 -46.5q0 -13 8.5 -23t25.5 -10q15 0 55 10v-51q-36 -14 -66 -14q-39 0 -63.5 23t-24.5 59q0 26 19.5 53.5t38.5 41.5l19 14h-281v700z" />
    <glyph glyph-name="eogonek" unicode="&#x119;" 
d="M128 157v186q0 71 50 119t133 48q78 0 129.5 -48.5t51.5 -118.5v-123h-288v-62q0 -41 30 -70t87 -29q26 0 62 6.5t59 12.5l22 7v-75l-22 -20.5t-35 -42t-22 -47.5q0 -13 8 -22t24 -9q10 0 24 2.5t23 5.5l9 3v-55q-35 -15 -67 -15q-40 0 -65 23.5t-25 60.5q0 54 65 101
q-38 -5 -68 -5q-89 0 -137 48t-48 119zM204 341v-49h213v49q0 40 -32 70.5t-75 30.5q-46 0 -76 -30t-30 -71z" />
    <glyph glyph-name="Ecaron" unicode="&#x11a;" 
d="M131 700h340v-75h-260v-219h236v-74h-236v-257h268v-75h-348v700zM384 910h72l-106 -147h-76l-108 147h73l74 -80z" />
    <glyph glyph-name="ecaron" unicode="&#x11b;" 
d="M204 341v-49h213v49q0 40 -32 70.5t-75 30.5q-46 0 -76 -30t-30 -71zM128 157v186q0 71 50 119t133 48q78 0 129.5 -48.5t51.5 -118.5v-123h-288v-62q0 -41 30 -70t87 -29q26 0 62 6.5t59 12.5l22 7v-74q-85 -21 -151 -21q-89 0 -137 48t-48 119zM389 710h72l-106 -147
h-76l-108 147h73l74 -80z" />
    <glyph glyph-name="Gcircumflex" unicode="&#x11c;" 
d="M497 358v-324q-88 -44 -190 -44q-89 0 -147 53t-58 135v345q0 82 57 134.5t149 52.5q44 0 85.5 -9t58 -16t23.5 -12v-77q-93 39 -168 39q-56 0 -90 -32t-34 -80v-345q0 -49 34 -81t90 -32q28 0 55.5 6.5t40.5 12.5l13 6v193h-103v75h184zM235 763h-72l106 147h76
l108 -147h-73l-74 80z" />
    <glyph glyph-name="gcircumflex" unicode="&#x11d;" 
d="M399 -24v80q-5 -6 -15 -15.5t-44 -25t-73 -15.5q-65 0 -115 48t-50 114v186q0 66 50 114t115 48q40 0 73.5 -15t46.5 -30l13 -15l5 50h72v-530q0 -69 -47.5 -114.5t-131.5 -45.5q-40 0 -77.5 5t-55.5 11l-18 5v73q66 -25 143 -25q51 0 80 28.5t29 68.5zM180 342v-174
q0 -43 30 -71t77 -28q46 0 79 32t33 67v174q0 35 -33 67t-79 32q-47 0 -77 -28t-30 -71zM224 563h-72l106 147h76l108 -147h-73l-74 80z" />
    <glyph glyph-name="Gbreve" unicode="&#x11e;" 
d="M497 358v-324q-88 -44 -190 -44q-89 0 -147 53t-58 135v345q0 82 57 134.5t149 52.5q44 0 85.5 -9t58 -16t23.5 -12v-77q-93 39 -168 39q-56 0 -90 -32t-34 -80v-345q0 -49 34 -81t90 -32q28 0 55.5 6.5t40.5 12.5l13 6v193h-103v75h184zM173 900h68q0 -24 18 -42t48 -18
q32 0 49.5 18t17.5 42h68q0 -55 -36.5 -91t-98.5 -36t-98 36t-36 91z" />
    <glyph glyph-name="gbreve" unicode="&#x11f;" 
d="M399 -24v80q-5 -6 -15 -15.5t-44 -25t-73 -15.5q-65 0 -115 48t-50 114v186q0 66 50 114t115 48q40 0 73.5 -15t46.5 -30l13 -15l5 50h72v-530q0 -69 -47.5 -114.5t-131.5 -45.5q-40 0 -77.5 5t-55.5 11l-18 5v73q66 -25 143 -25q51 0 80 28.5t29 68.5zM180 342v-174
q0 -43 30 -71t77 -28q46 0 79 32t33 67v174q0 35 -33 67t-79 32q-47 0 -77 -28t-30 -71zM157 700h68q0 -24 18 -42t48 -18q32 0 49.5 18t17.5 42h68q0 -55 -36.5 -91t-98.5 -36t-98 36t-36 91z" />
    <glyph glyph-name="Gdotaccent" unicode="&#x120;" 
d="M497 358v-324q-88 -44 -190 -44q-89 0 -147 53t-58 135v345q0 82 57 134.5t149 52.5q44 0 85.5 -9t58 -16t23.5 -12v-77q-93 39 -168 39q-56 0 -90 -32t-34 -80v-345q0 -49 34 -81t90 -32q28 0 55.5 6.5t40.5 12.5l13 6v193h-103v75h184zM268 807v93h78v-93h-78z" />
    <glyph glyph-name="gdotaccent" unicode="&#x121;" 
d="M399 -24v80q-5 -6 -15 -15.5t-44 -25t-73 -15.5q-65 0 -115 48t-50 114v186q0 66 50 114t115 48q40 0 73.5 -15t46.5 -30l13 -15l5 50h72v-530q0 -69 -47.5 -114.5t-131.5 -45.5q-40 0 -77.5 5t-55.5 11l-18 5v73q66 -25 143 -25q51 0 80 28.5t29 68.5zM180 342v-174
q0 -43 30 -71t77 -28q46 0 79 32t33 67v174q0 35 -33 67t-79 32q-47 0 -77 -28t-30 -71zM255 607v93h78v-93h-78z" />
    <glyph glyph-name="Gcommaaccent" unicode="&#x122;" 
d="M497 358v-324q-88 -44 -190 -44q-89 0 -147 53t-58 135v345q0 82 57 134.5t149 52.5q44 0 85.5 -9t58 -16t23.5 -12v-77q-93 39 -168 39q-56 0 -90 -32t-34 -80v-345q0 -49 34 -81t90 -32q28 0 55.5 6.5t40.5 12.5l13 6v193h-103v75h184zM265 -137v92h88v-83
q0 -68 -29.5 -94.5t-65.5 -26.5v39q44 2 44 73h-37z" />
    <glyph glyph-name="gcommaaccent" unicode="&#x123;" 
d="M399 -24v80q-5 -6 -15 -15.5t-44 -25t-73 -15.5q-65 0 -115 48t-50 114v186q0 66 50 114t115 48q40 0 73.5 -15t46.5 -30l13 -15l5 50h72v-530q0 -69 -47.5 -114.5t-131.5 -45.5q-40 0 -77.5 5t-55.5 11l-18 5v73q66 -25 143 -25q51 0 80 28.5t29 68.5zM180 342v-174
q0 -43 30 -71t77 -28q46 0 79 32t33 67v174q0 35 -33 67t-79 32q-47 0 -77 -28t-30 -71zM343 655v-92h-88v83q0 68 29.5 94.5t65.5 26.5v-39q-44 -2 -44 -73h37z" />
    <glyph glyph-name="Hcircumflex" unicode="&#x124;" 
d="M409 700h82v-700h-82v332h-221v-332h-80v700h80v-294h221v294zM225 763h-72l106 147h76l108 -147h-73l-74 80z" />
    <glyph glyph-name="hcircumflex" unicode="&#x125;" 
d="M498 0h-78v339q0 48 -28.5 75t-73.5 27q-44 0 -80.5 -31t-36.5 -69v-341h-78v700h78v-247q5 6 15.5 15.5t44.5 25.5t72 16q70 0 117.5 -46.5t47.5 -125.5v-338zM215 763h-72l106 147h76l108 -147h-73l-74 80z" />
    <glyph glyph-name="Hbar" unicode="&#x126;" 
d="M410 700h82v-117h45v-70h-45v-513h-82v332h-221v-332h-80v513h-46v70h46v117h80v-117h221v117zM189 406h221v107h-221v-107z" />
    <glyph glyph-name="hbar" unicode="&#x127;" 
d="M75 567v69h50v64h78v-64h134v-69h-134v-123q5 6 15.5 15.5t44.5 25.5t72 16q70 0 117.5 -46.5t47.5 -125.5v-329h-78v330q0 48 -28.5 75t-73.5 27q-44 0 -80.5 -31t-36.5 -69v-332h-78v567h-50z" />
    <glyph glyph-name="Itilde" unicode="&#x128;" 
d="M109 626v74h382v-74h-151v-552h151v-74h-382v74h150v552h-150zM201 776h-57q0 42 28 75.5t66 33.5q26 0 67 -21t55 -21q13 0 25.5 13t12.5 25h57q0 -42 -27.5 -75.5t-64.5 -33.5q-26 0 -67.5 21t-54.5 21q-14 0 -27 -12.5t-13 -25.5z" />
    <glyph glyph-name="itilde" unicode="&#x129;" 
d="M140 433v67h220v-431h145v-69h-375v69h152v364h-142zM221 576h-57q0 42 28 75.5t66 33.5q26 0 67 -21t55 -21q13 0 25.5 13t12.5 25h57q0 -42 -27.5 -75.5t-64.5 -33.5q-26 0 -67.5 21t-54.5 21q-14 0 -27 -12.5t-13 -25.5z" />
    <glyph glyph-name="Imacron" unicode="&#x12a;" 
d="M109 626v74h382v-74h-151v-552h151v-74h-382v74h150v552h-150zM165 797v74h270v-74h-270z" />
    <glyph glyph-name="imacron" unicode="&#x12b;" 
d="M140 433v67h220v-431h145v-69h-375v69h152v364h-142zM177 597v74h270v-74h-270z" />
    <glyph glyph-name="Ibreve" unicode="&#x12c;" 
d="M109 626v74h382v-74h-151v-552h151v-74h-382v74h150v552h-150zM165 900h68q0 -24 18 -42t48 -18q32 0 49.5 18t17.5 42h68q0 -55 -36.5 -91t-98.5 -36t-98 36t-36 91z" />
    <glyph glyph-name="ibreve" unicode="&#x12d;" 
d="M140 433v67h220v-431h145v-69h-375v69h152v364h-142zM184 700h68q0 -24 18 -42t48 -18q32 0 49.5 18t17.5 42h68q0 -55 -36.5 -91t-98.5 -36t-98 36t-36 91z" />
    <glyph glyph-name="Iogonek" unicode="&#x12e;" 
d="M109 626v74h382v-74h-151v-552h151v-74l-22 -17.5t-34.5 -37t-21.5 -45.5q0 -13 8 -22t24 -9q10 0 24 2.5t23 5.5l9 3v-55q-35 -15 -67 -15q-40 0 -65 23.5t-25 60.5q0 26 18 52.5t36 39.5l18 14h-307v74h150v552h-150z" />
    <glyph glyph-name="iogonek" unicode="&#x12f;" 
d="M140 433v67h220v-431h145v-69l-22 -17.5t-34.5 -37t-21.5 -45.5q0 -13 8 -22t24 -9q10 0 24 2.5t23 5.5l9 3v-55q-35 -15 -67 -15q-40 0 -65 23.5t-25 60.5q0 26 18 52.5t36 39.5l18 14h-300v69h152v364h-142zM282 607v93h78v-93h-78z" />
    <glyph glyph-name="Idotaccent" unicode="&#x130;" 
d="M109 626v74h382v-74h-151v-552h151v-74h-382v74h150v552h-150zM260 807v93h78v-93h-78z" />
    <glyph glyph-name="dotlessi" unicode="&#x131;" 
d="M140 433v67h220v-431h145v-69h-375v69h152v364h-142z" />
    <glyph glyph-name="IJ" unicode="&#x132;" 
d="M333 626v74h183v-567q0 -63 -35.5 -103t-100.5 -40q-54 0 -90 12v73q30 -10 74 -10q31 0 50 20t19 53v488h-100zM48 626v74h201v-74h-60v-552h60v-74h-201v74h60v552h-60z" />
    <glyph glyph-name="ij" unicode="&#x133;" 
d="M343 433v67h157v-553q0 -59 -35.5 -98t-91.5 -39q-22 0 -43.5 3t-32.5 5l-11 3v73q26 -12 75 -12q25 0 42.5 18t17.5 44v489h-78zM83 433v67h147v-431h78v-69h-230v69h74v364h-69zM421 607v93h79v-93h-79zM152 607v93h78v-93h-78z" />
    <glyph glyph-name="Jcircumflex" unicode="&#x134;" 
d="M108 29v79q89 -43 168 -43q56 0 90 32t34 81v448h-284v74h365v-522q0 -82 -58 -135t-147 -53q-45 0 -87 10t-61 20zM242 763h-72l106 147h76l108 -147h-73l-74 80z" />
    <glyph glyph-name="jcircumflex" unicode="&#x135;" 
d="M282 563h-72l106 147h76l108 -147h-73l-74 80zM180 433v67h221v-553q0 -59 -35.5 -98t-91.5 -39q-22 0 -43.5 3t-32.5 5l-11 3v73q26 -12 75 -12q25 0 42.5 18t17.5 44v489h-142z" />
    <glyph glyph-name="Kcommaaccent" unicode="&#x136;" 
d="M523 700l-233 -329l244 -371h-93l-240 371l228 329h94zM201 700v-700h-81v700h81zM257 -137v92h88v-83q0 -68 -29.5 -94.5t-65.5 -26.5v39q44 2 44 73h-37z" />
    <glyph glyph-name="kcommaaccent" unicode="&#x137;" 
d="M140 0v700h77v-700h-77zM438 0l-221 264l206 236h94l-207 -236l226 -264h-98zM252 -137v92h88v-83q0 -68 -29.5 -94.5t-65.5 -26.5v39q44 2 44 73h-37z" />
    <glyph glyph-name="kgreenlandic" unicode="&#x138;" 
d="M140 0v499h77v-499h-77zM438 0l-221 264l206 236h94l-207 -236l226 -264h-98z" />
    <glyph glyph-name="Lacute" unicode="&#x139;" 
d="M156 700h81v-625h289v-75h-370v700zM229 762h-71l109 148h114z" />
    <glyph glyph-name="lacute" unicode="&#x13a;" 
d="M140 633v67h220v-631h145v-69h-375v69h152v564h-142zM335 762h-71l109 148h114z" />
    <glyph glyph-name="Lcommaaccent" unicode="&#x13b;" 
d="M156 700h81v-625h289v-75h-370v700zM298 -137v92h88v-83q0 -68 -29.5 -94.5t-65.5 -26.5v39q44 2 44 73h-37z" />
    <glyph glyph-name="lcommaaccent" unicode="&#x13c;" 
d="M140 633v67h220v-631h145v-69h-375v69h152v564h-142zM259 -137v92h88v-83q0 -68 -29.5 -94.5t-65.5 -26.5v39q44 2 44 73h-37z" />
    <glyph glyph-name="Lcaron" unicode="&#x13d;" 
d="M156 700h81v-625h289v-75h-370v700zM373 608v92h88v-83q0 -68 -29.5 -94.5t-65.5 -26.5v39q44 2 44 73h-37z" />
    <glyph glyph-name="lcaron" unicode="&#x13e;" 
d="M140 633v67h220v-631h145v-69h-375v69h152v564h-142zM437 608v92h88v-83q0 -68 -29.5 -94.5t-65.5 -26.5v39q44 2 44 73h-37z" />
    <glyph glyph-name="Ldot" unicode="&#x13f;" 
d="M156 700h81v-625h289v-75h-370v700zM376 310v98h98v-98h-98z" />
    <glyph glyph-name="ldot" unicode="&#x140;" 
d="M140 633v67h220v-631h145v-69h-375v69h152v564h-142zM439 242v98h98v-98h-98z" />
    <glyph glyph-name="Lslash" unicode="&#x141;" 
d="M386 476l-2 -88l-147 -83v-230h289v-75h-370v260l-60 -34v87l60 34v353h81v-308z" />
    <glyph glyph-name="lslash" unicode="&#x142;" 
d="M140 229v79l142 79v246h-142v67h220v-270l146 81v-79l-146 -81v-282h145v-69h-375v69h152v239z" />
    <glyph glyph-name="Nacute" unicode="&#x143;" 
d="M412 700h79v-700h-93l-188 474l-29 100h-4l9 -114v-460h-78v700h92l188 -474l29 -100h4l-9 115v459zM337 762h-71l109 148h114z" />
    <glyph glyph-name="nacute" unicode="&#x144;" 
d="M498 0h-78v339q0 48 -28.5 75t-73.5 27q-44 0 -80.5 -31t-36.5 -69v-341h-78v499h74l4 -49q5 7 15.5 17t44.5 26.5t72 16.5q70 0 117.5 -46.5t47.5 -125.5v-338zM358 562h-71l109 148h114z" />
    <glyph glyph-name="Ncommaaccent" unicode="&#x145;" 
d="M412 700h79v-700h-93l-188 474l-29 100h-4l9 -114v-460h-78v700h92l188 -474l29 -100h4l-9 115v459zM250 -137v92h88v-83q0 -68 -29.5 -94.5t-65.5 -26.5v39q44 2 44 73h-37z" />
    <glyph glyph-name="ncommaaccent" unicode="&#x146;" 
d="M498 0h-78v339q0 48 -28.5 75t-73.5 27q-44 0 -80.5 -31t-36.5 -69v-341h-78v499h74l4 -49q5 7 15.5 17t44.5 26.5t72 16.5q70 0 117.5 -46.5t47.5 -125.5v-338zM281 -137v92h88v-83q0 -68 -29.5 -94.5t-65.5 -26.5v39q44 2 44 73h-37z" />
    <glyph glyph-name="Ncaron" unicode="&#x147;" 
d="M412 700h79v-700h-93l-188 474l-29 100h-4l9 -114v-460h-78v700h92l188 -474l29 -100h4l-9 115v459zM371 910h72l-106 -147h-76l-108 147h73l74 -80z" />
    <glyph glyph-name="ncaron" unicode="&#x148;" 
d="M498 0h-78v339q0 48 -28.5 75t-73.5 27q-44 0 -80.5 -31t-36.5 -69v-341h-78v499h74l4 -49q5 7 15.5 17t44.5 26.5t72 16.5q70 0 117.5 -46.5t47.5 -125.5v-338zM399 710h72l-106 -147h-76l-108 147h73l74 -80z" />
    <glyph glyph-name="napostrophe" unicode="&#x149;" 
d="M498 0h-78v339q0 48 -28.5 75t-73.5 27q-44 0 -80.5 -31t-36.5 -69v-341h-78v499h74l4 -49q5 7 15.5 17t44.5 26.5t72 16.5q70 0 117.5 -46.5t47.5 -125.5v-338zM18 608v92h88v-83q0 -68 -29.5 -94.5t-65.5 -26.5v39q44 2 44 73h-37z" />
    <glyph glyph-name="Eng" unicode="&#x14a;" 
d="M412 700h79v-749q0 -63 -33.5 -103t-97.5 -40q-47 0 -71 8v70q25 -6 55 -6q31 0 49.5 21t18.5 55v31l-202 487l-29 100h-4l9 -114v-460h-78v700h92l188 -452l29 -100h4l-9 116v436z" />
    <glyph glyph-name="eng" unicode="&#x14b;" 
d="M490 -53q0 -59 -35.5 -98t-91.5 -39q-18 0 -36 2t-27 4l-10 2v67q25 -7 64 -7q28 0 43 19.5t15 46.5v395q0 48 -28.5 75t-73.5 27q-44 0 -80.5 -31t-36.5 -69v-341h-78v499h74l4 -49q5 7 15.5 17t44.5 26.5t72 16.5q70 0 117.5 -46.5t47.5 -125.5v-391z" />
    <glyph glyph-name="Omacron" unicode="&#x14c;" 
d="M183 522v-344q0 -48 32.5 -80.5t83.5 -32.5q50 0 82.5 32t32.5 80v345q0 48 -32.5 80.5t-82.5 32.5q-51 0 -83.5 -32.5t-32.5 -80.5zM102 178v344q0 82 57 135t140 53t140.5 -53.5t57.5 -134.5v-344q0 -81 -57.5 -134.5t-140.5 -53.5t-140 53t-57 135zM164 797v74h270
v-74h-270z" />
    <glyph glyph-name="omacron" unicode="&#x14d;" 
d="M485 344v-188q0 -69 -51.5 -117.5t-132.5 -48.5q-83 0 -134.5 48.5t-51.5 117.5v188q0 69 52 117.5t134 48.5q81 0 132.5 -48.5t51.5 -117.5zM408 161v178q0 43 -30.5 73t-77.5 30q-46 0 -77 -30t-31 -73v-178q0 -43 31 -73t78 -30q45 0 76 30.5t31 72.5zM166 597v74h270
v-74h-270z" />
    <glyph glyph-name="Obreve" unicode="&#x14e;" 
d="M183 522v-344q0 -48 32.5 -80.5t83.5 -32.5q50 0 82.5 32t32.5 80v345q0 48 -32.5 80.5t-82.5 32.5q-51 0 -83.5 -32.5t-32.5 -80.5zM102 178v344q0 82 57 135t140 53t140.5 -53.5t57.5 -134.5v-344q0 -81 -57.5 -134.5t-140.5 -53.5t-140 53t-57 135zM164 900h68
q0 -24 18 -42t48 -18q32 0 49.5 18t17.5 42h68q0 -55 -36.5 -91t-98.5 -36t-98 36t-36 91z" />
    <glyph glyph-name="obreve" unicode="&#x14f;" 
d="M485 344v-188q0 -69 -51.5 -117.5t-132.5 -48.5q-83 0 -134.5 48.5t-51.5 117.5v188q0 69 52 117.5t134 48.5q81 0 132.5 -48.5t51.5 -117.5zM408 161v178q0 43 -30.5 73t-77.5 30q-46 0 -77 -30t-31 -73v-178q0 -43 31 -73t78 -30q45 0 76 30.5t31 72.5zM168 700h68
q0 -24 18 -42t48 -18q32 0 49.5 18t17.5 42h68q0 -55 -36.5 -91t-98.5 -36t-98 36t-36 91z" />
    <glyph glyph-name="Ohungarumlaut" unicode="&#x150;" 
d="M183 522v-344q0 -48 32.5 -80.5t83.5 -32.5q50 0 82.5 32t32.5 80v345q0 48 -32.5 80.5t-82.5 32.5q-51 0 -83.5 -32.5t-32.5 -80.5zM102 178v344q0 82 57 135t140 53t140.5 -53.5t57.5 -134.5v-344q0 -81 -57.5 -134.5t-140.5 -53.5t-140 53t-57 135zM232 762h-71
l109 148h114zM410 762h-71l109 148h114z" />
    <glyph glyph-name="ohungarumlaut" unicode="&#x151;" 
d="M483 344v-188q0 -69 -51.5 -117.5t-132.5 -48.5q-83 0 -134.5 48.5t-51.5 117.5v188q0 69 52 117.5t134 48.5q81 0 132.5 -48.5t51.5 -117.5zM406 161v178q0 43 -30.5 73t-77.5 30q-46 0 -77 -30t-31 -73v-178q0 -43 31 -73t78 -30q45 0 76 30.5t31 72.5zM228 562h-71
l109 148h114zM406 562h-71l109 148h114z" />
    <glyph glyph-name="OE" unicode="&#x152;" 
d="M258 700h278v-75h-172v-219h148v-74h-148v-257h181v-75h-287q-78 0 -132 54t-54 132v329q0 77 54 131t132 54zM154 185q0 -46 30.5 -78t77.5 -32h20v550h-20q-47 0 -77.5 -32.5t-30.5 -78.5v-329z" />
    <glyph glyph-name="oe" unicode="&#x153;" 
d="M422 -10q-25 0 -46.5 6t-34 14t-21.5 16t-12 14l-4 6q-4 -6 -11.5 -15.5t-36.5 -25t-64 -15.5q-75 0 -111.5 45t-36.5 117v196q0 72 36.5 117t111.5 45q36 0 64.5 -13.5t39.5 -26.5l10 -14q4 6 12.5 15t38 24t63.5 15q69 0 105.5 -45.5t36.5 -116.5v-128h-218v-68
q0 -43 18 -68t68 -25q26 0 53.5 6.5t41.5 12.5l14 7v-74q-51 -21 -117 -21zM268 154v192q0 42 -18 68.5t-57 26.5t-56.5 -26.5t-17.5 -68.5v-192q0 -42 18 -68.5t57 -26.5t56.5 26.5t17.5 68.5zM344 348v-56h145v54q0 95 -70 95q-37 0 -56 -26.5t-19 -66.5z" />
    <glyph glyph-name="Racute" unicode="&#x154;" 
d="M402 0l-104 256h-98v-256h-80v700h190q66 0 112.5 -45t46.5 -110v-134q0 -48 -24.5 -85t-68.5 -56l115 -270h-89zM387 408v136q0 32 -23.5 55.5t-56.5 23.5h-107v-292h107q33 0 56.5 22.5t23.5 54.5zM296 762h-71l109 148h114z" />
    <glyph glyph-name="racute" unicode="&#x155;" 
d="M110 432v68h195l4 -64l5.5 8t16.5 18t27.5 22.5t39.5 17.5t52 8l75 -7v-68q-34 6 -75 6q-60 0 -100 -42.5t-40 -117.5v-212h165v-69h-375v69h132v363h-122zM305 562h-71l109 148h114z" />
    <glyph glyph-name="Rcommaaccent" unicode="&#x156;" 
d="M402 0l-104 256h-98v-256h-80v700h190q66 0 112.5 -45t46.5 -110v-134q0 -48 -24.5 -85t-68.5 -56l115 -270h-89zM387 408v136q0 32 -23.5 55.5t-56.5 23.5h-107v-292h107q33 0 56.5 22.5t23.5 54.5zM249 -137v92h88v-83q0 -68 -29.5 -94.5t-65.5 -26.5v39q44 2 44 73
h-37z" />
    <glyph glyph-name="rcommaaccent" unicode="&#x157;" 
d="M110 432v68h195l4 -64l5.5 8t16.5 18t27.5 22.5t39.5 17.5t52 8l75 -7v-68q-34 6 -75 6q-60 0 -100 -42.5t-40 -117.5v-212h165v-69h-375v69h132v363h-122zM231 -137v92h88v-83q0 -68 -29.5 -94.5t-65.5 -26.5v39q44 2 44 73h-37z" />
    <glyph glyph-name="Rcaron" unicode="&#x158;" 
d="M402 0l-104 256h-98v-256h-80v700h190q66 0 112.5 -45t46.5 -110v-134q0 -48 -24.5 -85t-68.5 -56l115 -270h-89zM387 408v136q0 32 -23.5 55.5t-56.5 23.5h-107v-292h107q33 0 56.5 22.5t23.5 54.5zM341 910h72l-106 -147h-76l-108 147h73l74 -80z" />
    <glyph glyph-name="rcaron" unicode="&#x159;" 
d="M110 432v68h195l4 -64l5.5 8t16.5 18t27.5 22.5t39.5 17.5t52 8l75 -7v-68q-34 6 -75 6q-60 0 -100 -42.5t-40 -117.5v-212h165v-69h-375v69h132v363h-122zM365 710h72l-106 -147h-76l-108 147h73l74 -80z" />
    <glyph glyph-name="Sacute" unicode="&#x15a;" 
d="M287 65q55 0 89 32.5t34 81.5q0 44 -31.5 78t-76 57.5l-89 49t-76 67t-31.5 97.5q0 79 56 130.5t145 51.5q101 0 158 -34v-77q-84 36 -159 36q-54 0 -86.5 -29.5t-32.5 -72.5q0 -41 31.5 -71t76.5 -51.5t90.5 -47.5t77 -72.5t31.5 -111.5q0 -82 -57.5 -135.5
t-146.5 -53.5q-100 0 -182 45v82q101 -52 179 -52zM330 762h-71l109 148h114z" />
    <glyph glyph-name="sacute" unicode="&#x15b;" 
d="M285 59q41 0 72 21t31 59q0 31 -26.5 51.5t-64 33t-75 27.5t-64 45.5t-26.5 76.5q0 62 51 99.5t129 37.5q32 0 65 -4t50 -8l17 -4v-72q-67 19 -131 19q-46 0 -73.5 -18t-27.5 -44q0 -29 26.5 -48t64 -31t75.5 -27.5t64.5 -48t26.5 -81.5q0 -66 -50 -109.5t-138 -43.5
q-34 0 -70 6t-55 12l-19 6v73q69 -28 148 -28zM335 562h-71l109 148h114z" />
    <glyph glyph-name="Scircumflex" unicode="&#x15c;" 
d="M287 65q55 0 89 32.5t34 81.5q0 44 -31.5 78t-76 57.5l-89 49t-76 67t-31.5 97.5q0 79 56 130.5t145 51.5q101 0 158 -34v-77q-84 36 -159 36q-54 0 -86.5 -29.5t-32.5 -72.5q0 -41 31.5 -71t76.5 -51.5t90.5 -47.5t77 -72.5t31.5 -111.5q0 -82 -57.5 -135.5
t-146.5 -53.5q-100 0 -182 45v82q101 -52 179 -52zM233 763h-72l106 147h76l108 -147h-73l-74 80z" />
    <glyph glyph-name="scircumflex" unicode="&#x15d;" 
d="M285 59q41 0 72 21t31 59q0 31 -26.5 51.5t-64 33t-75 27.5t-64 45.5t-26.5 76.5q0 62 51 99.5t129 37.5q32 0 65 -4t50 -8l17 -4v-72q-67 19 -131 19q-46 0 -73.5 -18t-27.5 -44q0 -29 26.5 -48t64 -31t75.5 -27.5t64.5 -48t26.5 -81.5q0 -66 -50 -109.5t-138 -43.5
q-34 0 -70 6t-55 12l-19 6v73q69 -28 148 -28zM240 563h-72l106 147h76l108 -147h-73l-74 80z" />
    <glyph glyph-name="Scedilla" unicode="&#x15e;" 
d="M231 -184v43q26 -6 56 -6q14 0 24 9.5t10 23.5t-10 23.5t-25 9.5h-42l17 72q-39 4 -76.5 14.5t-54 18t-22.5 11.5v82q101 -52 179 -52q55 0 89 32.5t34 81.5q0 44 -31.5 78t-76 57.5l-89 49t-76 67t-31.5 97.5q0 79 56 130.5t145 51.5q101 0 158 -34v-77q-84 36 -159 36
q-54 0 -86.5 -29.5t-32.5 -72.5q0 -41 31.5 -71t76.5 -51.5t90.5 -47.5t77 -72.5t31.5 -111.5q0 -75 -50.5 -127.5t-130.5 -59.5l-8 -37q31 0 52 -20.5t21 -52.5t-24.5 -52.5t-60.5 -20.5q-34 0 -62 7z" />
    <glyph glyph-name="scedilla" unicode="&#x15f;" 
d="M285 59q41 0 72 21t31 59q0 31 -26.5 51.5t-64 33t-75 27.5t-64 45.5t-26.5 76.5q0 62 51 99.5t129 37.5q32 0 65 -4t50 -8l17 -4v-72q-67 19 -131 19q-46 0 -73.5 -18t-27.5 -44q0 -29 26.5 -48t64 -31t75.5 -27.5t64.5 -48t26.5 -81.5q0 -58 -39.5 -99.5t-110.5 -50.5
l-9 -34q31 0 52 -21t21 -53q0 -33 -25 -54t-62 -21q-12 0 -28 2t-26 4l-9 2v47q26 -7 57 -7q13 0 22.5 9t9.5 22t-9.5 21.5t-23.5 8.5h-44l17 72q-31 1 -62 7t-47 11l-16 5v73q69 -28 148 -28z" />
    <glyph glyph-name="Scaron" unicode="&#x160;" 
d="M287 65q55 0 89 32.5t34 81.5q0 44 -31.5 78t-76 57.5l-89 49t-76 67t-31.5 97.5q0 79 56 130.5t145 51.5q101 0 158 -34v-77q-84 36 -159 36q-54 0 -86.5 -29.5t-32.5 -72.5q0 -41 31.5 -71t76.5 -51.5t90.5 -47.5t77 -72.5t31.5 -111.5q0 -82 -57.5 -135.5
t-146.5 -53.5q-100 0 -182 45v82q101 -52 179 -52zM376 910h72l-106 -147h-76l-108 147h73l74 -80z" />
    <glyph glyph-name="scaron" unicode="&#x161;" 
d="M285 59q41 0 72 21t31 59q0 31 -26.5 51.5t-64 33t-75 27.5t-64 45.5t-26.5 76.5q0 62 51 99.5t129 37.5q32 0 65 -4t50 -8l17 -4v-72q-67 19 -131 19q-46 0 -73.5 -18t-27.5 -44q0 -29 26.5 -48t64 -31t75.5 -27.5t64.5 -48t26.5 -81.5q0 -66 -50 -109.5t-138 -43.5
q-34 0 -70 6t-55 12l-19 6v73q69 -28 148 -28zM386 710h72l-106 -147h-76l-108 147h73l74 -80z" />
    <glyph glyph-name="Tcommaaccent" unicode="&#x162;" 
d="M104 624v76h392v-76h-155v-624h-84v624h-153zM254 -137v92h88v-83q0 -68 -29.5 -94.5t-65.5 -26.5v39q44 2 44 73h-37z" />
    <glyph glyph-name="tcommaaccent" unicode="&#x163;" 
d="M100 433v67h93v109h78v-109h201v-67h-201v-283q0 -91 88 -91q24 0 51 3t42 6l14 3v-70q-50 -11 -120 -11q-153 0 -153 160v283h-93zM287 -137v92h88v-83q0 -68 -29.5 -94.5t-65.5 -26.5v39q44 2 44 73h-37z" />
    <glyph glyph-name="Tcaron" unicode="&#x164;" 
d="M104 624v76h392v-76h-155v-624h-84v624h-153zM372 910h72l-106 -147h-76l-108 147h73l74 -80z" />
    <glyph glyph-name="tcaron" unicode="&#x165;" 
d="M100 433v67h93v109h78v-109h201v-67h-201v-283q0 -91 88 -91q24 0 51 3t42 6l14 3v-70q-50 -11 -120 -11q-153 0 -153 160v283h-93zM425 638v92h88v-83q0 -68 -29.5 -94.5t-65.5 -26.5v39q44 2 44 73h-37z" />
    <glyph glyph-name="Tbar" unicode="&#x166;" 
d="M145 336v70h112v218h-153v76h392v-76h-155v-218h113v-70h-113v-336h-84v336h-112z" />
    <glyph glyph-name="tbar" unicode="&#x167;" 
d="M122 251v66h71v116h-93v67h93v109h78v-109h201v-67h-201v-116h140v-66h-140v-101q0 -91 88 -91q24 0 51 3t42 6l14 3v-70q-50 -11 -120 -11q-153 0 -153 160v101h-71z" />
    <glyph glyph-name="Utilde" unicode="&#x168;" 
d="M414 700h83v-522q0 -81 -57.5 -134.5t-140.5 -53.5t-140 53t-57 135v522h81v-522q0 -48 32.5 -80.5t83.5 -32.5q50 0 82.5 32t32.5 80v523zM200 776h-57q0 42 28 75.5t66 33.5q25 0 67 -21t55 -21t25.5 13t12.5 25h57q0 -42 -27.5 -75.5t-64.5 -33.5q-26 0 -67.5 21
t-54.5 21q-14 0 -27 -12.5t-13 -25.5z" />
    <glyph glyph-name="utilde" unicode="&#x169;" 
d="M112 499h78v-339q0 -48 28.5 -75t73.5 -27q44 0 80.5 31t36.5 69v341h78v-499h-74l-4 49q-5 -7 -15.5 -17t-44.5 -26.5t-72 -16.5q-70 0 -117.5 46.5t-47.5 125.5v338zM203 576h-57q0 42 28 75.5t66 33.5q26 0 67 -21t55 -21q13 0 25.5 13t12.5 25h57q0 -42 -27.5 -75.5
t-64.5 -33.5q-26 0 -67.5 21t-54.5 21q-14 0 -27 -12.5t-13 -25.5z" />
    <glyph glyph-name="Umacron" unicode="&#x16a;" 
d="M414 700h83v-522q0 -81 -57.5 -134.5t-140.5 -53.5t-140 53t-57 135v522h81v-522q0 -48 32.5 -80.5t83.5 -32.5q50 0 82.5 32t32.5 80v523zM168 797v74h270v-74h-270z" />
    <glyph glyph-name="umacron" unicode="&#x16b;" 
d="M112 499h78v-339q0 -48 28.5 -75t73.5 -27q44 0 80.5 31t36.5 69v341h78v-499h-74l-4 49q-5 -7 -15.5 -17t-44.5 -26.5t-72 -16.5q-70 0 -117.5 46.5t-47.5 125.5v338zM166 597v74h270v-74h-270z" />
    <glyph glyph-name="Ubreve" unicode="&#x16c;" 
d="M414 700h83v-522q0 -81 -57.5 -134.5t-140.5 -53.5t-140 53t-57 135v522h81v-522q0 -48 32.5 -80.5t83.5 -32.5q50 0 82.5 32t32.5 80v523zM164 900h68q0 -24 18 -42t48 -18q32 0 49.5 18t17.5 42h68q0 -55 -36.5 -91t-98.5 -36t-98 36t-36 91z" />
    <glyph glyph-name="ubreve" unicode="&#x16d;" 
d="M112 499h78v-339q0 -48 28.5 -75t73.5 -27q44 0 80.5 31t36.5 69v341h78v-499h-74l-4 49q-5 -7 -15.5 -17t-44.5 -26.5t-72 -16.5q-70 0 -117.5 46.5t-47.5 125.5v338zM167 700h68q0 -24 18 -42t48 -18q32 0 49.5 18t17.5 42h68q0 -55 -36.5 -91t-98.5 -36t-98 36t-36 91
z" />
    <glyph glyph-name="Uring" unicode="&#x16e;" 
d="M414 700h83v-522q0 -81 -57.5 -134.5t-140.5 -53.5t-140 53t-57 135v522h81v-522q0 -48 32.5 -80.5t83.5 -32.5q50 0 82.5 32t32.5 80v523zM219 831q0 33 23 56t56 23t56 -23t23 -56t-23 -56t-56 -23t-56 23t-23 56zM267 831q0 -13 9 -22t22 -9t22 9t9 22t-9 22t-22 9
t-22 -9t-9 -22z" />
    <glyph glyph-name="uring" unicode="&#x16f;" 
d="M112 499h78v-339q0 -48 28.5 -75t73.5 -27q44 0 80.5 31t36.5 69v341h78v-499h-74l-4 49q-5 -7 -15.5 -17t-44.5 -26.5t-72 -16.5q-70 0 -117.5 46.5t-47.5 125.5v338zM223 631q0 33 23 56t56 23t56 -23t23 -56t-23 -56t-56 -23t-56 23t-23 56zM271 631q0 -13 9 -22
t22 -9t22 9t9 22t-9 22t-22 9t-22 -9t-9 -22z" />
    <glyph glyph-name="Uhungarumlaut" unicode="&#x170;" 
d="M414 700h83v-522q0 -81 -57.5 -134.5t-140.5 -53.5t-140 53t-57 135v522h81v-522q0 -48 32.5 -80.5t83.5 -32.5q50 0 82.5 32t32.5 80v523zM235 762h-71l109 148h114zM413 762h-71l109 148h114z" />
    <glyph glyph-name="uhungarumlaut" unicode="&#x171;" 
d="M112 499h78v-339q0 -48 28.5 -75t73.5 -27q44 0 80.5 31t36.5 69v341h78v-499h-74l-4 49q-5 -7 -15.5 -17t-44.5 -26.5t-72 -16.5q-70 0 -117.5 46.5t-47.5 125.5v338zM245 562h-71l109 148h114zM423 562h-71l109 148h114z" />
    <glyph glyph-name="Uogonek" unicode="&#x172;" 
d="M414 700h83v-522q0 -64 -37.5 -112t-97.5 -66l-22 -18t-34.5 -38.5t-21.5 -46.5q0 -13 8.5 -23t25.5 -10q14 0 54 10v-51q-36 -14 -65 -14q-40 0 -64.5 23t-24.5 59q0 48 63 99q-78 8 -128.5 60t-50.5 128v522h81v-522q0 -48 32.5 -80.5t83.5 -32.5q50 0 82.5 32t32.5 80
v523z" />
    <glyph glyph-name="uogonek" unicode="&#x173;" 
d="M112 499h78v-339q0 -48 28.5 -75t73.5 -27q44 0 80.5 31t36.5 69v341h78v-499l-22 -17.5t-34.5 -37t-21.5 -45.5q0 -13 8 -22t24 -9q10 0 24 2.5t23 5.5l9 3v-55q-35 -15 -67 -15q-40 0 -65 23.5t-25 60.5q0 26 18 52.5t36 39.5l19 14l-4 49q-5 -7 -15.5 -17t-44.5 -26.5
t-72 -16.5q-70 0 -117.5 46.5t-47.5 125.5v338z" />
    <glyph glyph-name="Wcircumflex" unicode="&#x174;" 
d="M456 171l24 529h83l-43 -700h-137l-79 429h-7l-78 -429h-138l-43 700h84l24 -529l4 -111h9l83 439h116l84 -439h9zM226 763h-72l106 147h76l108 -147h-73l-74 80z" />
    <glyph glyph-name="wcircumflex" unicode="&#x175;" 
d="M430 144l31 356h78l-51 -500h-124l-47 240l-13 82h-7l-13 -82l-46 -240h-125l-52 500h78l32 -356l5 -90h9l12 85l49 249h108l50 -249l12 -85h9zM227 563h-72l106 147h76l108 -147h-73l-74 80z" />
    <glyph glyph-name="Ycircumflex" unicode="&#x176;" 
d="M155 700l145 -324l146 324h88l-192 -410v-290h-84v290l-192 410h89zM227 763h-72l106 147h76l108 -147h-73l-74 80z" />
    <glyph glyph-name="ycircumflex" unicode="&#x177;" 
d="M169 500l136 -379l126 379h84l-247 -680h-79l73 201l-177 479h84zM227 563h-72l106 147h76l108 -147h-73l-74 80z" />
    <glyph glyph-name="Ydieresis" unicode="&#x178;" 
d="M155 700l145 -324l146 324h88l-192 -410v-290h-84v290l-192 410h89zM183 807v93h78v-93h-78zM339 807v93h78v-93h-78z" />
    <glyph glyph-name="Zacute" unicode="&#x179;" 
d="M492 619l-292 -544h291v-75h-384v81l290 544h-275v75h370v-81zM318 762h-71l109 148h114z" />
    <glyph glyph-name="zacute" unicode="&#x17a;" 
d="M469 426l-252 -357h256v-69h-347v72l253 359h-239v69h329v-74zM324 562h-71l109 148h114z" />
    <glyph glyph-name="Zdotaccent" unicode="&#x17b;" 
d="M492 619l-292 -544h291v-75h-384v81l290 544h-275v75h370v-81zM259 807v93h78v-93h-78z" />
    <glyph glyph-name="zdotaccent" unicode="&#x17c;" 
d="M469 426l-252 -357h256v-69h-347v72l253 359h-239v69h329v-74zM260 607v93h78v-93h-78z" />
    <glyph glyph-name="Zcaron" unicode="&#x17d;" 
d="M492 619l-292 -544h291v-75h-384v81l290 544h-275v75h370v-81zM371 910h72l-106 -147h-76l-108 147h73l74 -80z" />
    <glyph glyph-name="zcaron" unicode="&#x17e;" 
d="M469 426l-252 -357h256v-69h-347v72l253 359h-239v69h329v-74zM383 710h72l-106 -147h-76l-108 147h73l74 -80z" />
    <glyph glyph-name="florin" unicode="&#x192;" 
d="M248 -55v392h-131v71h131v164q0 61 39 99.5t101 38.5q20 0 41.5 -2t33.5 -4l12 -1v-70q-48 8 -87 8q-29 0 -45.5 -18t-16.5 -48v-167h156v-71h-156v-389q0 -61 -39 -99.5t-101 -38.5q-20 0 -37 2t-25 4l-7 1v70q30 -8 69 -8q29 0 45.5 18t16.5 48z" />
    <glyph glyph-name="AEacute" unicode="&#x1fc;" 
d="M224 700h325v-75h-173v-219h149v-74h-149v-257h181v-75h-263v224h-123l-60 -224h-82zM278 625l-87 -331h103v331h-16zM380 762h-71l109 148h114z" />
    <glyph glyph-name="aeacute" unicode="&#x1fd;" 
d="M415 -10q-25 0 -46.5 6t-33 14.5t-19.5 17t-11 14.5l-3 6q-4 -6 -12 -16t-38.5 -26t-68.5 -16q-61 0 -104 40t-43 116q0 68 42 108t107 43l79 4v49q0 91 -77 91q-25 0 -52.5 -5t-42.5 -10l-15 -5v70q54 19 115 19q43 0 67 -13.5t43 -40.5q25 28 48.5 41t62.5 13
q69 0 106.5 -47t37.5 -118v-113h-218v-94q0 -37 18 -58t66 -21q26 0 54 6.5t43 12.5l14 7v-74q-53 -21 -119 -21zM191 59q33 0 53 22.5t20 61.5v90l-77 -4q-37 -2 -57 -24t-20 -58q0 -42 21.5 -65t59.5 -23zM339 348v-47h145v45q0 95 -72 95q-37 0 -55 -26.5t-18 -66.5z
M332 562h-71l109 148h114z" />
    <glyph glyph-name="Oslashacute" unicode="&#x1fe;" 
d="M324 762h-71l109 148h114zM112 15l25 53q-35 51 -35 110v344q0 82 57 135t140 53q66 0 119 -36l18 36l52 -25l-26 -54q35 -53 35 -109v-344q0 -81 -57.5 -134.5t-140.5 -53.5q-68 0 -119 36l-18 -36zM300 65q50 0 82.5 32t32.5 80v343l-1 7l-199 -427q33 -35 85 -35z
M184 522v-342l1 -7l199 427q-33 35 -84 35t-83.5 -32.5t-32.5 -80.5z" />
    <glyph glyph-name="oslashacute" unicode="&#x1ff;" 
d="M325 562h-71l109 148h114zM138 10l20 36q-43 46 -43 110v188q0 69 52 117.5t134 48.5q53 0 100 -25l14 26l44 -24l-18 -33q44 -47 44 -110v-188q0 -69 -51.5 -117.5t-132.5 -48.5q-55 0 -103 25l-16 -29zM408 161v178q0 22 -9 40l-166 -300q29 -21 68 -21q45 0 76 30.5
t31 72.5zM192 161q0 -23 8 -40l166 301q-30 20 -66 20q-46 0 -77 -30t-31 -73v-178z" />
    <glyph glyph-name="Scommaaccent" unicode="&#x218;" 
d="M287 65q55 0 89 32.5t34 81.5q0 44 -31.5 78t-76 57.5l-89 49t-76 67t-31.5 97.5q0 79 56 130.5t145 51.5q101 0 158 -34v-77q-84 36 -159 36q-54 0 -86.5 -29.5t-32.5 -72.5q0 -41 31.5 -71t76.5 -51.5t90.5 -47.5t77 -72.5t31.5 -111.5q0 -82 -57.5 -135.5
t-146.5 -53.5q-100 0 -182 45v82q101 -52 179 -52zM244 -137v92h88v-83q0 -68 -29.5 -94.5t-65.5 -26.5v39q44 2 44 73h-37z" />
    <glyph glyph-name="scommaaccent" unicode="&#x219;" 
d="M285 59q41 0 72 21t31 59q0 31 -26.5 51.5t-64 33t-75 27.5t-64 45.5t-26.5 76.5q0 62 51 99.5t129 37.5q32 0 65 -4t50 -8l17 -4v-72q-67 19 -131 19q-46 0 -73.5 -18t-27.5 -44q0 -29 26.5 -48t64 -31t75.5 -27.5t64.5 -48t26.5 -81.5q0 -66 -50 -109.5t-138 -43.5
q-34 0 -70 6t-55 12l-19 6v73q69 -28 148 -28zM257 -137v92h88v-83q0 -68 -29.5 -94.5t-65.5 -26.5v39q44 2 44 73h-37z" />
    <glyph glyph-name="circumflex" unicode="&#x2c6;" 
d="M227 563h-72l106 147h76l108 -147h-73l-74 80z" />
    <glyph glyph-name="caron" unicode="&#x2c7;" 
d="M373 710h72l-106 -147h-76l-108 147h73l74 -80z" />
    <glyph glyph-name="breve" unicode="&#x2d8;" 
d="M165 700h68q0 -24 18 -42t48 -18q32 0 49.5 18t17.5 42h68q0 -55 -36.5 -91t-98.5 -36t-98 36t-36 91z" />
    <glyph glyph-name="dotaccent" unicode="&#x2d9;" 
d="M261 607v93h78v-93h-78z" />
    <glyph glyph-name="ring" unicode="&#x2da;" 
d="M221 631q0 33 23 56t56 23t56 -23t23 -56t-23 -56t-56 -23t-56 23t-23 56zM269 631q0 -13 9 -22t22 -9t22 9t9 22t-9 22t-22 9t-22 -9t-9 -22z" />
    <glyph glyph-name="ogonek" unicode="&#x2db;" 
d="M378 -120v-55q-35 -15 -67 -15q-40 0 -65 23.5t-25 60.5q0 26 18 52.5t36 39.5l18 14h75l-22 -17.5t-34.5 -37t-21.5 -45.5q0 -13 8 -22t24 -9q10 0 24 2.5t23 5.5z" />
    <glyph glyph-name="tilde" unicode="&#x2dc;" 
d="M201 576h-57q0 42 28 75.5t66 33.5q26 0 67 -21t55 -21q13 0 25.5 13t12.5 25h57q0 -42 -27.5 -75.5t-64.5 -33.5q-26 0 -67.5 21t-54.5 21q-14 0 -27 -12.5t-13 -25.5z" />
    <glyph glyph-name="hungarumlaut" unicode="&#x2dd;" 
d="M170 562h-71l109 148h114zM348 562h-71l109 148h114z" />
    <glyph glyph-name="Wgrave" unicode="&#x1e80;" 
d="M456 171l24 529h83l-43 -700h-137l-79 429h-7l-78 -429h-138l-43 700h84l24 -529l4 -111h9l83 439h116l84 -439h9zM334 762h-71l-152 148h114z" />
    <glyph glyph-name="wgrave" unicode="&#x1e81;" 
d="M430 144l31 356h78l-51 -500h-124l-47 240l-13 82h-7l-13 -82l-46 -240h-125l-52 500h78l32 -356l5 -90h9l12 85l49 249h108l50 -249l12 -85h9zM333 562h-71l-152 148h114z" />
    <glyph glyph-name="Wacute" unicode="&#x1e82;" 
d="M456 171l24 529h83l-43 -700h-137l-79 429h-7l-78 -429h-138l-43 700h84l24 -529l4 -111h9l83 439h116l84 -439h9zM328 762h-71l109 148h114z" />
    <glyph glyph-name="wacute" unicode="&#x1e83;" 
d="M430 144l31 356h78l-51 -500h-124l-47 240l-13 82h-7l-13 -82l-46 -240h-125l-52 500h78l32 -356l5 -90h9l12 85l49 249h108l50 -249l12 -85h9zM336 562h-71l109 148h114z" />
    <glyph glyph-name="Wdieresis" unicode="&#x1e84;" 
d="M456 171l24 529h83l-43 -700h-137l-79 429h-7l-78 -429h-138l-43 700h84l24 -529l4 -111h9l83 439h116l84 -439h9zM182 807v93h78v-93h-78zM338 807v93h78v-93h-78z" />
    <glyph glyph-name="wdieresis" unicode="&#x1e85;" 
d="M430 144l31 356h78l-51 -500h-124l-47 240l-13 82h-7l-13 -82l-46 -240h-125l-52 500h78l32 -356l5 -90h9l12 85l49 249h108l50 -249l12 -85h9zM183 607v93h78v-93h-78zM339 607v93h78v-93h-78z" />
    <glyph glyph-name="Ygrave" unicode="&#x1ef2;" 
d="M155 700l145 -324l146 324h88l-192 -410v-290h-84v290l-192 410h89zM350 762h-71l-152 148h114z" />
    <glyph glyph-name="ygrave" unicode="&#x1ef3;" 
d="M169 500l136 -379l126 379h84l-247 -680h-79l73 201l-177 479h84zM345 562h-71l-152 148h114z" />
    <glyph glyph-name="endash" unicode="&#x2013;" 
d="M490 332v-78h-380v78h380z" />
    <glyph glyph-name="emdash" unicode="&#x2014;" 
d="M655 332v-78h-709v78h709z" />
    <glyph glyph-name="quoteleft" unicode="&#x2018;" 
d="M340 598v-92h-88v83q0 68 29.5 94.5t65.5 26.5v-39q-44 -2 -44 -73h37z" />
    <glyph glyph-name="quoteright" unicode="&#x2019;" 
d="M259 608v92h88v-83q0 -68 -29.5 -94.5t-65.5 -26.5v39q44 2 44 73h-37z" />
    <glyph glyph-name="quotesinglbase" unicode="&#x201a;" 
d="M259 0v92h88v-83q0 -68 -29.5 -94.5t-65.5 -26.5v39q44 2 44 73h-37z" />
    <glyph glyph-name="quotedblleft" unicode="&#x201c;" 
d="M417 598v-92h-88v83q0 68 29.5 94.5t65.5 26.5v-39q-44 -2 -44 -73h37zM264 598v-92h-88v83q0 68 29.5 94.5t65.5 26.5v-39q-44 -2 -44 -73h37z" />
    <glyph glyph-name="quotedblright" unicode="&#x201d;" 
d="M183 608v92h88v-83q0 -68 -29.5 -94.5t-65.5 -26.5v39q44 2 44 73h-37zM336 608v92h88v-83q0 -68 -29.5 -94.5t-65.5 -26.5v39q44 2 44 73h-37z" />
    <glyph glyph-name="quotedblbase" unicode="&#x201e;" 
d="M183 0v92h88v-83q0 -68 -29.5 -94.5t-65.5 -26.5v39q44 2 44 73h-37zM336 0v92h88v-83q0 -68 -29.5 -94.5t-65.5 -26.5v39q44 2 44 73h-37z" />
    <glyph glyph-name="dagger" unicode="&#x2020;" 
d="M467 500v-77l-134 7l7 -505h-83l7 505l-131 -7v77l131 -7l-7 207h83l-7 -207z" />
    <glyph glyph-name="daggerdbl" unicode="&#x2021;" 
d="M264 195v235l-131 -7v77l131 -7l-7 207h83l-7 -207l134 7v-77l-134 7v-235l134 7v-77l-134 7l7 -207h-83l7 207l-131 -7v77z" />
    <glyph glyph-name="bullet" unicode="&#x2022;" 
d="M149 359q0 62 44 106.5t107 44.5q62 0 106.5 -44.5t44.5 -106.5q0 -63 -44.5 -107t-106.5 -44q-63 0 -107 44t-44 107z" />
    <glyph glyph-name="ellipsis" unicode="&#x2026;" 
d="M49 0v98h98v-98h-98zM251 0v98h98v-98h-98zM453 0v98h98v-98h-98z" />
    <glyph glyph-name="perthousand" unicode="&#x2030;" 
d="M277 181v-81q0 -47 -33 -78.5t-86 -31.5q-52 0 -85 31.5t-33 78.5v81q0 46 33 77.5t85 31.5q53 0 86 -31.5t33 -77.5zM216 101v78q0 23 -16.5 40t-42.5 17q-23 0 -40.5 -17t-17.5 -40v-78q0 -21 17.5 -39t41.5 -18q25 0 41.5 17.5t16.5 39.5zM417 600v-81
q0 -47 -32.5 -78.5t-84.5 -31.5q-54 0 -87 31.5t-33 78.5v81q0 47 33 78.5t87 31.5q52 0 84.5 -31.5t32.5 -78.5zM358 520v79q0 22 -17.5 39.5t-41.5 17.5t-41.5 -17.5t-17.5 -39.5v-79q0 -22 17.5 -39t42.5 -17q24 0 41 17t17 39zM560 181v-81q0 -47 -33 -78.5t-86 -31.5
q-52 0 -85 31.5t-33 78.5v81q0 46 33 77.5t85 31.5q53 0 86 -31.5t33 -77.5zM499 101v78q0 23 -16.5 40t-42.5 17q-23 0 -40.5 -17t-17.5 -40v-78q0 -21 18 -39t41 -18q25 0 41.5 17.5t16.5 39.5zM550 380v-61h-500v61h500z" />
    <glyph glyph-name="guilsinglleft" unicode="&#x2039;" 
d="M408 133h-94l-122 158l122 159h93l-123 -159z" />
    <glyph glyph-name="guilsinglright" unicode="&#x203a;" 
d="M286 133h-93l123 158l-124 159h94l122 -159z" />
    <glyph glyph-name="fraction" unicode="&#x2044;" 
d="M82 0l361 700h74l-361 -700h-74z" />
    <glyph glyph-name="zerosuperior" unicode="&#x2070;" 
d="M417 595v-204q0 -49 -34 -82.5t-84 -33.5t-83.5 34t-33.5 83v203q0 48 33.5 81.5t83.5 33.5q49 0 83.5 -33.5t34.5 -81.5zM350 390v205q0 21 -15.5 36t-35.5 15t-35 -15t-15 -36v-205q0 -21 15.5 -36t35.5 -15t35 15t15 36z" />
    <glyph glyph-name="foursuperior" unicode="&#x2074;" 
d="M174 367v57l126 276h72l-121 -268h73v59h68v-59h33v-65h-33v-86h-68v86h-150z" />
    <glyph glyph-name="fivesuperior" unicode="&#x2075;" 
d="M416 453v-60q0 -53 -34 -85.5t-96 -32.5q-24 0 -50 6.5t-40 12.5l-13 7v68q59 -30 103 -30q30 0 46.5 15t16.5 39v60q0 22 -15 36.5t-40 14.5q-14 0 -29 -4t-23 -8l-8 -4l-46 20l13 192h202v-65h-139l-6 -74q23 7 38 7q52 0 86 -33t34 -82z" />
    <glyph glyph-name="sixsuperior" unicode="&#x2076;" 
d="M300 509q-21 0 -35.5 -15t-14.5 -36v-67q0 -22 14.5 -36.5t35.5 -14.5t35.5 15t14.5 36v67q0 21 -14.5 36t-35.5 15zM302 710q24 0 46 -3t32 -5l11 -3v-67q-42 14 -80 14q-27 0 -44 -15.5t-17 -37.5v-38q26 18 54 18q49 0 81 -33t32 -82v-66q0 -48 -33 -82t-84 -34
q-49 0 -83 33.5t-34 81.5v203q0 49 33 82.5t86 33.5z" />
    <glyph glyph-name="sevensuperior" unicode="&#x2077;" 
d="M320 281h-69q0 61 19.5 132.5t43.5 135t28 86.5h-153v65h221v-52q0 -25 -22.5 -87.5t-45 -140t-22.5 -139.5z" />
    <glyph glyph-name="eightsuperior" unicode="&#x2078;" 
d="M418 599v-21q0 -48 -32 -78q36 -34 36 -85v-25q0 -48 -35.5 -81.5t-86.5 -33.5t-86.5 34t-35.5 82v24q0 52 36 85q-31 31 -31 78v21q0 46 34 78t83 32q50 0 84 -32t34 -78zM355 390v25q0 21 -16.5 36t-38.5 15t-38.5 -15t-16.5 -36v-25q0 -21 16.5 -36t38.5 -15t38.5 15
t16.5 36zM350 577v20q0 20 -15 34t-35 14t-35 -14t-15 -34v-19q0 -19 14 -32.5t36 -13.5q21 0 35.5 13t14.5 32z" />
    <glyph glyph-name="ninesuperior" unicode="&#x2079;" 
d="M300 477q21 0 35.5 15t14.5 36v67q0 22 -14.5 36.5t-35.5 14.5t-35.5 -15t-14.5 -36v-67q0 -21 14.5 -36t35.5 -15zM298 276q-24 0 -46 3t-32 5l-11 3v67q42 -14 80 -14q27 0 44 15.5t17 37.5v38q-26 -18 -54 -18q-49 0 -81 33t-32 82v66q0 48 33 82t84 34q49 0 83 -33.5
t34 -81.5v-203q0 -49 -33 -82.5t-86 -33.5z" />
    <glyph glyph-name="parenleftsuperior" unicode="&#x207d;" 
d="M367 287v-66q-55 0 -94.5 34.5t-39.5 82.5v306q0 49 39 83t95 34v-67q-29 0 -48 -14.5t-19 -35.5v-306q0 -22 19 -36.5t48 -14.5z" />
    <glyph glyph-name="parenrightsuperior" unicode="&#x207e;" 
d="M233 221v66q29 0 48 14.5t19 36.5v306q0 21 -19 35.5t-48 14.5v67q56 0 95 -34t39 -83v-306q0 -48 -39.5 -82.5t-94.5 -34.5z" />
    <glyph glyph-name="zeroinferior" unicode="&#x2080;" 
d="M417 129v-204q0 -49 -34 -82.5t-84 -33.5t-83.5 34t-33.5 83v203q0 48 33.5 81.5t83.5 33.5q49 0 83.5 -33.5t34.5 -81.5zM350 -76v205q0 21 -15.5 36t-35.5 15t-35 -15t-15 -36v-205q0 -21 15.5 -36t35.5 -15t35 15t15 36z" />
    <glyph glyph-name="oneinferior" unicode="&#x2081;" 
d="M231 135v68l75 36h63v-419h-67v348z" />
    <glyph glyph-name="twoinferior" unicode="&#x2082;" 
d="M186 147v69q50 33 110 33q52 0 86 -34t34 -89q0 -58 -67 -137l-89 -104h160v-65h-240v67l129 154q40 47 40 85q0 27 -16 43t-39 16q-22 0 -49 -9.5t-43 -19.5z" />
    <glyph glyph-name="threeinferior" unicode="&#x2083;" 
d="M265 7v64h27q22 0 38 11.5t16 30.5v19q0 21 -14.5 34.5t-38.5 13.5q-19 0 -44.5 -6t-41.5 -12l-16 -7v67q54 23 103 23q55 0 87.5 -30.5t32.5 -77.5v-24q0 -20 -9 -37.5t-19 -25.5l-9 -7q5 -3 12 -9t18.5 -27t11.5 -46v-32q0 -53 -35.5 -86t-96.5 -33q-27 0 -53.5 7
t-39.5 15l-13 7v68q60 -32 106 -32q30 0 47 15t17 39v31q0 21 -17.5 34t-41.5 13h-27z" />
    <glyph glyph-name="fourinferior" unicode="&#x2084;" 
d="M174 -94v57l126 276h72l-121 -268h73v59h68v-59h33v-65h-33v-86h-68v86h-150z" />
    <glyph glyph-name="fiveinferior" unicode="&#x2085;" 
d="M416 -12v-60q0 -53 -34 -85.5t-96 -32.5q-24 0 -50 6.5t-40 13.5l-13 6v68q59 -30 103 -30q30 0 46.5 15t16.5 39v60q0 22 -15 36.5t-40 14.5q-14 0 -29 -4t-23 -8l-8 -4l-46 20l13 192h202v-65h-139l-6 -74q23 7 38 7q52 0 86 -33t34 -82z" />
    <glyph glyph-name="sixinferior" unicode="&#x2086;" 
d="M300 43q-21 0 -35.5 -15t-14.5 -36v-67q0 -22 14.5 -36.5t35.5 -14.5t35.5 15t14.5 36v67q0 21 -14.5 36t-35.5 15zM302 244q24 0 46 -3t32 -5l11 -3v-67q-42 14 -80 14q-27 0 -44 -15.5t-17 -37.5v-38q26 18 54 18q49 0 81 -33t32 -82v-66q0 -48 -33 -82t-84 -34
q-49 0 -83 33.5t-34 81.5v203q0 49 33 82.5t86 33.5z" />
    <glyph glyph-name="seveninferior" unicode="&#x2087;" 
d="M320 -180h-69q0 61 19.5 132.5t43.5 135t28 86.5h-153v65h221v-52q0 -25 -22.5 -87.5t-45 -140t-22.5 -139.5z" />
    <glyph glyph-name="eightinferior" unicode="&#x2088;" 
d="M418 134v-21q0 -48 -32 -78q36 -34 36 -85v-25q0 -48 -35.5 -81.5t-86.5 -33.5t-86.5 34t-35.5 82v24q0 52 36 85q-31 31 -31 78v21q0 46 34 78t83 32q50 0 84 -32t34 -78zM355 -75v25q0 21 -16.5 36t-38.5 15t-38.5 -15t-16.5 -36v-25q0 -21 16.5 -36t38.5 -15t38.5 15
t16.5 36zM350 112v20q0 20 -15 34t-35 14t-35 -14t-15 -34v-19q0 -19 14 -32.5t36 -13.5q21 0 35.5 13t14.5 32z" />
    <glyph glyph-name="nineinferior" unicode="&#x2089;" 
d="M300 11q21 0 35.5 15t14.5 36v67q0 22 -14.5 36.5t-35.5 14.5t-35.5 -15t-14.5 -36v-67q0 -21 14.5 -36t35.5 -15zM298 -190q-24 0 -46 3t-32 5l-11 3v67q42 -14 80 -14q27 0 44 15.5t17 37.5v38q-26 -18 -54 -18q-49 0 -81 33t-32 82v66q0 48 33 82t84 34q49 0 83 -33.5
t34 -81.5v-203q0 -49 -33 -82.5t-86 -33.5z" />
    <glyph glyph-name="parenleftinferior" unicode="&#x208d;" 
d="M367 -189v-66q-55 0 -94.5 34.5t-39.5 82.5v306q0 49 39 83t95 34v-67q-29 0 -48 -14.5t-19 -35.5v-306q0 -22 19 -36.5t48 -14.5z" />
    <glyph glyph-name="parenrightinferior" unicode="&#x208e;" 
d="M233 -255v66q29 0 48 14.5t19 36.5v306q0 21 -19 35.5t-48 14.5v67q56 0 95 -34t39 -83v-306q0 -48 -39.5 -82.5t-94.5 -34.5z" />
    <glyph glyph-name="Euro" unicode="&#x20ac;" 
d="M407 455v-76h-185v-63h154v-76h-154v-66q0 -44 31 -75t75 -31t75 30.5t31 74.5v12h84v-11q0 -77 -55 -130.5t-135 -53.5t-135 54t-55 131v65h-57v76h57v63h-57v76h57v71q0 77 55 130.5t135 53.5q81 0 135.5 -53t54.5 -132h-84q0 44 -31 74.5t-75 30.5t-75 -30.5
t-31 -74.5v-70h185z" />
    <glyph glyph-name="trademark" unicode="&#x2122;" 
d="M61 651v49h194v-49h-71v-284h-55v284h-68zM464 700h66v-333h-54v200l3 46l-45 -103h-45l-47 103l3 -47v-199h-53v333h66l53 -135z" />
    <glyph glyph-name="minus" unicode="&#x2212;" 
d="M521 331v-80h-443v80h443z" />
    <glyph glyph-name="uni2215" unicode="&#x2215;" 
d="M82 0l361 700h74l-361 -700h-74z" />
    <glyph glyph-name="approxequal" unicode="&#x2248;" 
d="M93 305v82q5 6 15 14t41 22t63 14q36 0 95 -28t87 -28q24 0 52 14t44 28l16 14v-82q-5 -6 -14.5 -14t-38.5 -22t-59 -14q-39 0 -100 28t-82 28q-29 0 -59 -14t-45 -28zM93 148v82q5 6 15 14t41 22t63 14q36 0 95 -28t87 -28q24 0 52 14t44 28l16 14v-82q-5 -6 -14.5 -14
t-38.5 -22t-59 -14q-39 0 -100 28t-82 28q-29 0 -59 -14t-45 -28z" />
    <glyph glyph-name="notequal" unicode="&#x2260;" 
d="M507 417v-78h-149l-48 -94h197v-78h-237l-41 -82h-69l41 82h-108v78h148l48 94h-196v78h235l43 83h69l-43 -83h110z" />
    <glyph glyph-name="lessequal" unicode="&#x2264;" 
d="M507 146v-78h-414v78h414zM93 301v83l414 130v-83l-314 -89l314 -88v-84z" />
    <glyph glyph-name="greaterequal" unicode="&#x2265;" 
d="M507 384v-83l-414 -131v84l314 88l-314 89v83zM93 68v78h414v-78h-414z" />
    <glyph glyph-name="cent.denominator" unicode="&#xf629;" 
d="M270 -10v20q-38 9 -63 42.5t-25 71.5v175q0 39 23.5 71.5t64.5 39.5v23h65v-25q34 -11 57 -41.5t23 -68.5h-66q0 23 -14.5 39t-36.5 16t-36.5 -17.5t-14.5 -37.5v-175q0 -20 14.5 -37t36.5 -17t37.5 16.5t15.5 39.5h66q0 -40 -23 -71.5t-59 -41.5v-22h-65z" />
    <glyph glyph-name="dollar.denominator" unicode="&#xf62a;" 
d="M267 -11v23q-39 7 -63 38.5t-24 73.5v11h67v-11q0 -22 14.5 -36.5t38.5 -14.5q23 0 37.5 13.5t14.5 32.5q0 24 -17 40.5t-41.5 26.5t-49 21.5t-41.5 34.5t-17 57q0 39 22.5 69.5t58.5 41.5v24h65v-24q39 -10 61 -42t22 -79h-67q0 25 -13 42t-34 17t-34 -13t-13 -33
q0 -18 17 -31t41.5 -22.5t49 -22t41.5 -38.5t17 -64q0 -42 -24 -73.5t-64 -38.5v-23h-65z" />
    <glyph glyph-name="hyphen.denominator" unicode="&#xf62b;" 
d="M379 247v-63h-159v63h159z" />
    <glyph glyph-name="parenleft.denominator" unicode="&#xf62c;" 
d="M367 2v-66q-55 0 -94.5 34.5t-39.5 82.5v306q0 49 39 83t95 34v-67q-29 0 -48 -14.5t-19 -35.5v-306q0 -22 19 -36.5t48 -14.5z" />
    <glyph glyph-name="parenright.denominator" unicode="&#xf62d;" 
d="M233 -64v66q29 0 48 14.5t19 36.5v306q0 21 -19 35.5t-48 14.5v67q56 0 95 -34t39 -83v-306q0 -48 -39.5 -82.5t-94.5 -34.5z" />
    <glyph glyph-name="cent.numerator" unicode="&#xf62e;" 
d="M270 266v20q-38 9 -63 42.5t-25 71.5v175q0 39 23.5 71.5t64.5 39.5v23h65v-25q34 -11 57 -41.5t23 -68.5h-66q0 23 -14.5 39t-36.5 16t-36.5 -17.5t-14.5 -37.5v-175q0 -20 14.5 -37t36.5 -17t37.5 16.5t15.5 39.5h66q0 -40 -23 -71.5t-59 -41.5v-22h-65z" />
    <glyph glyph-name="dollar.numerator" unicode="&#xf62f;" 
d="M267 265v23q-39 7 -63 38.5t-24 73.5v11h67v-11q0 -22 14.5 -36.5t38.5 -14.5q23 0 37.5 13.5t14.5 32.5q0 24 -17 40.5t-41.5 26.5t-49 21.5t-41.5 34.5t-17 57q0 39 22.5 69.5t58.5 41.5v24h65v-24q39 -10 61 -42t22 -79h-67q0 25 -13 42t-34 17t-34 -13t-13 -33
q0 -18 17 -31t41.5 -22.5t49 -22t41.5 -38.5t17 -64q0 -42 -24 -73.5t-64 -38.5v-23h-65z" />
    <glyph glyph-name="hyphen.numerator" unicode="&#xf630;" 
d="M379 522v-63h-159v63h159z" />
    <glyph glyph-name="parenleft.numerator" unicode="&#xf631;" 
d="M367 287v-66q-55 0 -94.5 34.5t-39.5 82.5v306q0 49 39 83t95 34v-67q-29 0 -48 -14.5t-19 -35.5v-306q0 -22 19 -36.5t48 -14.5z" />
    <glyph glyph-name="parenright.numerator" unicode="&#xf632;" 
d="M233 221v66q29 0 48 14.5t19 36.5v306q0 21 -19 35.5t-48 14.5v67q56 0 95 -34t39 -83v-306q0 -48 -39.5 -82.5t-94.5 -34.5z" />
    <glyph glyph-name="zero.slash" unicode="&#xf638;" 
d="M490 526v-352q0 -76 -56 -130t-135 -54t-134 54t-55 131v351q0 77 55 130.5t134 53.5t135 -54t56 -130zM192 528v-246l215 247q-1 43 -33.5 74t-74.5 31t-74.5 -31.5t-32.5 -74.5zM407 170v245l-215 -246q1 -43 33 -73t75 -30q42 0 74.5 30.5t32.5 73.5z" />
    <glyph glyph-name="zero.denominator" unicode="&#xf655;" 
d="M417 310v-204q0 -49 -34 -82.5t-84 -33.5t-83.5 34t-33.5 83v203q0 48 33.5 81.5t83.5 33.5q49 0 83.5 -33.5t34.5 -81.5zM350 105v205q0 21 -15.5 36t-35.5 15t-35 -15t-15 -36v-205q0 -21 15.5 -36t35.5 -15t35 15t15 36z" />
    <glyph glyph-name="one.denominator" unicode="&#xf656;" 
d="M231 315v68l75 36h63v-419h-67v348z" />
    <glyph glyph-name="two.denominator" unicode="&#xf657;" 
d="M186 327v69q50 33 110 33q52 0 86 -34t34 -89q0 -58 -67 -137l-89 -104h160v-65h-240v67l129 154q40 47 40 85q0 27 -16 43t-39 16q-22 0 -49 -9.5t-43 -19.5z" />
    <glyph glyph-name="three.denominator" unicode="&#xf658;" 
d="M265 187v64h27q22 0 38 11.5t16 30.5v19q0 21 -14.5 34.5t-38.5 13.5q-19 0 -44.5 -6t-41.5 -12l-16 -7v67q54 23 103 23q55 0 87.5 -30.5t32.5 -77.5v-24q0 -20 -9 -37.5t-19 -25.5l-9 -7q5 -3 12 -9t18.5 -27t11.5 -46v-32q0 -53 -35.5 -86t-96.5 -33q-27 0 -53.5 7
t-39.5 15l-13 7v68q60 -32 106 -32q30 0 47 15t17 39v31q0 21 -17.5 34t-41.5 13h-27z" />
    <glyph glyph-name="four.denominator" unicode="&#xf659;" 
d="M174 86v57l126 276h72l-121 -268h73v59h68v-59h33v-65h-33v-86h-68v86h-150z" />
    <glyph glyph-name="five.denominator" unicode="&#xf65a;" 
d="M416 168v-60q0 -53 -34 -85.5t-96 -32.5q-24 0 -50 6.5t-40 13.5l-13 6v68q59 -30 103 -30q30 0 46.5 15t16.5 39v60q0 22 -15 36.5t-40 14.5q-14 0 -29 -4t-23 -8l-8 -4l-46 20l13 192h202v-65h-139l-6 -74q23 7 38 7q52 0 86 -33t34 -82z" />
    <glyph glyph-name="six.denominator" unicode="&#xf65b;" 
d="M300 223q-21 0 -35.5 -15t-14.5 -36v-67q0 -22 14.5 -36.5t35.5 -14.5t35.5 15t14.5 36v67q0 21 -14.5 36t-35.5 15zM302 424q24 0 46 -3t32 -5l11 -3v-67q-42 14 -80 14q-27 0 -44 -15.5t-17 -37.5v-38q26 18 54 18q49 0 81 -33t32 -82v-66q0 -48 -33 -82t-84 -34
q-49 0 -83 33.5t-34 81.5v203q0 49 33 82.5t86 33.5z" />
    <glyph glyph-name="seven.denominator" unicode="&#xf65c;" 
d="M320 0h-69q0 61 19.5 132.5t43.5 135t28 86.5h-153v65h221v-52q0 -25 -22.5 -87.5t-45 -140t-22.5 -139.5z" />
    <glyph glyph-name="eight.denominator" unicode="&#xf65d;" 
d="M418 314v-21q0 -48 -32 -78q36 -34 36 -85v-25q0 -48 -35.5 -81.5t-86.5 -33.5t-86.5 34t-35.5 82v24q0 52 36 85q-31 31 -31 78v21q0 46 34 78t83 32q50 0 84 -32t34 -78zM355 105v25q0 21 -16.5 36t-38.5 15t-38.5 -15t-16.5 -36v-25q0 -21 16.5 -36t38.5 -15t38.5 15
t16.5 36zM350 292v20q0 20 -15 34t-35 14t-35 -14t-15 -34v-19q0 -19 14 -32.5t36 -13.5q21 0 35.5 13t14.5 32z" />
    <glyph glyph-name="nine.denominator" unicode="&#xf65e;" 
d="M300 191q21 0 35.5 15t14.5 36v67q0 22 -14.5 36.5t-35.5 14.5t-35.5 -15t-14.5 -36v-67q0 -21 14.5 -36t35.5 -15zM298 -10q-24 0 -46 3t-32 5l-11 3v67q42 -14 80 -14q27 0 44 15.5t17 37.5v38q-26 -18 -54 -18q-49 0 -81 33t-32 82v66q0 48 33 82t84 34q49 0 83 -33.5
t34 -81.5v-203q0 -49 -33 -82.5t-86 -33.5z" />
    <glyph glyph-name="comma.denominator" unicode="&#xf65f;" 
d="M265 0v75h75v-59q0 -83 -80 -83v31q29 4 31 36h-26z" />
    <glyph glyph-name="period.denominator" unicode="&#xf660;" 
d="M262 0v75h75v-75h-75z" />
    <glyph glyph-name="zero.numerator" unicode="&#xf661;" 
d="M417 595v-204q0 -49 -34 -82.5t-84 -33.5t-83.5 34t-33.5 83v203q0 48 33.5 81.5t83.5 33.5q49 0 83.5 -33.5t34.5 -81.5zM350 390v205q0 21 -15.5 36t-35.5 15t-35 -15t-15 -36v-205q0 -21 15.5 -36t35.5 -15t35 15t15 36z" />
    <glyph glyph-name="one.numerator" unicode="&#xf662;" 
d="M231 596v68l75 36h63v-419h-67v348z" />
    <glyph glyph-name="two.numerator" unicode="&#xf663;" 
d="M186 608v69q50 33 110 33q52 0 86 -34t34 -89q0 -58 -67 -137l-89 -104h160v-65h-240v67l129 154q40 47 40 85q0 27 -16 43t-39 16q-22 0 -49 -9.5t-43 -18.5z" />
    <glyph glyph-name="three.numerator" unicode="&#xf664;" 
d="M265 472v64h27q22 0 38 11.5t16 30.5v19q0 21 -14.5 34.5t-38.5 13.5q-19 0 -44.5 -6.5t-41.5 -12.5l-16 -6v67q54 23 103 23q55 0 87.5 -30t32.5 -78v-24q0 -20 -9 -37.5t-19 -24.5l-9 -8q5 -3 12 -9t18.5 -27t11.5 -46v-32q0 -53 -35.5 -86t-96.5 -33q-27 0 -53.5 7.5
t-39.5 14.5l-13 7v68q60 -32 106 -32q30 0 47 15t17 39v31q0 21 -17.5 34t-41.5 13h-27z" />
    <glyph glyph-name="four.numerator" unicode="&#xf665;" 
d="M174 367v57l126 276h72l-121 -268h73v59h68v-59h33v-65h-33v-86h-68v86h-150z" />
    <glyph glyph-name="five.numerator" unicode="&#xf666;" 
d="M416 453v-60q0 -53 -34 -85.5t-96 -32.5q-24 0 -50 6.5t-40 12.5l-13 7v68q59 -30 103 -30q30 0 46.5 15t16.5 39v60q0 22 -15 36.5t-40 14.5q-14 0 -29 -4t-23 -8l-8 -4l-46 20l13 192h202v-65h-139l-6 -74q23 7 38 7q52 0 86 -33t34 -82z" />
    <glyph glyph-name="six.numerator" unicode="&#xf667;" 
d="M300 509q-21 0 -35.5 -15t-14.5 -36v-67q0 -22 14.5 -36.5t35.5 -14.5t35.5 15t14.5 36v67q0 21 -14.5 36t-35.5 15zM302 710q24 0 46 -3t32 -5l11 -3v-67q-42 14 -80 14q-27 0 -44 -15.5t-17 -37.5v-38q26 18 54 18q49 0 81 -33t32 -82v-66q0 -48 -33 -82t-84 -34
q-49 0 -83 33.5t-34 81.5v203q0 49 33 82.5t86 33.5z" />
    <glyph glyph-name="seven.numerator" unicode="&#xf668;" 
d="M320 281h-69q0 61 19.5 132.5t43.5 135t28 86.5h-153v65h221v-52q0 -25 -22.5 -87.5t-45 -140t-22.5 -139.5z" />
    <glyph glyph-name="eight.numerator" unicode="&#xf669;" 
d="M418 599v-21q0 -48 -32 -78q36 -34 36 -85v-25q0 -48 -35.5 -81.5t-86.5 -33.5t-86.5 34t-35.5 82v24q0 52 36 85q-31 31 -31 78v21q0 46 34 78t83 32q50 0 84 -32t34 -78zM355 390v25q0 21 -16.5 36t-38.5 15t-38.5 -15t-16.5 -36v-25q0 -21 16.5 -36t38.5 -15t38.5 15
t16.5 36zM350 577v20q0 20 -15 34t-35 14t-35 -14t-15 -34v-19q0 -19 14 -32.5t36 -13.5q21 0 35.5 13t14.5 32z" />
    <glyph glyph-name="nine.numerator" unicode="&#xf66a;" 
d="M300 477q21 0 35.5 15t14.5 36v67q0 22 -14.5 36.5t-35.5 14.5t-35.5 -15t-14.5 -36v-67q0 -21 14.5 -36t35.5 -15zM298 276q-24 0 -46 3t-32 5l-11 3v67q42 -14 80 -14q27 0 44 15.5t17 37.5v38q-26 -18 -54 -18q-49 0 -81 33t-32 82v66q0 48 33 82t84 34q49 0 83 -33.5
t34 -81.5v-203q0 -49 -33 -82.5t-86 -33.5z" />
    <glyph glyph-name="comma.numerator" unicode="&#xf66b;" 
d="M265 275v75h75v-59q0 -83 -80 -83v31q29 4 31 36h-26z" />
    <glyph glyph-name="period.numerator" unicode="&#xf66c;" 
d="M262 275v75h75v-75h-75z" />
    <glyph glyph-name="parenleft.cap" unicode="&#xf6ae;" 
d="M398 -23v-77q-82 0 -139.5 54t-57.5 131v532q0 76 57.5 130t139.5 54v-79q-49 0 -82.5 -31t-33.5 -75v-532q0 -45 33.5 -76t82.5 -31z" />
    <glyph glyph-name="parenright.cap" unicode="&#xf6af;" 
d="M201 -100v77q49 0 82 31t33 76v532q0 45 -33 75.5t-82 30.5v79q82 0 140 -54t58 -130v-532q0 -76 -58 -130.5t-140 -54.5z" />
    <glyph glyph-name="bracketleft.cap" unicode="&#xf6b0;" 
d="M398 -12v-77h-197v879h197v-79h-116v-723h116z" />
    <glyph glyph-name="bracketright.cap" unicode="&#xf6b1;" 
d="M201 -89v77h116v723h-116v79h197v-879h-197z" />
    <glyph glyph-name="braceleft.cap" unicode="&#xf6b2;" 
d="M425 -23v-77q-82 0 -139 54t-57 131v189q0 18 -16 31t-38 13v75q22 0 38 13t16 30v181q0 77 57 130.5t139 53.5v-79q-48 0 -81 -31t-33 -75v-170q0 -58 -58 -92q58 -32 58 -91v-179q0 -45 33 -76t81 -31z" />
    <glyph glyph-name="braceright.cap" unicode="&#xf6b3;" 
d="M175 -100v77q48 0 81 31t33 76v179q0 59 58 91q-58 34 -58 92v170q0 44 -33 75t-81 31v79q82 0 139 -53.5t57 -130.5v-181q0 -17 16 -30t38 -13v-75q-22 0 -38 -13t-16 -31v-189q0 -77 -57 -131t-139 -54z" />
    <glyph glyph-name="exclamdown.cap" unicode="&#xf6b4;" 
d="M349 700v-98h-98v98h98zM260 0v370l10 165h61l10 -165v-370h-81z" />
    <glyph glyph-name="questiondown.cap" unicode="&#xf6b5;" 
d="M304 -10q-78 0 -131.5 48.5t-53.5 131.5q0 41 12.5 73.5t31 52.5l40 44.5l40 47t31 61t12.5 86.5h70q0 -69 -15.5 -120.5t-38 -81.5t-44.5 -54t-37.5 -51t-15.5 -59q0 -42 31.5 -71t74.5 -29q41 0 83.5 14.5t64.5 28.5l22 14v-85q-8 -6 -23.5 -14.5t-61.5 -22.5t-92 -14z
M372 700v-98h-98v98h98z" />
    <glyph glyph-name="guillemotleft.cap" unicode="&#xf6b6;" 
d="M318 193h-94l-122 158l122 159h93l-123 -159zM497 193h-94l-122 158l122 159h93l-123 -159z" />
    <glyph glyph-name="guillemotright.cap" unicode="&#xf6b7;" 
d="M375 193h-94l124 158l-123 159h93l122 -159zM196 193h-94l124 158l-123 159h93l122 -159z" />
    <glyph glyph-name="guilsinglleft.cap" unicode="&#xf6b8;" 
d="M408 193h-94l-122 158l122 159h93l-123 -159z" />
    <glyph glyph-name="guilsinglright.cap" unicode="&#xf6b9;" 
d="M286 193h-93l123 158l-124 159h94l122 -159z" />
    <glyph glyph-name="hyphen.cap" unicode="&#xf6ba;" 
d="M422 392v-78h-244v78h244z" />
    <glyph glyph-name="endash.cap" unicode="&#xf6bb;" 
d="M490 392v-78h-380v78h380z" />
    <glyph glyph-name="emdash.cap" unicode="&#xf6bc;" 
d="M655 392v-78h-709v78h709z" />
    <glyph glyph-name="periodcentered.cap" unicode="&#xf6bd;" 
d="M251 302v98h98v-98h-98z" />
    <glyph glyph-name="centinferior" unicode="&#xf6df;" 
d="M270 -190v20q-38 9 -63 42.5t-25 71.5v175q0 39 23.5 71.5t64.5 39.5v23h65v-25q34 -11 57 -41.5t23 -68.5h-66q0 23 -14.5 39t-36.5 16t-36.5 -17.5t-14.5 -37.5v-175q0 -20 14.5 -37t36.5 -17t37.5 16.5t15.5 39.5h66q0 -40 -23 -71.5t-59 -41.5v-22h-65z" />
    <glyph glyph-name="centsuperior" unicode="&#xf6e0;" 
d="M270 266v20q-38 9 -63 42.5t-25 71.5v175q0 39 23.5 71.5t64.5 39.5v23h65v-25q34 -11 57 -41.5t23 -68.5h-66q0 23 -14.5 39t-36.5 16t-36.5 -17.5t-14.5 -37.5v-175q0 -20 14.5 -37t36.5 -17t37.5 16.5t15.5 39.5h66q0 -40 -23 -71.5t-59 -41.5v-22h-65z" />
    <glyph glyph-name="commainferior" unicode="&#xf6e1;" 
d="M265 -180v75h75v-59q0 -83 -80 -83v31q29 4 31 36h-26z" />
    <glyph glyph-name="commasuperior" unicode="&#xf6e2;" 
d="M265 281v75h75v-59q0 -83 -80 -83v31q29 4 31 36h-26z" />
    <glyph glyph-name="dollarinferior" unicode="&#xf6e3;" 
d="M267 -191v23q-39 7 -63 38.5t-24 73.5v11h67v-11q0 -22 14.5 -36.5t38.5 -14.5q23 0 37.5 13.5t14.5 32.5q0 24 -17 40.5t-41.5 26.5t-49 21.5t-41.5 34.5t-17 57q0 39 22.5 69.5t58.5 41.5v24h65v-24q39 -10 61 -42t22 -79h-67q0 25 -13 42t-34 17t-34 -13t-13 -33
q0 -18 17 -31t41.5 -22.5t49 -22t41.5 -38.5t17 -64q0 -42 -24 -73.5t-64 -38.5v-23h-65z" />
    <glyph glyph-name="dollarsuperior" unicode="&#xf6e4;" 
d="M267 265v23q-39 7 -63 38.5t-24 73.5v11h67v-11q0 -22 14.5 -36.5t38.5 -14.5q23 0 37.5 13.5t14.5 32.5q0 24 -17 40.5t-41.5 26.5t-49 21.5t-41.5 34.5t-17 57q0 39 22.5 69.5t58.5 41.5v24h65v-24q39 -10 61 -42t22 -79h-67q0 25 -13 42t-34 17t-34 -13t-13 -33
q0 -18 17 -31t41.5 -22.5t49 -22t41.5 -38.5t17 -64q0 -42 -24 -73.5t-64 -38.5v-23h-65z" />
    <glyph glyph-name="hypheninferior" unicode="&#xf6e5;" 
d="M379 67v-63h-159v63h159z" />
    <glyph glyph-name="hyphensuperior" unicode="&#xf6e6;" 
d="M379 522v-63h-159v63h159z" />
    <glyph glyph-name="periodinferior" unicode="&#xf6e7;" 
d="M262 -180v75h75v-75h-75z" />
    <glyph glyph-name="periodsuperior" unicode="&#xf6e8;" 
d="M262 281v75h75v-75h-75z" />
    <glyph glyph-name="commaaccent" 
d="M259 -137v92h88v-83q0 -68 -29.5 -94.5t-65.5 -26.5v39q44 2 44 73h-37z" />
  </font>
</defs>
</svg>
